{"glyphs":{"0":{"ha":856,"x_min":93,"x_max":763,"o":"m 428 -14 q 176 92 253 -14 q 94 369 99 197 l 93 485 l 94 603 q 176 881 99 775 q 428 986 253 986 q 680 881 603 986 q 761 603 757 775 q 763 485 763 564 q 761 369 763 407 q 680 92 757 197 q 428 -14 603 -14 m 428 69 q 609 149 547 69 q 674 376 671 229 q 675 488 675 417 q 674 596 675 558 q 609 822 671 740 q 428 903 547 903 q 247 822 308 903 q 182 596 185 740 l 181 488 l 182 376 q 247 149 185 229 q 428 69 308 69 z "},"1":{"ha":553,"x_min":39,"x_max":440,"o":"m 383 0 q 361 8 369 0 q 353 31 353 17 l 353 858 l 104 667 q 85 660 93 660 q 61 672 71 660 l 46 692 q 39 711 39 701 q 51 735 39 725 l 347 963 q 383 972 361 972 l 410 972 q 432 964 424 972 q 440 942 440 956 l 440 31 q 432 8 440 17 q 410 0 424 0 l 383 0 z "},"2":{"ha":778,"x_min":72,"x_max":704,"o":"m 103 0 q 81 8 89 0 q 72 31 72 17 l 72 51 q 107 110 72 79 l 467 469 q 569 589 543 540 q 596 704 596 638 q 542 850 596 797 q 390 903 489 903 q 242 849 297 903 q 175 703 186 794 q 163 679 174 688 q 143 671 153 671 l 115 671 q 94 678 101 671 q 86 697 86 686 q 122 832 89 765 q 224 942 156 899 q 390 986 292 986 q 611 906 539 986 q 683 704 683 825 q 647 554 683 621 q 532 414 611 488 l 207 83 l 672 83 q 696 75 688 83 q 704 51 704 67 l 704 31 q 695 8 704 17 q 672 0 686 0 l 103 0 z "},"3":{"ha":800,"x_min":65,"x_max":729,"o":"m 397 -14 q 223 19 297 -14 q 108 107 149 53 q 65 224 68 161 q 74 243 65 236 q 94 250 82 250 l 114 250 q 138 244 128 250 q 151 218 147 238 q 240 103 171 136 q 397 69 308 69 q 575 122 508 69 q 642 275 642 175 q 411 467 642 467 l 289 467 q 267 475 275 467 q 258 497 258 483 l 258 518 q 271 551 258 533 l 557 889 l 138 889 q 115 897 124 889 q 107 919 107 906 l 107 940 q 115 963 107 954 q 138 972 124 972 l 656 972 q 679 964 671 972 q 688 940 688 956 l 688 919 q 676 893 688 907 l 383 550 l 411 550 q 644 481 558 550 q 729 275 729 411 q 686 120 729 186 q 568 20 643 54 q 397 -14 493 -14 z "},"4":{"ha":826,"x_min":44,"x_max":778,"o":"m 564 0 q 542 8 550 0 q 533 31 533 17 l 533 250 l 75 250 q 53 258 61 250 q 44 281 44 267 l 44 303 q 60 344 44 324 l 482 949 q 503 966 489 960 q 533 972 517 972 l 590 972 q 613 964 604 972 q 621 942 621 956 l 621 333 l 747 333 q 769 325 761 333 q 778 303 778 317 l 778 281 q 769 258 778 267 q 747 250 761 250 l 621 250 l 621 31 q 613 8 621 17 q 590 0 604 0 l 564 0 m 154 333 l 533 333 l 533 874 l 154 333 z "},"5":{"ha":794,"x_min":69,"x_max":724,"o":"m 389 -14 q 220 23 292 -14 q 110 118 149 60 q 69 243 72 176 l 69 246 q 77 263 69 257 q 97 269 85 269 l 124 269 q 146 263 138 269 q 158 238 154 257 q 243 111 179 153 q 389 69 307 69 q 566 133 496 69 q 636 311 636 197 q 603 432 636 381 q 514 511 571 483 q 389 539 457 539 q 299 524 333 539 q 231 485 265 510 q 197 463 210 469 q 168 456 183 456 l 143 456 q 121 465 131 456 q 113 486 111 474 l 154 940 q 163 964 156 956 q 185 972 171 972 l 638 972 q 660 964 651 972 q 668 942 668 956 l 668 919 q 660 897 668 906 q 638 889 651 889 l 239 889 l 210 575 q 389 622 283 622 q 559 586 483 622 q 679 480 635 550 q 724 311 724 410 q 679 133 724 207 q 559 23 635 60 q 389 -14 483 -14 z "},"6":{"ha":808,"x_min":76,"x_max":751,"o":"m 414 -14 q 231 32 307 -14 q 115 153 154 78 q 76 314 76 228 q 164 560 76 435 l 438 944 q 445 955 439 947 q 460 967 451 963 q 481 972 469 972 l 507 972 q 527 963 519 972 q 535 942 535 954 q 528 924 535 935 l 319 629 q 414 640 361 640 q 597 595 521 640 q 713 475 674 550 q 751 314 751 400 q 713 153 751 228 q 597 32 674 78 q 414 -14 521 -14 m 414 69 q 538 98 481 69 q 629 182 594 126 q 664 314 664 238 q 629 445 664 390 q 538 528 594 500 q 414 557 481 557 q 290 528 347 557 q 199 445 233 500 q 164 314 164 390 q 199 182 164 238 q 290 98 233 126 q 414 69 347 69 z "},"7":{"ha":676,"x_min":40,"x_max":639,"o":"m 213 0 q 192 9 200 0 q 185 31 185 18 l 188 43 l 544 889 l 71 889 q 49 897 57 889 q 40 919 40 906 l 40 940 q 49 963 40 954 q 71 972 57 972 l 607 972 q 631 964 622 972 q 639 940 639 956 l 639 919 q 629 868 639 893 l 278 35 q 263 9 271 18 q 242 0 256 0 l 213 0 z "},"8":{"ha":858,"x_min":83,"x_max":775,"o":"m 429 -14 q 253 19 332 -14 q 129 118 175 53 q 83 274 83 183 q 125 422 83 360 q 240 519 167 485 q 150 605 182 551 q 118 731 118 658 q 206 919 118 851 q 429 986 294 986 q 652 919 564 986 q 740 731 740 851 q 708 605 740 658 q 618 519 675 551 q 733 422 692 485 q 775 274 775 360 q 729 118 775 183 q 605 19 683 53 q 429 -14 526 -14 m 429 560 q 588 608 524 563 q 653 731 653 654 q 589 856 653 810 q 429 903 525 903 q 269 856 333 903 q 206 731 206 810 q 269 606 206 651 q 429 560 333 560 m 429 69 q 613 125 539 69 q 688 274 688 181 q 614 421 688 365 q 429 476 540 476 q 244 421 318 476 q 171 274 171 365 q 245 125 171 181 q 429 69 319 69 z "},"9":{"ha":794,"x_min":58,"x_max":718,"o":"m 279 0 q 259 9 267 0 q 251 31 251 18 q 258 49 251 39 l 478 357 q 388 346 436 346 q 208 392 282 346 q 96 511 133 438 q 58 665 58 585 q 96 819 58 746 q 208 940 133 893 q 388 986 282 986 q 568 940 493 986 q 681 819 643 893 q 718 665 718 746 q 694 538 718 593 q 636 432 671 482 l 350 28 q 342 17 349 25 q 327 5 336 10 q 307 0 318 0 l 279 0 m 388 429 q 508 458 453 429 q 597 542 564 488 q 631 665 631 596 q 597 790 631 736 q 508 874 564 844 q 388 903 453 903 q 267 874 322 903 q 178 790 211 844 q 146 665 146 736 q 178 541 146 594 q 267 458 211 488 q 388 429 322 429 z "},"\u0000":{"ha":0,"x_min":0,"x_max":0,"o":""},"\r":{"ha":358,"x_min":0,"x_max":0,"o":""}," ":{"ha":358,"x_min":0,"x_max":0,"o":""},"A":{"ha":903,"x_min":33,"x_max":869,"o":"m 61 0 q 42 8 50 0 q 33 28 33 17 l 36 43 l 388 944 q 428 972 399 972 l 475 972 q 515 944 504 972 l 867 43 l 869 28 q 861 8 869 17 q 842 0 853 0 l 814 0 q 794 7 801 0 q 783 21 786 14 l 697 243 l 206 243 l 119 21 q 109 7 117 14 q 89 0 101 0 l 61 0 m 239 326 l 664 326 l 451 874 l 239 326 z "},"Á":{"ha":903,"x_min":33,"x_max":869,"o":"m 61 0 q 42 8 50 0 q 33 28 33 17 l 36 43 l 388 944 q 428 972 399 972 l 475 972 q 515 944 504 972 l 867 43 l 869 28 q 861 8 869 17 q 842 0 853 0 l 814 0 q 794 7 801 0 q 783 21 786 14 l 697 243 l 206 243 l 119 21 q 109 7 117 14 q 89 0 101 0 l 61 0 m 239 326 l 664 326 l 451 874 l 239 326 m 435 1042 q 413 1064 413 1042 q 419 1082 413 1075 l 515 1197 q 538 1217 528 1213 q 567 1222 547 1222 l 631 1222 q 657 1196 657 1222 q 650 1179 657 1186 l 499 1056 q 479 1044 488 1047 q 456 1042 471 1042 l 435 1042 z "},"Ă":{"ha":903,"x_min":33,"x_max":869,"o":"m 61 0 q 42 8 50 0 q 33 28 33 17 l 36 43 l 388 944 q 428 972 399 972 l 475 972 q 515 944 504 972 l 867 43 l 869 28 q 861 8 869 17 q 842 0 853 0 l 814 0 q 794 7 801 0 q 783 21 786 14 l 697 243 l 206 243 l 119 21 q 109 7 117 14 q 89 0 101 0 l 61 0 m 239 326 l 664 326 l 451 874 l 239 326 m 451 1028 q 328 1074 364 1028 q 292 1189 292 1119 q 299 1208 292 1200 q 318 1215 306 1215 l 339 1215 q 358 1208 351 1215 q 365 1189 365 1200 q 385 1124 365 1150 q 451 1097 404 1097 q 518 1124 499 1097 q 538 1189 538 1150 q 544 1208 538 1200 q 564 1215 551 1215 l 585 1215 q 604 1208 597 1215 q 611 1189 611 1200 q 575 1074 611 1119 q 451 1028 539 1028 z "},"Â":{"ha":903,"x_min":33,"x_max":869,"o":"m 61 0 q 42 8 50 0 q 33 28 33 17 l 36 43 l 388 944 q 428 972 399 972 l 475 972 q 515 944 504 972 l 867 43 l 869 28 q 861 8 869 17 q 842 0 853 0 l 814 0 q 794 7 801 0 q 783 21 786 14 l 697 243 l 206 243 l 119 21 q 109 7 117 14 q 89 0 101 0 l 61 0 m 239 326 l 664 326 l 451 874 l 239 326 m 282 1042 q 263 1057 263 1042 q 279 1085 263 1068 l 400 1203 q 422 1219 413 1215 q 444 1222 432 1222 l 458 1222 q 481 1219 472 1222 q 503 1203 490 1215 l 624 1085 q 640 1057 640 1068 q 621 1042 640 1042 l 597 1042 q 578 1044 588 1042 q 563 1051 568 1047 l 451 1135 l 340 1051 q 325 1044 335 1047 q 306 1042 315 1042 l 282 1042 z "},"Ä":{"ha":903,"x_min":33,"x_max":869,"o":"m 61 0 q 42 8 50 0 q 33 28 33 17 l 36 43 l 388 944 q 428 972 399 972 l 475 972 q 515 944 504 972 l 867 43 l 869 28 q 861 8 869 17 q 842 0 853 0 l 814 0 q 794 7 801 0 q 783 21 786 14 l 697 243 l 206 243 l 119 21 q 109 7 117 14 q 89 0 101 0 l 61 0 m 239 326 l 664 326 l 451 874 l 239 326 m 297 1042 q 275 1050 283 1042 q 267 1072 267 1058 l 267 1125 q 275 1148 267 1139 q 297 1157 283 1157 l 350 1157 q 373 1148 364 1157 q 382 1125 382 1139 l 382 1072 q 373 1050 382 1058 q 350 1042 364 1042 l 297 1042 m 551 1042 q 529 1050 538 1042 q 521 1072 521 1058 l 521 1125 q 529 1148 521 1139 q 551 1157 538 1157 l 604 1157 q 627 1148 618 1157 q 636 1125 636 1139 l 636 1072 q 627 1050 636 1058 q 604 1042 618 1042 l 551 1042 z "},"À":{"ha":903,"x_min":33,"x_max":869,"o":"m 61 0 q 42 8 50 0 q 33 28 33 17 l 36 43 l 388 944 q 428 972 399 972 l 475 972 q 515 944 504 972 l 867 43 l 869 28 q 861 8 869 17 q 842 0 853 0 l 814 0 q 794 7 801 0 q 783 21 786 14 l 697 243 l 206 243 l 119 21 q 109 7 117 14 q 89 0 101 0 l 61 0 m 239 326 l 664 326 l 451 874 l 239 326 m 461 1042 q 438 1044 446 1042 q 418 1056 429 1047 l 267 1179 q 260 1196 260 1186 q 286 1222 260 1222 l 350 1222 q 379 1217 369 1222 q 401 1197 389 1213 l 497 1082 q 504 1064 504 1075 q 482 1042 504 1042 l 461 1042 z "},"Ā":{"ha":903,"x_min":33,"x_max":869,"o":"m 61 0 q 42 8 50 0 q 33 28 33 17 l 36 43 l 388 944 q 428 972 399 972 l 475 972 q 515 944 504 972 l 867 43 l 869 28 q 861 8 869 17 q 842 0 853 0 l 814 0 q 794 7 801 0 q 783 21 786 14 l 697 243 l 206 243 l 119 21 q 109 7 117 14 q 89 0 101 0 l 61 0 m 239 326 l 664 326 l 451 874 l 239 326 m 313 1042 q 290 1050 299 1042 q 282 1072 282 1058 l 282 1103 q 290 1125 282 1117 q 313 1133 299 1133 l 589 1133 q 611 1125 603 1133 q 619 1103 619 1117 l 619 1072 q 611 1050 619 1058 q 589 1042 603 1042 l 313 1042 z "},"Ą":{"ha":903,"x_min":33,"x_max":869,"o":"m 796 -306 q 662 -254 711 -306 q 613 -114 613 -203 q 652 15 613 -35 q 761 76 692 65 l 757 88 l 697 243 l 206 243 l 119 21 q 109 7 117 14 q 89 0 101 0 l 61 0 q 42 8 50 0 q 33 28 33 17 l 36 43 l 388 944 q 428 972 399 972 l 475 972 q 515 944 504 972 l 867 43 l 869 28 q 861 8 869 17 q 842 0 853 0 l 801 0 q 725 -31 754 0 q 696 -114 696 -61 q 725 -197 696 -167 q 801 -226 754 -226 l 822 -226 q 844 -235 836 -226 q 853 -257 853 -243 l 853 -275 q 844 -297 853 -289 q 822 -306 836 -306 l 796 -306 m 239 326 l 664 326 l 451 874 l 239 326 z "},"Å":{"ha":903,"x_min":33,"x_max":869,"o":"m 61 0 q 42 8 50 0 q 33 28 33 17 l 36 43 l 388 944 q 428 972 399 972 l 475 972 q 515 944 504 972 l 867 43 l 869 28 q 861 8 869 17 q 842 0 853 0 l 814 0 q 794 7 801 0 q 783 21 786 14 l 697 243 l 206 243 l 119 21 q 109 7 117 14 q 89 0 101 0 l 61 0 m 239 326 l 664 326 l 451 874 l 239 326 m 451 1028 q 372 1057 404 1028 q 340 1132 340 1086 q 372 1207 340 1178 q 451 1236 404 1236 q 531 1207 499 1236 q 563 1132 563 1178 q 531 1057 563 1086 q 451 1028 499 1028 m 451 1090 q 481 1102 469 1090 q 493 1132 493 1114 q 481 1162 493 1150 q 451 1174 469 1174 q 422 1162 433 1174 q 410 1132 410 1150 q 422 1102 410 1114 q 451 1090 433 1090 z "},"Ã":{"ha":903,"x_min":33,"x_max":869,"o":"m 61 0 q 42 8 50 0 q 33 28 33 17 l 36 43 l 388 944 q 428 972 399 972 l 475 972 q 515 944 504 972 l 867 43 l 869 28 q 861 8 869 17 q 842 0 853 0 l 814 0 q 794 7 801 0 q 783 21 786 14 l 697 243 l 206 243 l 119 21 q 109 7 117 14 q 89 0 101 0 l 61 0 m 239 326 l 664 326 l 451 874 l 239 326 m 519 1035 q 479 1041 496 1035 q 435 1063 463 1047 q 385 1082 401 1082 q 367 1077 374 1082 q 354 1061 361 1072 q 328 1042 343 1042 l 300 1042 q 284 1049 290 1042 q 278 1064 278 1056 q 308 1138 278 1104 q 381 1172 339 1172 q 423 1165 404 1172 q 465 1144 442 1158 q 485 1134 468 1143 q 517 1125 501 1125 q 534 1130 528 1125 q 547 1146 540 1135 q 558 1162 553 1157 q 574 1167 564 1167 l 601 1167 q 617 1160 611 1167 q 624 1144 624 1153 q 592 1069 624 1104 q 519 1035 560 1035 z "},"Æ":{"ha":1278,"x_min":7,"x_max":1201,"o":"m 35 0 q 15 8 24 0 q 7 28 7 17 q 13 47 7 36 l 521 946 q 557 972 535 972 l 1158 972 q 1182 964 1174 972 q 1190 940 1190 956 l 1190 919 q 1181 897 1190 906 q 1158 889 1172 889 l 674 889 l 674 535 l 1128 535 q 1151 526 1143 535 q 1160 503 1160 518 l 1160 482 q 1151 460 1160 468 q 1128 451 1142 451 l 674 451 l 674 83 l 1169 83 q 1193 75 1185 83 q 1201 51 1201 67 l 1201 31 q 1192 8 1201 17 q 1169 0 1183 0 l 617 0 q 594 8 603 0 q 586 31 586 17 l 586 243 l 222 243 l 97 21 q 67 0 86 0 l 35 0 m 269 326 l 586 326 l 586 879 l 585 879 l 269 326 z "},"Ǽ":{"ha":1278,"x_min":7,"x_max":1201,"o":"m 35 0 q 15 8 24 0 q 7 28 7 17 q 13 47 7 36 l 521 946 q 557 972 535 972 l 1158 972 q 1182 964 1174 972 q 1190 940 1190 956 l 1190 919 q 1181 897 1190 906 q 1158 889 1172 889 l 674 889 l 674 535 l 1128 535 q 1151 526 1143 535 q 1160 503 1160 518 l 1160 482 q 1151 460 1160 468 q 1128 451 1142 451 l 674 451 l 674 83 l 1169 83 q 1193 75 1185 83 q 1201 51 1201 67 l 1201 31 q 1192 8 1201 17 q 1169 0 1183 0 l 617 0 q 594 8 603 0 q 586 31 586 17 l 586 243 l 222 243 l 97 21 q 67 0 86 0 l 35 0 m 269 326 l 586 326 l 586 879 l 585 879 l 269 326 m 622 1042 q 600 1064 600 1042 q 607 1082 600 1075 l 703 1197 q 725 1217 715 1213 q 754 1222 735 1222 l 818 1222 q 844 1196 844 1222 q 838 1179 844 1186 l 686 1056 q 667 1044 675 1047 q 643 1042 658 1042 l 622 1042 z "},"B":{"ha":907,"x_min":131,"x_max":822,"o":"m 161 0 q 139 8 147 0 q 131 31 131 17 l 131 940 q 139 963 131 954 q 161 972 147 972 l 524 972 q 732 901 661 972 q 803 724 803 831 q 767 589 803 642 q 681 513 731 536 q 781 419 740 482 q 822 275 822 357 q 788 140 822 203 q 689 38 754 76 q 533 0 624 0 l 161 0 m 506 550 q 662 595 608 550 q 715 724 715 640 q 662 847 715 806 q 506 889 608 889 l 218 889 l 218 550 l 506 550 m 519 83 q 678 137 621 83 q 735 275 735 190 q 678 414 735 361 q 519 467 621 467 l 218 467 l 218 83 l 519 83 z "},"C":{"ha":904,"x_min":90,"x_max":832,"o":"m 460 -14 q 189 88 279 -14 q 92 363 99 190 q 90 485 90 400 q 92 610 90 571 q 189 884 99 782 q 460 986 279 986 q 665 941 583 986 q 787 827 747 896 q 831 686 826 758 l 831 683 q 822 665 831 672 q 801 658 814 658 l 774 658 q 743 688 749 658 q 647 854 717 806 q 460 903 578 903 q 257 829 329 903 q 179 603 185 756 q 178 488 178 565 q 179 369 178 410 q 257 143 185 217 q 460 69 329 69 q 647 118 578 69 q 743 285 717 167 q 774 314 749 314 l 801 314 q 823 306 814 314 q 831 286 832 299 q 787 145 826 214 q 665 31 747 76 q 460 -14 583 -14 z "},"Ć":{"ha":904,"x_min":90,"x_max":831,"o":"m 460 -14 q 189 88 279 -14 q 92 363 99 190 q 90 485 90 400 q 92 610 90 571 q 189 884 99 782 q 460 986 279 986 q 665 941 583 986 q 787 827 747 896 q 831 686 826 758 l 831 683 q 822 665 831 672 q 801 658 814 658 l 774 658 q 743 688 749 658 q 647 854 717 806 q 460 903 578 903 q 257 829 329 903 q 179 603 185 756 q 178 488 178 565 q 179 369 178 410 q 257 143 185 217 q 460 69 329 69 q 647 118 578 69 q 743 285 717 167 q 774 314 749 314 l 801 314 q 823 306 814 314 q 831 286 832 299 q 787 145 826 214 q 665 31 747 76 q 460 -14 583 -14 m 436 1042 q 414 1064 414 1042 q 421 1082 414 1075 l 517 1197 q 539 1217 529 1213 q 568 1222 549 1222 l 632 1222 q 658 1196 658 1222 q 651 1179 658 1186 l 500 1056 q 481 1044 489 1047 q 457 1042 472 1042 l 436 1042 z "},"Č":{"ha":904,"x_min":90,"x_max":831,"o":"m 460 -14 q 189 88 279 -14 q 92 363 99 190 q 90 485 90 400 q 92 610 90 571 q 189 884 99 782 q 460 986 279 986 q 665 941 583 986 q 787 827 747 896 q 831 686 826 758 l 831 683 q 822 665 831 672 q 801 658 814 658 l 774 658 q 743 688 749 658 q 647 854 717 806 q 460 903 578 903 q 257 829 329 903 q 179 603 185 756 q 178 488 178 565 q 179 369 178 410 q 257 143 185 217 q 460 69 329 69 q 647 118 578 69 q 743 285 717 167 q 774 314 749 314 l 801 314 q 823 306 814 314 q 831 286 832 299 q 787 145 826 214 q 665 31 747 76 q 460 -14 583 -14 m 446 1042 q 424 1045 433 1042 q 401 1061 414 1049 l 281 1179 q 264 1207 264 1196 q 283 1222 264 1222 l 307 1222 q 326 1219 317 1222 q 342 1213 336 1217 l 453 1129 l 564 1213 q 579 1219 569 1217 q 599 1222 589 1222 l 622 1222 q 642 1207 642 1222 q 625 1179 642 1196 l 504 1061 q 483 1045 492 1049 q 460 1042 474 1042 l 446 1042 z "},"Ç":{"ha":904,"x_min":90,"x_max":832,"o":"m 458 -306 q 397 -296 425 -306 q 353 -272 369 -286 q 338 -246 338 -258 q 342 -235 338 -239 l 361 -217 q 374 -211 367 -211 q 393 -220 379 -211 q 420 -235 407 -229 q 456 -242 433 -242 q 498 -226 481 -242 q 515 -186 515 -211 q 498 -148 515 -162 q 456 -133 481 -133 q 416 -140 436 -133 q 390 -147 396 -147 q 372 -139 379 -147 l 350 -115 q 346 -104 346 -111 q 351 -87 346 -97 q 357 -74 356 -78 l 385 -8 q 169 110 240 13 q 92 363 97 208 q 90 485 90 400 q 92 610 90 571 q 189 884 99 782 q 460 986 279 986 q 665 941 583 986 q 787 827 747 896 q 831 686 826 758 l 831 683 q 822 665 831 672 q 801 658 814 658 l 774 658 q 743 688 749 658 q 647 854 717 806 q 460 903 578 903 q 257 829 329 903 q 179 603 185 756 q 178 488 178 565 q 179 369 178 410 q 257 143 185 217 q 460 69 329 69 q 647 118 578 69 q 743 285 717 167 q 774 314 749 314 l 801 314 q 823 306 814 314 q 831 286 832 299 q 787 145 826 214 q 665 31 747 76 q 460 -14 583 -14 l 428 -81 q 481 -69 446 -69 q 556 -101 526 -69 q 586 -183 586 -133 q 553 -271 586 -236 q 458 -306 519 -306 z "},"Ĉ":{"ha":904,"x_min":90,"x_max":831,"o":"m 460 -14 q 189 88 279 -14 q 92 363 99 190 q 90 485 90 400 q 92 610 90 571 q 189 884 99 782 q 460 986 279 986 q 665 941 583 986 q 787 827 747 896 q 831 686 826 758 l 831 683 q 822 665 831 672 q 801 658 814 658 l 774 658 q 743 688 749 658 q 647 854 717 806 q 460 903 578 903 q 257 829 329 903 q 179 603 185 756 q 178 488 178 565 q 179 369 178 410 q 257 143 185 217 q 460 69 329 69 q 647 118 578 69 q 743 285 717 167 q 774 314 749 314 l 801 314 q 823 306 814 314 q 831 286 832 299 q 787 145 826 214 q 665 31 747 76 q 460 -14 583 -14 m 283 1042 q 264 1057 264 1042 q 281 1085 264 1068 l 401 1203 q 424 1219 414 1215 q 446 1222 433 1222 l 460 1222 q 483 1219 474 1222 q 504 1203 492 1215 l 625 1085 q 642 1057 642 1068 q 622 1042 642 1042 l 599 1042 q 579 1044 589 1042 q 564 1051 569 1047 l 453 1135 l 342 1051 q 326 1044 336 1047 q 307 1042 317 1042 l 283 1042 z "},"Ċ":{"ha":904,"x_min":90,"x_max":831,"o":"m 460 -14 q 189 88 279 -14 q 92 363 99 190 q 90 485 90 400 q 92 610 90 571 q 189 884 99 782 q 460 986 279 986 q 665 941 583 986 q 787 827 747 896 q 831 686 826 758 l 831 683 q 822 665 831 672 q 801 658 814 658 l 774 658 q 743 688 749 658 q 647 854 717 806 q 460 903 578 903 q 257 829 329 903 q 179 603 185 756 q 178 488 178 565 q 179 369 178 410 q 257 143 185 217 q 460 69 329 69 q 647 118 578 69 q 743 285 717 167 q 774 314 749 314 l 801 314 q 823 306 814 314 q 831 286 832 299 q 787 145 826 214 q 665 31 747 76 q 460 -14 583 -14 m 418 1042 q 396 1050 404 1042 q 388 1072 388 1058 l 388 1139 q 396 1162 388 1153 q 418 1171 404 1171 l 485 1171 q 508 1162 499 1171 q 517 1139 517 1153 l 517 1072 q 508 1050 517 1058 q 485 1042 499 1042 l 418 1042 z "},"D":{"ha":940,"x_min":131,"x_max":844,"o":"m 161 0 q 139 8 147 0 q 131 31 131 17 l 131 940 q 139 963 131 954 q 161 972 147 972 l 457 972 q 685 930 601 972 q 805 806 769 888 q 843 597 840 724 q 844 488 844 556 q 843 376 844 418 q 805 162 840 243 q 688 40 769 81 q 464 0 606 0 l 161 0 m 457 83 q 632 113 568 83 q 724 208 696 143 q 756 383 753 272 q 757 488 757 425 q 756 590 757 549 q 683 817 753 746 q 450 889 613 889 l 218 889 l 218 83 l 457 83 z "},"Ð":{"ha":949,"x_min":21,"x_max":853,"o":"m 169 0 q 147 8 156 0 q 139 31 139 17 l 139 447 l 51 447 q 29 456 38 447 q 21 478 21 464 l 21 500 q 29 522 21 514 q 51 531 38 531 l 139 531 l 139 940 q 147 963 139 954 q 169 972 156 972 l 465 972 q 694 930 610 972 q 813 806 778 888 q 851 597 849 724 q 853 488 853 556 q 851 376 853 418 q 813 162 849 243 q 696 40 778 81 q 472 0 614 0 l 169 0 m 465 83 q 640 113 576 83 q 733 208 704 143 q 764 383 761 272 q 765 488 765 425 q 764 590 765 549 q 691 817 761 746 q 458 889 621 889 l 226 889 l 226 531 l 435 531 q 457 522 449 531 q 465 500 465 514 l 465 478 q 457 456 465 464 q 435 447 449 447 l 226 447 l 226 83 l 465 83 z "},"Ď":{"ha":940,"x_min":131,"x_max":844,"o":"m 161 0 q 139 8 147 0 q 131 31 131 17 l 131 940 q 139 963 131 954 q 161 972 147 972 l 457 972 q 685 930 601 972 q 805 806 769 888 q 843 597 840 724 q 844 488 844 556 q 843 376 844 418 q 805 162 840 243 q 688 40 769 81 q 464 0 606 0 l 161 0 m 457 83 q 632 113 568 83 q 724 208 696 143 q 756 383 753 272 q 757 488 757 425 q 756 590 757 549 q 683 817 753 746 q 450 889 613 889 l 218 889 l 218 83 l 457 83 m 451 1042 q 429 1045 439 1042 q 407 1061 419 1049 l 286 1179 q 269 1207 269 1196 q 289 1222 269 1222 l 313 1222 q 332 1219 322 1222 q 347 1213 342 1217 l 458 1129 l 569 1213 q 585 1219 575 1217 q 604 1222 594 1222 l 628 1222 q 647 1207 647 1222 q 631 1179 647 1196 l 510 1061 q 488 1045 497 1049 q 465 1042 479 1042 l 451 1042 z "},"Đ":{"ha":949,"x_min":21,"x_max":853,"o":"m 169 0 q 147 8 156 0 q 139 31 139 17 l 139 447 l 51 447 q 29 456 38 447 q 21 478 21 464 l 21 500 q 29 522 21 514 q 51 531 38 531 l 139 531 l 139 940 q 147 963 139 954 q 169 972 156 972 l 465 972 q 694 930 610 972 q 813 806 778 888 q 851 597 849 724 q 853 488 853 556 q 851 376 853 418 q 813 162 849 243 q 696 40 778 81 q 472 0 614 0 l 169 0 m 465 83 q 640 113 576 83 q 733 208 704 143 q 764 383 761 272 q 765 488 765 425 q 764 590 765 549 q 691 817 761 746 q 458 889 621 889 l 226 889 l 226 531 l 435 531 q 457 522 449 531 q 465 500 465 514 l 465 478 q 457 456 465 464 q 435 447 449 447 l 226 447 l 226 83 l 465 83 z "},"E":{"ha":822,"x_min":131,"x_max":746,"o":"m 161 0 q 139 8 147 0 q 131 31 131 17 l 131 940 q 139 963 131 954 q 161 972 147 972 l 703 972 q 726 964 718 972 q 735 940 735 956 l 735 919 q 726 897 735 906 q 703 889 717 889 l 218 889 l 218 535 l 672 535 q 696 526 688 535 q 704 503 704 518 l 704 482 q 695 460 704 468 q 672 451 686 451 l 218 451 l 218 83 l 714 83 q 738 75 729 83 q 746 51 746 67 l 746 31 q 737 8 746 17 q 714 0 728 0 l 161 0 z "},"É":{"ha":822,"x_min":131,"x_max":746,"o":"m 161 0 q 139 8 147 0 q 131 31 131 17 l 131 940 q 139 963 131 954 q 161 972 147 972 l 703 972 q 726 964 718 972 q 735 940 735 956 l 735 919 q 726 897 735 906 q 703 889 717 889 l 218 889 l 218 535 l 672 535 q 696 526 688 535 q 704 503 704 518 l 704 482 q 695 460 704 468 q 672 451 686 451 l 218 451 l 218 83 l 714 83 q 738 75 729 83 q 746 51 746 67 l 746 31 q 737 8 746 17 q 714 0 728 0 l 161 0 m 394 1042 q 372 1064 372 1042 q 379 1082 372 1075 l 475 1197 q 497 1217 488 1213 q 526 1222 507 1222 l 590 1222 q 617 1196 617 1222 q 610 1179 617 1186 l 458 1056 q 439 1044 447 1047 q 415 1042 431 1042 l 394 1042 z "},"Ĕ":{"ha":822,"x_min":131,"x_max":746,"o":"m 161 0 q 139 8 147 0 q 131 31 131 17 l 131 940 q 139 963 131 954 q 161 972 147 972 l 703 972 q 726 964 718 972 q 735 940 735 956 l 735 919 q 726 897 735 906 q 703 889 717 889 l 218 889 l 218 535 l 672 535 q 696 526 688 535 q 704 503 704 518 l 704 482 q 695 460 704 468 q 672 451 686 451 l 218 451 l 218 83 l 714 83 q 738 75 729 83 q 746 51 746 67 l 746 31 q 737 8 746 17 q 714 0 728 0 l 161 0 m 411 1028 q 288 1074 324 1028 q 251 1189 251 1119 q 258 1208 251 1200 q 278 1215 265 1215 l 299 1215 q 318 1208 311 1215 q 325 1189 325 1200 q 344 1124 325 1150 q 411 1097 364 1097 q 478 1124 458 1097 q 497 1189 497 1150 q 504 1208 497 1200 q 524 1215 511 1215 l 544 1215 q 564 1208 557 1215 q 571 1189 571 1200 q 535 1074 571 1119 q 411 1028 499 1028 z "},"Ě":{"ha":822,"x_min":131,"x_max":746,"o":"m 161 0 q 139 8 147 0 q 131 31 131 17 l 131 940 q 139 963 131 954 q 161 972 147 972 l 703 972 q 726 964 718 972 q 735 940 735 956 l 735 919 q 726 897 735 906 q 703 889 717 889 l 218 889 l 218 535 l 672 535 q 696 526 688 535 q 704 503 704 518 l 704 482 q 695 460 704 468 q 672 451 686 451 l 218 451 l 218 83 l 714 83 q 738 75 729 83 q 746 51 746 67 l 746 31 q 737 8 746 17 q 714 0 728 0 l 161 0 m 404 1042 q 382 1045 392 1042 q 360 1061 372 1049 l 239 1179 q 222 1207 222 1196 q 242 1222 222 1222 l 265 1222 q 285 1219 275 1222 q 300 1213 294 1217 l 411 1129 l 522 1213 q 538 1219 528 1217 q 557 1222 547 1222 l 581 1222 q 600 1207 600 1222 q 583 1179 600 1196 l 463 1061 q 441 1045 450 1049 q 418 1042 432 1042 l 404 1042 z "},"Ê":{"ha":822,"x_min":131,"x_max":746,"o":"m 161 0 q 139 8 147 0 q 131 31 131 17 l 131 940 q 139 963 131 954 q 161 972 147 972 l 703 972 q 726 964 718 972 q 735 940 735 956 l 735 919 q 726 897 735 906 q 703 889 717 889 l 218 889 l 218 535 l 672 535 q 696 526 688 535 q 704 503 704 518 l 704 482 q 695 460 704 468 q 672 451 686 451 l 218 451 l 218 83 l 714 83 q 738 75 729 83 q 746 51 746 67 l 746 31 q 737 8 746 17 q 714 0 728 0 l 161 0 m 242 1042 q 222 1057 222 1042 q 239 1085 222 1068 l 360 1203 q 382 1219 372 1215 q 404 1222 392 1222 l 418 1222 q 441 1219 432 1222 q 463 1203 450 1215 l 583 1085 q 600 1057 600 1068 q 581 1042 600 1042 l 557 1042 q 538 1044 547 1042 q 522 1051 528 1047 l 411 1135 l 300 1051 q 285 1044 294 1047 q 265 1042 275 1042 l 242 1042 z "},"Ë":{"ha":822,"x_min":131,"x_max":746,"o":"m 161 0 q 139 8 147 0 q 131 31 131 17 l 131 940 q 139 963 131 954 q 161 972 147 972 l 703 972 q 726 964 718 972 q 735 940 735 956 l 735 919 q 726 897 735 906 q 703 889 717 889 l 218 889 l 218 535 l 672 535 q 696 526 688 535 q 704 503 704 518 l 704 482 q 695 460 704 468 q 672 451 686 451 l 218 451 l 218 83 l 714 83 q 738 75 729 83 q 746 51 746 67 l 746 31 q 737 8 746 17 q 714 0 728 0 l 161 0 m 257 1042 q 235 1050 243 1042 q 226 1072 226 1058 l 226 1125 q 235 1148 226 1139 q 257 1157 243 1157 l 310 1157 q 333 1148 324 1157 q 342 1125 342 1139 l 342 1072 q 333 1050 342 1058 q 310 1042 324 1042 l 257 1042 m 511 1042 q 489 1050 497 1042 q 481 1072 481 1058 l 481 1125 q 489 1148 481 1139 q 511 1157 497 1157 l 564 1157 q 587 1148 578 1157 q 596 1125 596 1139 l 596 1072 q 587 1050 596 1058 q 564 1042 578 1042 l 511 1042 z "},"Ė":{"ha":822,"x_min":131,"x_max":746,"o":"m 161 0 q 139 8 147 0 q 131 31 131 17 l 131 940 q 139 963 131 954 q 161 972 147 972 l 703 972 q 726 964 718 972 q 735 940 735 956 l 735 919 q 726 897 735 906 q 703 889 717 889 l 218 889 l 218 535 l 672 535 q 696 526 688 535 q 704 503 704 518 l 704 482 q 695 460 704 468 q 672 451 686 451 l 218 451 l 218 83 l 714 83 q 738 75 729 83 q 746 51 746 67 l 746 31 q 737 8 746 17 q 714 0 728 0 l 161 0 m 376 1042 q 354 1050 363 1042 q 346 1072 346 1058 l 346 1139 q 354 1162 346 1153 q 376 1171 363 1171 l 443 1171 q 466 1162 457 1171 q 475 1139 475 1153 l 475 1072 q 466 1050 475 1058 q 443 1042 457 1042 l 376 1042 z "},"È":{"ha":822,"x_min":131,"x_max":746,"o":"m 161 0 q 139 8 147 0 q 131 31 131 17 l 131 940 q 139 963 131 954 q 161 972 147 972 l 703 972 q 726 964 718 972 q 735 940 735 956 l 735 919 q 726 897 735 906 q 703 889 717 889 l 218 889 l 218 535 l 672 535 q 696 526 688 535 q 704 503 704 518 l 704 482 q 695 460 704 468 q 672 451 686 451 l 218 451 l 218 83 l 714 83 q 738 75 729 83 q 746 51 746 67 l 746 31 q 737 8 746 17 q 714 0 728 0 l 161 0 m 421 1042 q 397 1044 406 1042 q 378 1056 389 1047 l 226 1179 q 219 1196 219 1186 q 246 1222 219 1222 l 310 1222 q 339 1217 329 1222 q 361 1197 349 1213 l 457 1082 q 464 1064 464 1075 q 442 1042 464 1042 l 421 1042 z "},"Ē":{"ha":822,"x_min":131,"x_max":746,"o":"m 161 0 q 139 8 147 0 q 131 31 131 17 l 131 940 q 139 963 131 954 q 161 972 147 972 l 703 972 q 726 964 718 972 q 735 940 735 956 l 735 919 q 726 897 735 906 q 703 889 717 889 l 218 889 l 218 535 l 672 535 q 696 526 688 535 q 704 503 704 518 l 704 482 q 695 460 704 468 q 672 451 686 451 l 218 451 l 218 83 l 714 83 q 738 75 729 83 q 746 51 746 67 l 746 31 q 737 8 746 17 q 714 0 728 0 l 161 0 m 272 1042 q 250 1050 258 1042 q 242 1072 242 1058 l 242 1103 q 250 1125 242 1117 q 272 1133 258 1133 l 549 1133 q 571 1125 563 1133 q 579 1103 579 1117 l 579 1072 q 571 1050 579 1058 q 549 1042 563 1042 l 272 1042 z "},"Ę":{"ha":822,"x_min":131,"x_max":746,"o":"m 689 -306 q 555 -254 604 -306 q 506 -114 506 -203 q 535 0 506 -46 l 161 0 q 139 8 147 0 q 131 31 131 17 l 131 940 q 139 963 131 954 q 161 972 147 972 l 703 972 q 726 964 718 972 q 735 940 735 956 l 735 919 q 726 897 735 906 q 703 889 717 889 l 218 889 l 218 535 l 672 535 q 696 526 688 535 q 704 503 704 518 l 704 482 q 695 460 704 468 q 672 451 686 451 l 218 451 l 218 83 l 714 83 q 738 75 729 83 q 746 51 746 67 l 746 31 q 737 8 746 17 q 714 0 728 0 l 685 0 q 615 -33 642 -3 q 589 -114 589 -64 q 618 -197 589 -167 q 694 -226 647 -226 l 715 -226 q 738 -235 729 -226 q 746 -257 746 -243 l 746 -275 q 738 -297 746 -289 q 715 -306 729 -306 l 689 -306 z "},"F":{"ha":792,"x_min":131,"x_max":729,"o":"m 161 0 q 139 8 147 0 q 131 31 131 17 l 131 940 q 139 963 131 954 q 161 972 147 972 l 697 972 q 721 964 713 972 q 729 940 729 956 l 729 919 q 720 897 729 906 q 697 889 711 889 l 218 889 l 218 515 l 669 515 q 693 507 685 515 q 701 483 701 499 l 701 463 q 692 440 701 449 q 669 432 683 432 l 218 432 l 218 31 q 209 8 218 17 q 186 0 200 0 l 161 0 z "},"G":{"ha":922,"x_min":92,"x_max":839,"o":"m 464 -14 q 194 86 290 -14 q 93 354 99 186 q 92 486 92 396 q 93 618 92 576 q 194 886 99 786 q 464 986 290 986 q 663 942 582 986 q 783 837 743 897 q 825 729 822 776 l 825 726 q 817 708 825 715 q 796 701 808 701 l 765 701 q 747 707 753 701 q 736 729 742 713 q 645 853 713 803 q 464 903 578 903 q 260 832 335 903 q 181 611 186 761 q 179 486 179 569 q 181 361 179 403 q 260 140 186 211 q 464 69 335 69 q 672 143 593 69 q 751 361 751 217 l 751 432 l 510 432 q 488 441 496 432 q 479 464 479 450 l 479 483 q 488 506 479 497 q 510 515 496 515 l 807 515 q 831 507 822 515 q 839 483 839 499 l 839 361 q 794 165 839 250 q 665 33 750 81 q 464 -14 581 -14 z "},"Ğ":{"ha":922,"x_min":92,"x_max":839,"o":"m 464 -14 q 194 86 290 -14 q 93 354 99 186 q 92 486 92 396 q 93 618 92 576 q 194 886 99 786 q 464 986 290 986 q 663 942 582 986 q 783 837 743 897 q 825 729 822 776 l 825 726 q 817 708 825 715 q 796 701 808 701 l 765 701 q 747 707 753 701 q 736 729 742 713 q 645 853 713 803 q 464 903 578 903 q 260 832 335 903 q 181 611 186 761 q 179 486 179 569 q 181 361 179 403 q 260 140 186 211 q 464 69 335 69 q 672 143 593 69 q 751 361 751 217 l 751 432 l 510 432 q 488 441 496 432 q 479 464 479 450 l 479 483 q 488 506 479 497 q 510 515 496 515 l 807 515 q 831 507 822 515 q 839 483 839 499 l 839 361 q 794 165 839 250 q 665 33 750 81 q 464 -14 581 -14 m 471 1028 q 347 1074 383 1028 q 311 1189 311 1119 q 318 1208 311 1200 q 338 1215 325 1215 l 358 1215 q 378 1208 371 1215 q 385 1189 385 1200 q 404 1124 385 1150 q 471 1097 424 1097 q 538 1124 518 1097 q 557 1189 557 1150 q 564 1208 557 1200 q 583 1215 571 1215 l 604 1215 q 624 1208 617 1215 q 631 1189 631 1200 q 594 1074 631 1119 q 471 1028 558 1028 z "},"Ĝ":{"ha":922,"x_min":92,"x_max":839,"o":"m 464 -14 q 194 86 290 -14 q 93 354 99 186 q 92 486 92 396 q 93 618 92 576 q 194 886 99 786 q 464 986 290 986 q 663 942 582 986 q 783 837 743 897 q 825 729 822 776 l 825 726 q 817 708 825 715 q 796 701 808 701 l 765 701 q 747 707 753 701 q 736 729 742 713 q 645 853 713 803 q 464 903 578 903 q 260 832 335 903 q 181 611 186 761 q 179 486 179 569 q 181 361 179 403 q 260 140 186 211 q 464 69 335 69 q 672 143 593 69 q 751 361 751 217 l 751 432 l 510 432 q 488 441 496 432 q 479 464 479 450 l 479 483 q 488 506 479 497 q 510 515 496 515 l 807 515 q 831 507 822 515 q 839 483 839 499 l 839 361 q 794 165 839 250 q 665 33 750 81 q 464 -14 581 -14 m 301 1042 q 282 1057 282 1042 q 299 1085 282 1068 l 419 1203 q 442 1219 432 1215 q 464 1222 451 1222 l 478 1222 q 501 1219 492 1222 q 522 1203 510 1215 l 643 1085 q 660 1057 660 1068 q 640 1042 660 1042 l 617 1042 q 597 1044 607 1042 q 582 1051 588 1047 l 471 1135 l 360 1051 q 344 1044 354 1047 q 325 1042 335 1042 l 301 1042 z "},"Ģ":{"ha":922,"x_min":92,"x_max":839,"o":"m 464 -14 q 194 86 290 -14 q 93 354 99 186 q 92 486 92 396 q 93 618 92 576 q 194 886 99 786 q 464 986 290 986 q 663 942 582 986 q 783 837 743 897 q 825 729 822 776 l 825 726 q 817 708 825 715 q 796 701 808 701 l 765 701 q 747 707 753 701 q 736 729 742 713 q 645 853 713 803 q 464 903 578 903 q 260 832 335 903 q 181 611 186 761 q 179 486 179 569 q 181 361 179 403 q 260 140 186 211 q 464 69 335 69 q 672 143 593 69 q 751 361 751 217 l 751 432 l 510 432 q 488 441 496 432 q 479 464 479 450 l 479 483 q 488 506 479 497 q 510 515 496 515 l 807 515 q 831 507 822 515 q 839 483 839 499 l 839 361 q 794 165 839 250 q 665 33 750 81 q 464 -14 581 -14 m 411 -292 q 394 -283 400 -292 q 392 -262 389 -275 l 415 -107 q 450 -69 419 -69 l 513 -69 q 527 -76 521 -69 q 533 -92 533 -83 q 528 -117 533 -104 l 472 -262 q 458 -285 465 -278 q 436 -292 450 -292 l 411 -292 z "},"Ġ":{"ha":922,"x_min":92,"x_max":839,"o":"m 464 -14 q 194 86 290 -14 q 93 354 99 186 q 92 486 92 396 q 93 618 92 576 q 194 886 99 786 q 464 986 290 986 q 663 942 582 986 q 783 837 743 897 q 825 729 822 776 l 825 726 q 817 708 825 715 q 796 701 808 701 l 765 701 q 747 707 753 701 q 736 729 742 713 q 645 853 713 803 q 464 903 578 903 q 260 832 335 903 q 181 611 186 761 q 179 486 179 569 q 181 361 179 403 q 260 140 186 211 q 464 69 335 69 q 672 143 593 69 q 751 361 751 217 l 751 432 l 510 432 q 488 441 496 432 q 479 464 479 450 l 479 483 q 488 506 479 497 q 510 515 496 515 l 807 515 q 831 507 822 515 q 839 483 839 499 l 839 361 q 794 165 839 250 q 665 33 750 81 q 464 -14 581 -14 m 438 1042 q 415 1050 424 1042 q 407 1072 407 1058 l 407 1139 q 415 1162 407 1153 q 438 1171 424 1171 l 504 1171 q 527 1162 518 1171 q 536 1139 536 1153 l 536 1072 q 527 1050 536 1058 q 504 1042 518 1042 l 438 1042 z "},"H":{"ha":972,"x_min":131,"x_max":842,"o":"m 161 0 q 139 8 147 0 q 131 31 131 17 l 131 940 q 139 963 131 954 q 161 972 147 972 l 186 972 q 210 964 201 972 q 218 940 218 956 l 218 535 l 754 535 l 754 940 q 763 963 754 954 q 785 972 771 972 l 810 972 q 833 964 825 972 q 842 940 842 956 l 842 31 q 833 8 842 17 q 810 0 824 0 l 785 0 q 763 8 771 0 q 754 31 754 17 l 754 451 l 218 451 l 218 31 q 209 8 218 17 q 186 0 200 0 l 161 0 z "},"Ħ":{"ha":972,"x_min":29,"x_max":957,"o":"m 926 793 q 949 785 940 793 q 957 763 957 776 l 957 743 q 949 721 957 729 q 926 713 940 713 l 842 713 l 842 31 q 833 8 842 17 q 810 0 824 0 l 785 0 q 763 8 771 0 q 754 31 754 17 l 754 451 l 218 451 l 218 31 q 209 8 218 17 q 186 0 200 0 l 161 0 q 139 8 147 0 q 131 31 131 17 l 131 713 l 60 713 q 38 721 46 713 q 29 743 29 729 l 29 763 q 38 785 29 776 q 60 793 46 793 l 131 793 l 131 940 q 139 963 131 954 q 161 972 147 972 l 186 972 q 210 964 201 972 q 218 940 218 956 l 218 793 l 754 793 l 754 940 q 763 963 754 954 q 785 972 771 972 l 810 972 q 833 964 825 972 q 842 940 842 956 l 842 793 l 926 793 m 754 535 l 754 713 l 218 713 l 218 535 l 754 535 z "},"Ĥ":{"ha":972,"x_min":131,"x_max":842,"o":"m 161 0 q 139 8 147 0 q 131 31 131 17 l 131 940 q 139 963 131 954 q 161 972 147 972 l 186 972 q 210 964 201 972 q 218 940 218 956 l 218 535 l 754 535 l 754 940 q 763 963 754 954 q 785 972 771 972 l 810 972 q 833 964 825 972 q 842 940 842 956 l 842 31 q 833 8 842 17 q 810 0 824 0 l 785 0 q 763 8 771 0 q 754 31 754 17 l 754 451 l 218 451 l 218 31 q 209 8 218 17 q 186 0 200 0 l 161 0 m 317 1042 q 297 1057 297 1042 q 314 1085 297 1068 l 435 1203 q 457 1219 447 1215 q 479 1222 467 1222 l 493 1222 q 516 1219 507 1222 q 538 1203 525 1215 l 658 1085 q 675 1057 675 1068 q 656 1042 675 1042 l 632 1042 q 613 1044 622 1042 q 597 1051 603 1047 l 486 1135 l 375 1051 q 360 1044 369 1047 q 340 1042 350 1042 l 317 1042 z "},"I":{"ha":349,"x_min":131,"x_max":218,"o":"m 161 0 q 139 8 147 0 q 131 31 131 17 l 131 942 q 139 964 131 956 q 161 972 147 972 l 188 972 q 210 964 201 972 q 218 942 218 956 l 218 31 q 210 8 218 17 q 188 0 201 0 l 161 0 z "},"Ĳ":{"ha":818,"x_min":131,"x_max":696,"o":"m 161 0 q 139 8 147 0 q 131 31 131 17 l 131 942 q 139 964 131 956 q 161 972 147 972 l 188 972 q 210 964 201 972 q 218 942 218 956 l 218 31 q 210 8 218 17 q 188 0 201 0 l 161 0 m 360 -14 q 338 -6 346 -14 q 329 17 329 3 l 329 38 q 338 60 329 51 q 360 69 346 69 q 544 148 479 69 q 608 356 608 226 l 608 942 q 617 964 608 956 q 639 972 625 972 l 664 972 q 688 964 679 972 q 696 940 696 956 l 696 354 q 608 87 696 188 q 360 -14 519 -14 z "},"Í":{"ha":349,"x_min":131,"x_max":381,"o":"m 161 0 q 139 8 147 0 q 131 31 131 17 l 131 942 q 139 964 131 956 q 161 972 147 972 l 188 972 q 210 964 201 972 q 218 942 218 956 l 218 31 q 210 8 218 17 q 188 0 201 0 l 161 0 m 158 1042 q 136 1064 136 1042 q 143 1082 136 1075 l 239 1197 q 261 1217 251 1213 q 290 1222 271 1222 l 354 1222 q 381 1196 381 1222 q 374 1179 381 1186 l 222 1056 q 203 1044 211 1047 q 179 1042 194 1042 l 158 1042 z "},"Ĭ":{"ha":349,"x_min":15,"x_max":335,"o":"m 161 0 q 139 8 147 0 q 131 31 131 17 l 131 942 q 139 964 131 956 q 161 972 147 972 l 188 972 q 210 964 201 972 q 218 942 218 956 l 218 31 q 210 8 218 17 q 188 0 201 0 l 161 0 m 175 1028 q 51 1074 88 1028 q 15 1189 15 1119 q 22 1208 15 1200 q 42 1215 29 1215 l 63 1215 q 82 1208 75 1215 q 89 1189 89 1200 q 108 1124 89 1150 q 175 1097 128 1097 q 242 1124 222 1097 q 261 1189 261 1150 q 268 1208 261 1200 q 288 1215 275 1215 l 308 1215 q 328 1208 321 1215 q 335 1189 335 1200 q 299 1074 335 1119 q 175 1028 263 1028 z "},"Î":{"ha":349,"x_min":-14,"x_max":364,"o":"m 161 0 q 139 8 147 0 q 131 31 131 17 l 131 942 q 139 964 131 956 q 161 972 147 972 l 188 972 q 210 964 201 972 q 218 942 218 956 l 218 31 q 210 8 218 17 q 188 0 201 0 l 161 0 m 6 1042 q -14 1057 -14 1042 q 3 1085 -14 1068 l 124 1203 q 146 1219 136 1215 q 168 1222 156 1222 l 182 1222 q 205 1219 196 1222 q 226 1203 214 1215 l 347 1085 q 364 1057 364 1068 q 344 1042 364 1042 l 321 1042 q 301 1044 311 1042 q 286 1051 292 1047 l 175 1135 l 64 1051 q 49 1044 58 1047 q 29 1042 39 1042 l 6 1042 z "},"Ï":{"ha":349,"x_min":-10,"x_max":360,"o":"m 161 0 q 139 8 147 0 q 131 31 131 17 l 131 942 q 139 964 131 956 q 161 972 147 972 l 188 972 q 210 964 201 972 q 218 942 218 956 l 218 31 q 210 8 218 17 q 188 0 201 0 l 161 0 m 21 1042 q -1 1050 7 1042 q -10 1072 -10 1058 l -10 1125 q -1 1148 -10 1139 q 21 1157 7 1157 l 74 1157 q 97 1148 88 1157 q 106 1125 106 1139 l 106 1072 q 97 1050 106 1058 q 74 1042 88 1042 l 21 1042 m 275 1042 q 253 1050 261 1042 q 244 1072 244 1058 l 244 1125 q 253 1148 244 1139 q 275 1157 261 1157 l 328 1157 q 351 1148 342 1157 q 360 1125 360 1139 l 360 1072 q 351 1050 360 1058 q 328 1042 342 1042 l 275 1042 z "},"İ":{"ha":349,"x_min":110,"x_max":239,"o":"m 161 0 q 139 8 147 0 q 131 31 131 17 l 131 942 q 139 964 131 956 q 161 972 147 972 l 188 972 q 210 964 201 972 q 218 942 218 956 l 218 31 q 210 8 218 17 q 188 0 201 0 l 161 0 m 140 1042 q 118 1050 126 1042 q 110 1072 110 1058 l 110 1139 q 118 1162 110 1153 q 140 1171 126 1171 l 207 1171 q 230 1162 221 1171 q 239 1139 239 1153 l 239 1072 q 230 1050 239 1058 q 207 1042 221 1042 l 140 1042 z "},"Ì":{"ha":349,"x_min":-17,"x_max":228,"o":"m 161 0 q 139 8 147 0 q 131 31 131 17 l 131 942 q 139 964 131 956 q 161 972 147 972 l 188 972 q 210 964 201 972 q 218 942 218 956 l 218 31 q 210 8 218 17 q 188 0 201 0 l 161 0 m 185 1042 q 161 1044 169 1042 q 142 1056 153 1047 l -10 1179 q -17 1196 -17 1186 q 10 1222 -17 1222 l 74 1222 q 103 1217 93 1222 q 125 1197 113 1213 l 221 1082 q 228 1064 228 1075 q 206 1042 228 1042 l 185 1042 z "},"Ī":{"ha":349,"x_min":6,"x_max":343,"o":"m 161 0 q 139 8 147 0 q 131 31 131 17 l 131 942 q 139 964 131 956 q 161 972 147 972 l 188 972 q 210 964 201 972 q 218 942 218 956 l 218 31 q 210 8 218 17 q 188 0 201 0 l 161 0 m 36 1042 q 14 1050 22 1042 q 6 1072 6 1058 l 6 1103 q 14 1125 6 1117 q 36 1133 22 1133 l 313 1133 q 335 1125 326 1133 q 343 1103 343 1117 l 343 1072 q 335 1050 343 1058 q 313 1042 326 1042 l 36 1042 z "},"Į":{"ha":374,"x_min":3,"x_max":243,"o":"m 186 -306 q 52 -254 101 -306 q 3 -114 3 -203 q 44 17 3 -33 q 156 76 85 67 l 156 89 l 156 103 l 156 942 q 164 964 156 956 q 186 972 172 972 l 213 972 q 235 964 226 972 q 243 942 243 956 l 243 31 q 235 8 243 17 q 213 0 226 0 l 192 0 q 115 -31 144 0 q 86 -114 86 -61 q 115 -197 86 -167 q 192 -226 144 -226 l 213 -226 q 235 -235 226 -226 q 243 -257 243 -243 l 243 -275 q 235 -297 243 -289 q 213 -306 226 -306 l 186 -306 z "},"Ĩ":{"ha":349,"x_min":1,"x_max":347,"o":"m 161 0 q 139 8 147 0 q 131 31 131 17 l 131 942 q 139 964 131 956 q 161 972 147 972 l 188 972 q 210 964 201 972 q 218 942 218 956 l 218 31 q 210 8 218 17 q 188 0 201 0 l 161 0 m 243 1035 q 203 1041 219 1035 q 158 1063 186 1047 q 108 1082 125 1082 q 91 1077 97 1082 q 78 1061 85 1072 q 51 1042 67 1042 l 24 1042 q 8 1049 14 1042 q 1 1064 1 1056 q 32 1138 1 1104 q 104 1172 63 1172 q 147 1165 128 1172 q 189 1144 165 1158 q 208 1134 192 1143 q 240 1125 225 1125 q 258 1130 251 1125 q 271 1146 264 1135 q 282 1162 276 1157 q 297 1167 288 1167 l 325 1167 q 341 1160 335 1167 q 347 1144 347 1153 q 315 1069 347 1104 q 243 1035 283 1035 z "},"J":{"ha":858,"x_min":63,"x_max":736,"o":"m 400 -14 q 162 58 256 -14 q 63 269 68 129 q 70 292 63 283 q 92 300 78 300 l 119 300 q 141 292 133 300 q 150 271 149 283 q 227 119 158 168 q 400 69 296 69 q 584 148 519 69 q 649 356 649 226 l 649 889 l 136 889 q 114 897 122 889 q 106 919 106 906 l 106 942 q 114 964 106 956 q 136 972 122 972 l 704 972 q 728 964 719 972 q 736 940 736 956 l 736 354 q 648 87 736 188 q 400 -14 560 -14 z "},"Ĵ":{"ha":858,"x_min":63,"x_max":736,"o":"m 400 -14 q 162 58 256 -14 q 63 269 68 129 q 70 292 63 283 q 92 300 78 300 l 119 300 q 141 292 133 300 q 150 271 149 283 q 227 119 158 168 q 400 69 296 69 q 584 148 519 69 q 649 356 649 226 l 649 889 l 136 889 q 114 897 122 889 q 106 919 106 906 l 106 942 q 114 964 106 956 q 136 972 122 972 l 704 972 q 728 964 719 972 q 736 940 736 956 l 736 354 q 648 87 736 188 q 400 -14 560 -14 m 251 1042 q 232 1057 232 1042 q 249 1085 232 1068 l 369 1203 q 392 1219 382 1215 q 414 1222 401 1222 l 428 1222 q 451 1219 442 1222 q 472 1203 460 1215 l 593 1085 q 610 1057 610 1068 q 590 1042 610 1042 l 567 1042 q 547 1044 557 1042 q 532 1051 538 1047 l 421 1135 l 310 1051 q 294 1044 304 1047 q 275 1042 285 1042 l 251 1042 z "},"K":{"ha":799,"x_min":131,"x_max":772,"o":"m 161 0 q 139 8 147 0 q 131 31 131 17 l 131 940 q 139 963 131 954 q 161 972 147 972 l 186 972 q 210 964 201 972 q 218 940 218 956 l 218 579 l 639 951 q 662 966 650 960 q 692 972 674 972 l 714 972 q 733 964 725 972 q 742 944 742 956 q 735 926 742 933 l 264 507 l 764 47 q 772 28 772 39 q 764 8 772 17 q 744 0 756 0 l 721 0 q 691 6 703 0 q 668 21 679 13 l 218 432 l 218 31 q 209 8 218 17 q 186 0 200 0 l 161 0 z "},"Ķ":{"ha":799,"x_min":131,"x_max":772,"o":"m 161 0 q 139 8 147 0 q 131 31 131 17 l 131 940 q 139 963 131 954 q 161 972 147 972 l 186 972 q 210 964 201 972 q 218 940 218 956 l 218 579 l 639 951 q 662 966 650 960 q 692 972 674 972 l 714 972 q 733 964 725 972 q 742 944 742 956 q 735 926 742 933 l 264 507 l 764 47 q 772 28 772 39 q 764 8 772 17 q 744 0 756 0 l 721 0 q 691 6 703 0 q 668 21 679 13 l 218 432 l 218 31 q 209 8 218 17 q 186 0 200 0 l 161 0 m 350 -292 q 333 -283 339 -292 q 331 -262 328 -275 l 354 -107 q 389 -69 358 -69 l 451 -69 q 466 -76 460 -69 q 472 -92 472 -83 q 467 -117 472 -104 l 411 -262 q 397 -285 404 -278 q 375 -292 389 -292 l 350 -292 z "},"L":{"ha":761,"x_min":131,"x_max":729,"o":"m 161 0 q 139 8 147 0 q 131 31 131 17 l 131 942 q 139 964 131 956 q 161 972 147 972 l 188 972 q 210 964 201 972 q 218 942 218 956 l 218 83 l 697 83 q 721 75 713 83 q 729 51 729 67 l 729 31 q 720 8 729 17 q 697 0 711 0 l 161 0 z "},"Ĺ":{"ha":761,"x_min":131,"x_max":729,"o":"m 161 0 q 139 8 147 0 q 131 31 131 17 l 131 942 q 139 964 131 956 q 161 972 147 972 l 188 972 q 210 964 201 972 q 218 942 218 956 l 218 83 l 697 83 q 721 75 713 83 q 729 51 729 67 l 729 31 q 720 8 729 17 q 697 0 711 0 l 161 0 m 157 1042 q 135 1064 135 1042 q 142 1082 135 1075 l 238 1197 q 260 1217 250 1213 q 289 1222 269 1222 l 353 1222 q 379 1196 379 1222 q 372 1179 379 1186 l 221 1056 q 201 1044 210 1047 q 178 1042 193 1042 l 157 1042 z "},"Ľ":{"ha":761,"x_min":131,"x_max":729,"o":"m 161 0 q 139 8 147 0 q 131 31 131 17 l 131 942 q 139 964 131 956 q 161 972 147 972 l 188 972 q 210 964 201 972 q 218 942 218 956 l 218 83 l 697 83 q 721 75 713 83 q 729 51 729 67 l 729 31 q 720 8 729 17 q 697 0 711 0 l 161 0 m 379 764 q 363 772 368 764 q 360 793 357 781 l 383 949 q 418 986 388 986 l 481 986 q 495 979 489 986 q 501 964 501 972 q 496 939 501 951 l 440 793 q 426 771 433 778 q 404 764 418 764 l 379 764 z "},"Ļ":{"ha":761,"x_min":131,"x_max":729,"o":"m 161 0 q 139 8 147 0 q 131 31 131 17 l 131 942 q 139 964 131 956 q 161 972 147 972 l 188 972 q 210 964 201 972 q 218 942 218 956 l 218 83 l 697 83 q 721 75 713 83 q 729 51 729 67 l 729 31 q 720 8 729 17 q 697 0 711 0 l 161 0 m 356 -292 q 339 -283 344 -292 q 336 -262 333 -275 l 360 -107 q 394 -69 364 -69 l 457 -69 q 472 -76 465 -69 q 478 -92 478 -83 q 472 -117 478 -104 l 417 -262 q 402 -285 410 -278 q 381 -292 394 -292 l 356 -292 z "},"Ŀ":{"ha":761,"x_min":131,"x_max":729,"o":"m 161 0 q 139 8 147 0 q 131 31 131 17 l 131 942 q 139 964 131 956 q 161 972 147 972 l 188 972 q 210 964 201 972 q 218 942 218 956 l 218 83 l 697 83 q 721 75 713 83 q 729 51 729 67 l 729 31 q 720 8 729 17 q 697 0 711 0 l 161 0 m 418 435 q 396 443 404 435 q 388 465 388 451 l 388 532 q 396 555 388 546 q 418 564 404 564 l 485 564 q 508 555 499 564 q 517 532 517 546 l 517 465 q 508 443 517 451 q 485 435 499 435 l 418 435 z "},"Ł":{"ha":772,"x_min":17,"x_max":740,"o":"m 172 0 q 150 8 158 0 q 142 31 142 17 l 142 406 l 61 375 q 43 371 50 371 q 24 377 31 371 q 17 396 17 383 l 17 422 q 23 444 17 438 q 47 457 29 450 l 142 493 l 142 942 q 150 964 142 956 q 172 972 158 972 l 199 972 q 221 964 213 972 q 229 942 229 956 l 229 528 l 431 606 q 449 610 442 610 q 468 603 461 610 q 475 585 475 597 l 475 558 q 469 537 475 543 q 444 524 463 531 l 229 440 l 229 83 l 710 83 q 732 75 724 83 q 740 53 740 67 l 740 31 q 732 8 740 17 q 710 0 724 0 l 172 0 z "},"M":{"ha":1083,"x_min":131,"x_max":953,"o":"m 163 0 q 140 8 149 0 q 131 31 131 17 l 131 940 q 140 964 131 956 q 163 972 149 972 l 197 972 q 226 954 218 972 l 542 340 l 858 954 q 888 972 868 972 l 921 972 q 944 964 936 972 q 953 940 953 956 l 953 31 q 944 8 953 17 q 921 0 935 0 l 896 0 q 874 8 882 0 q 865 31 865 17 l 865 783 l 600 261 q 557 233 588 233 l 526 233 q 483 261 496 233 l 218 783 l 218 31 q 210 8 218 17 q 188 0 201 0 l 163 0 z "},"N":{"ha":950,"x_min":131,"x_max":819,"o":"m 161 0 q 139 8 147 0 q 131 31 131 17 l 131 940 q 139 963 131 954 q 161 972 147 972 l 190 972 q 219 956 208 972 l 732 172 l 732 940 q 740 963 732 954 q 763 972 749 972 l 788 972 q 811 964 803 972 q 819 940 819 956 l 819 32 q 811 9 819 18 q 789 0 803 0 l 758 0 q 729 17 740 0 l 218 797 l 218 31 q 209 8 218 17 q 186 0 200 0 l 161 0 z "},"Ń":{"ha":950,"x_min":131,"x_max":819,"o":"m 161 0 q 139 8 147 0 q 131 31 131 17 l 131 940 q 139 963 131 954 q 161 972 147 972 l 190 972 q 219 956 208 972 l 732 172 l 732 940 q 740 963 732 954 q 763 972 749 972 l 788 972 q 811 964 803 972 q 819 940 819 956 l 819 32 q 811 9 819 18 q 789 0 803 0 l 758 0 q 729 17 740 0 l 218 797 l 218 31 q 209 8 218 17 q 186 0 200 0 l 161 0 m 458 1042 q 436 1064 436 1042 q 443 1082 436 1075 l 539 1197 q 561 1217 551 1213 q 590 1222 571 1222 l 654 1222 q 681 1196 681 1222 q 674 1179 681 1186 l 522 1056 q 503 1044 511 1047 q 479 1042 494 1042 l 458 1042 z "},"Ň":{"ha":950,"x_min":131,"x_max":819,"o":"m 161 0 q 139 8 147 0 q 131 31 131 17 l 131 940 q 139 963 131 954 q 161 972 147 972 l 190 972 q 219 956 208 972 l 732 172 l 732 940 q 740 963 732 954 q 763 972 749 972 l 788 972 q 811 964 803 972 q 819 940 819 956 l 819 32 q 811 9 819 18 q 789 0 803 0 l 758 0 q 729 17 740 0 l 218 797 l 218 31 q 209 8 218 17 q 186 0 200 0 l 161 0 m 468 1042 q 446 1045 456 1042 q 424 1061 436 1049 l 303 1179 q 286 1207 286 1196 q 306 1222 286 1222 l 329 1222 q 349 1219 339 1222 q 364 1213 358 1217 l 475 1129 l 586 1213 q 601 1219 592 1217 q 621 1222 611 1222 l 644 1222 q 664 1207 664 1222 q 647 1179 664 1196 l 526 1061 q 505 1045 514 1049 q 482 1042 496 1042 l 468 1042 z "},"Ņ":{"ha":950,"x_min":131,"x_max":819,"o":"m 161 0 q 139 8 147 0 q 131 31 131 17 l 131 940 q 139 963 131 954 q 161 972 147 972 l 190 972 q 219 956 208 972 l 732 172 l 732 940 q 740 963 732 954 q 763 972 749 972 l 788 972 q 811 964 803 972 q 819 940 819 956 l 819 32 q 811 9 819 18 q 789 0 803 0 l 758 0 q 729 17 740 0 l 218 797 l 218 31 q 209 8 218 17 q 186 0 200 0 l 161 0 m 410 -292 q 393 -283 399 -292 q 390 -262 388 -275 l 414 -107 q 449 -69 418 -69 l 511 -69 q 526 -76 519 -69 q 532 -92 532 -83 q 526 -117 532 -104 l 471 -262 q 456 -285 464 -278 q 435 -292 449 -292 l 410 -292 z "},"Ŋ":{"ha":950,"x_min":131,"x_max":819,"o":"m 604 -312 q 582 -304 590 -312 q 574 -282 574 -296 l 574 -260 q 582 -237 574 -246 q 604 -229 590 -229 l 610 -229 q 707 -191 682 -229 q 732 -79 732 -153 l 732 11 l 218 797 l 218 31 q 209 8 218 17 q 186 0 200 0 l 161 0 q 139 8 147 0 q 131 31 131 17 l 131 940 q 139 963 131 954 q 161 972 147 972 l 190 972 q 219 956 208 972 l 732 172 l 732 940 q 740 963 732 954 q 763 972 749 972 l 788 972 q 811 964 803 972 q 819 940 819 956 l 819 -79 q 775 -251 819 -190 q 610 -312 731 -312 l 604 -312 z "},"Ñ":{"ha":950,"x_min":131,"x_max":819,"o":"m 161 0 q 139 8 147 0 q 131 31 131 17 l 131 940 q 139 963 131 954 q 161 972 147 972 l 190 972 q 219 956 208 972 l 732 172 l 732 940 q 740 963 732 954 q 763 972 749 972 l 788 972 q 811 964 803 972 q 819 940 819 956 l 819 32 q 811 9 819 18 q 789 0 803 0 l 758 0 q 729 17 740 0 l 218 797 l 218 31 q 209 8 218 17 q 186 0 200 0 l 161 0 m 543 1035 q 503 1041 519 1035 q 458 1063 486 1047 q 408 1082 425 1082 q 391 1077 397 1082 q 378 1061 385 1072 q 351 1042 367 1042 l 324 1042 q 308 1049 314 1042 q 301 1064 301 1056 q 332 1138 301 1104 q 404 1172 363 1172 q 447 1165 428 1172 q 489 1144 465 1158 q 508 1134 492 1143 q 540 1125 525 1125 q 558 1130 551 1125 q 571 1146 564 1135 q 582 1162 576 1157 q 597 1167 588 1167 l 625 1167 q 641 1160 635 1167 q 647 1144 647 1153 q 615 1069 647 1104 q 543 1035 583 1035 z "},"O":{"ha":919,"x_min":92,"x_max":829,"o":"m 460 -14 q 93 369 103 -14 q 92 486 92 411 q 93 603 92 561 q 196 889 99 792 q 460 986 293 986 q 724 889 626 986 q 826 603 821 792 q 829 486 829 519 q 826 369 829 453 q 460 -14 817 -14 m 460 69 q 659 145 585 69 q 739 376 733 221 q 742 486 742 460 q 739 596 742 513 q 658 827 733 751 q 460 903 583 903 q 261 827 336 903 q 181 596 186 751 q 179 486 179 554 q 181 376 179 418 q 260 145 186 221 q 460 69 335 69 z "},"Ó":{"ha":919,"x_min":92,"x_max":829,"o":"m 460 -14 q 93 369 103 -14 q 92 486 92 411 q 93 603 92 561 q 196 889 99 792 q 460 986 293 986 q 724 889 626 986 q 826 603 821 792 q 829 486 829 519 q 826 369 829 453 q 460 -14 817 -14 m 460 69 q 659 145 585 69 q 739 376 733 221 q 742 486 742 460 q 739 596 742 513 q 658 827 733 751 q 460 903 583 903 q 261 827 336 903 q 181 596 186 751 q 179 486 179 554 q 181 376 179 418 q 260 145 186 221 q 460 69 335 69 m 443 1042 q 421 1064 421 1042 q 428 1082 421 1075 l 524 1197 q 546 1217 536 1213 q 575 1222 556 1222 l 639 1222 q 665 1196 665 1222 q 658 1179 665 1186 l 507 1056 q 488 1044 496 1047 q 464 1042 479 1042 l 443 1042 z "},"Ŏ":{"ha":919,"x_min":92,"x_max":829,"o":"m 460 -14 q 93 369 103 -14 q 92 486 92 411 q 93 603 92 561 q 196 889 99 792 q 460 986 293 986 q 724 889 626 986 q 826 603 821 792 q 829 486 829 519 q 826 369 829 453 q 460 -14 817 -14 m 460 69 q 659 145 585 69 q 739 376 733 221 q 742 486 742 460 q 739 596 742 513 q 658 827 733 751 q 460 903 583 903 q 261 827 336 903 q 181 596 186 751 q 179 486 179 554 q 181 376 179 418 q 260 145 186 221 q 460 69 335 69 m 460 1028 q 336 1074 372 1028 q 300 1189 300 1119 q 307 1208 300 1200 q 326 1215 314 1215 l 347 1215 q 367 1208 360 1215 q 374 1189 374 1200 q 393 1124 374 1150 q 460 1097 413 1097 q 526 1124 507 1097 q 546 1189 546 1150 q 553 1208 546 1200 q 572 1215 560 1215 l 593 1215 q 613 1208 606 1215 q 619 1189 619 1200 q 583 1074 619 1119 q 460 1028 547 1028 z "},"Ô":{"ha":919,"x_min":92,"x_max":829,"o":"m 460 -14 q 93 369 103 -14 q 92 486 92 411 q 93 603 92 561 q 196 889 99 792 q 460 986 293 986 q 724 889 626 986 q 826 603 821 792 q 829 486 829 519 q 826 369 829 453 q 460 -14 817 -14 m 460 69 q 659 145 585 69 q 739 376 733 221 q 742 486 742 460 q 739 596 742 513 q 658 827 733 751 q 460 903 583 903 q 261 827 336 903 q 181 596 186 751 q 179 486 179 554 q 181 376 179 418 q 260 145 186 221 q 460 69 335 69 m 290 1042 q 271 1057 271 1042 q 288 1085 271 1068 l 408 1203 q 431 1219 421 1215 q 453 1222 440 1222 l 467 1222 q 490 1219 481 1222 q 511 1203 499 1215 l 632 1085 q 649 1057 649 1068 q 629 1042 649 1042 l 606 1042 q 586 1044 596 1042 q 571 1051 576 1047 l 460 1135 l 349 1051 q 333 1044 343 1047 q 314 1042 324 1042 l 290 1042 z "},"Ö":{"ha":919,"x_min":92,"x_max":829,"o":"m 460 -14 q 93 369 103 -14 q 92 486 92 411 q 93 603 92 561 q 196 889 99 792 q 460 986 293 986 q 724 889 626 986 q 826 603 821 792 q 829 486 829 519 q 826 369 829 453 q 460 -14 817 -14 m 460 69 q 659 145 585 69 q 739 376 733 221 q 742 486 742 460 q 739 596 742 513 q 658 827 733 751 q 460 903 583 903 q 261 827 336 903 q 181 596 186 751 q 179 486 179 554 q 181 376 179 418 q 260 145 186 221 q 460 69 335 69 m 306 1042 q 283 1050 292 1042 q 275 1072 275 1058 l 275 1125 q 283 1148 275 1139 q 306 1157 292 1157 l 358 1157 q 381 1148 372 1157 q 390 1125 390 1139 l 390 1072 q 381 1050 390 1058 q 358 1042 372 1042 l 306 1042 m 560 1042 q 538 1050 546 1042 q 529 1072 529 1058 l 529 1125 q 538 1148 529 1139 q 560 1157 546 1157 l 613 1157 q 635 1148 626 1157 q 644 1125 644 1139 l 644 1072 q 635 1050 644 1058 q 613 1042 626 1042 l 560 1042 z "},"Ò":{"ha":919,"x_min":92,"x_max":829,"o":"m 460 -14 q 93 369 103 -14 q 92 486 92 411 q 93 603 92 561 q 196 889 99 792 q 460 986 293 986 q 724 889 626 986 q 826 603 821 792 q 829 486 829 519 q 826 369 829 453 q 460 -14 817 -14 m 460 69 q 659 145 585 69 q 739 376 733 221 q 742 486 742 460 q 739 596 742 513 q 658 827 733 751 q 460 903 583 903 q 261 827 336 903 q 181 596 186 751 q 179 486 179 554 q 181 376 179 418 q 260 145 186 221 q 460 69 335 69 m 469 1042 q 446 1044 454 1042 q 426 1056 438 1047 l 275 1179 q 268 1196 268 1186 q 294 1222 268 1222 l 358 1222 q 388 1217 378 1222 q 410 1197 397 1213 l 506 1082 q 513 1064 513 1075 q 490 1042 513 1042 l 469 1042 z "},"Ő":{"ha":919,"x_min":92,"x_max":829,"o":"m 460 -14 q 93 369 103 -14 q 92 486 92 411 q 93 603 92 561 q 196 889 99 792 q 460 986 293 986 q 724 889 626 986 q 826 603 821 792 q 829 486 829 519 q 826 369 829 453 q 460 -14 817 -14 m 460 69 q 659 145 585 69 q 739 376 733 221 q 742 486 742 460 q 739 596 742 513 q 658 827 733 751 q 460 903 583 903 q 261 827 336 903 q 181 596 186 751 q 179 486 179 554 q 181 376 179 418 q 260 145 186 221 q 460 69 335 69 m 339 1042 q 317 1064 317 1042 q 324 1085 317 1071 l 374 1196 q 392 1216 381 1210 q 425 1222 404 1222 l 481 1222 q 501 1215 493 1222 q 508 1196 508 1208 q 500 1178 508 1186 l 401 1061 q 360 1042 385 1042 l 339 1042 m 544 1042 q 522 1064 522 1042 q 529 1085 522 1071 l 579 1196 q 598 1216 586 1210 q 631 1222 610 1222 l 686 1222 q 706 1215 699 1222 q 714 1196 714 1208 q 706 1178 714 1186 l 607 1061 q 565 1042 590 1042 l 544 1042 z "},"Ō":{"ha":919,"x_min":92,"x_max":829,"o":"m 460 -14 q 93 369 103 -14 q 92 486 92 411 q 93 603 92 561 q 196 889 99 792 q 460 986 293 986 q 724 889 626 986 q 826 603 821 792 q 829 486 829 519 q 826 369 829 453 q 460 -14 817 -14 m 460 69 q 659 145 585 69 q 739 376 733 221 q 742 486 742 460 q 739 596 742 513 q 658 827 733 751 q 460 903 583 903 q 261 827 336 903 q 181 596 186 751 q 179 486 179 554 q 181 376 179 418 q 260 145 186 221 q 460 69 335 69 m 321 1042 q 299 1050 307 1042 q 290 1072 290 1058 l 290 1103 q 299 1125 290 1117 q 321 1133 307 1133 l 597 1133 q 619 1125 611 1133 q 628 1103 628 1117 l 628 1072 q 619 1050 628 1058 q 597 1042 611 1042 l 321 1042 z "},"Ø":{"ha":947,"x_min":15,"x_max":931,"o":"m 475 -14 q 113 308 147 -14 l 60 289 q 42 285 49 285 q 22 291 29 285 q 15 310 15 297 l 15 336 q 22 358 15 351 q 46 371 28 364 l 107 394 q 106 474 106 422 q 108 603 106 511 q 211 889 114 792 q 475 986 308 986 q 718 908 624 986 q 835 678 813 831 l 886 697 q 904 701 896 701 q 924 695 917 701 q 931 676 931 689 l 931 650 q 924 628 931 635 q 900 615 918 622 l 842 593 q 844 482 844 515 q 842 369 844 450 q 475 -14 832 -14 m 750 644 q 661 840 733 776 q 475 903 589 903 q 276 827 351 903 q 196 596 201 751 q 193 472 193 501 l 193 429 l 750 644 m 475 69 q 674 145 600 69 q 754 376 749 221 q 756 507 756 426 l 756 560 l 197 342 q 283 136 210 203 q 475 69 357 69 z "},"Ǿ":{"ha":947,"x_min":15,"x_max":931,"o":"m 475 -14 q 113 308 147 -14 l 60 289 q 42 285 49 285 q 22 291 29 285 q 15 310 15 297 l 15 336 q 22 358 15 351 q 46 371 28 364 l 107 394 q 106 474 106 422 q 108 603 106 511 q 211 889 114 792 q 475 986 308 986 q 718 908 624 986 q 835 678 813 831 l 886 697 q 904 701 896 701 q 924 695 917 701 q 931 676 931 689 l 931 650 q 924 628 931 635 q 900 615 918 622 l 842 593 q 844 482 844 515 q 842 369 844 450 q 475 -14 832 -14 m 750 644 q 661 840 733 776 q 475 903 589 903 q 276 827 351 903 q 196 596 201 751 q 193 472 193 501 l 193 429 l 750 644 m 475 69 q 674 145 600 69 q 754 376 749 221 q 756 507 756 426 l 756 560 l 197 342 q 283 136 210 203 q 475 69 357 69 m 457 1042 q 435 1064 435 1042 q 442 1082 435 1075 l 538 1197 q 560 1217 550 1213 q 589 1222 569 1222 l 653 1222 q 679 1196 679 1222 q 672 1179 679 1186 l 521 1056 q 501 1044 510 1047 q 478 1042 493 1042 l 457 1042 z "},"Õ":{"ha":919,"x_min":92,"x_max":829,"o":"m 460 -14 q 93 369 103 -14 q 92 486 92 411 q 93 603 92 561 q 196 889 99 792 q 460 986 293 986 q 724 889 626 986 q 826 603 821 792 q 829 486 829 519 q 826 369 829 453 q 460 -14 817 -14 m 460 69 q 659 145 585 69 q 739 376 733 221 q 742 486 742 460 q 739 596 742 513 q 658 827 733 751 q 460 903 583 903 q 261 827 336 903 q 181 596 186 751 q 179 486 179 554 q 181 376 179 418 q 260 145 186 221 q 460 69 335 69 m 528 1035 q 488 1041 504 1035 q 443 1063 471 1047 q 393 1082 410 1082 q 376 1077 382 1082 q 363 1061 369 1072 q 336 1042 351 1042 l 308 1042 q 292 1049 299 1042 q 286 1064 286 1056 q 317 1138 286 1104 q 389 1172 347 1172 q 431 1165 413 1172 q 474 1144 450 1158 q 493 1134 476 1143 q 525 1125 510 1125 q 542 1130 536 1125 q 556 1146 549 1135 q 567 1162 561 1157 q 582 1167 572 1167 l 610 1167 q 626 1160 619 1167 q 632 1144 632 1153 q 600 1069 632 1104 q 528 1035 568 1035 z "},"Œ":{"ha":1250,"x_min":96,"x_max":1175,"o":"m 476 0 q 253 40 335 0 q 135 162 171 81 q 97 376 100 243 l 96 488 l 97 597 q 135 806 100 724 q 255 930 171 888 q 483 972 339 972 l 1132 972 q 1156 964 1147 972 q 1164 940 1164 956 l 1164 919 q 1155 897 1164 906 q 1132 889 1146 889 l 703 889 l 703 535 l 1101 535 q 1125 526 1117 535 q 1133 503 1133 518 l 1133 482 q 1124 460 1133 468 q 1101 451 1115 451 l 703 451 l 703 83 l 1143 83 q 1167 75 1158 83 q 1175 51 1175 67 l 1175 31 q 1166 8 1175 17 q 1143 0 1157 0 l 476 0 m 615 83 l 615 889 l 490 889 q 258 817 328 889 q 185 590 188 746 l 183 488 l 185 383 q 216 208 188 272 q 308 113 244 143 q 483 83 372 83 l 615 83 z "},"P":{"ha":872,"x_min":131,"x_max":818,"o":"m 161 0 q 139 8 147 0 q 131 31 131 17 l 131 940 q 139 963 131 954 q 161 972 147 972 l 499 972 q 733 898 647 972 q 818 685 818 824 q 733 472 818 546 q 499 397 647 397 l 218 397 l 218 31 q 209 8 218 17 q 186 0 200 0 l 161 0 m 492 481 q 671 533 611 481 q 731 685 731 585 q 671 837 731 785 q 492 889 611 889 l 218 889 l 218 481 l 492 481 z "},"Þ":{"ha":879,"x_min":131,"x_max":818,"o":"m 161 0 q 139 8 147 0 q 131 31 131 17 l 131 942 q 139 964 131 956 q 161 972 147 972 l 188 972 q 210 964 201 972 q 218 942 218 956 l 218 774 l 499 774 q 733 699 647 774 q 818 486 818 625 q 733 273 818 347 q 499 199 647 199 l 218 199 l 218 31 q 209 8 218 17 q 186 0 200 0 l 161 0 m 492 282 q 671 334 611 282 q 731 486 731 386 q 671 638 731 586 q 492 690 611 690 l 218 690 l 218 282 l 492 282 z "},"Q":{"ha":919,"x_min":92,"x_max":829,"o":"m 760 -90 q 715 -58 739 -90 l 654 26 q 460 -14 571 -14 q 93 369 103 -14 q 92 486 92 411 q 93 603 92 561 q 196 889 99 792 q 460 986 293 986 q 724 889 626 986 q 826 603 821 792 q 829 486 829 519 q 826 369 829 453 q 725 78 819 171 l 814 -47 q 818 -62 818 -56 q 810 -82 818 -74 q 790 -90 801 -90 l 760 -90 m 460 69 q 659 145 585 69 q 739 376 733 221 q 742 486 742 460 q 739 596 742 513 q 658 827 733 751 q 460 903 583 903 q 261 827 336 903 q 181 596 186 751 q 179 486 179 554 q 181 376 179 418 q 260 145 186 221 q 460 69 335 69 z "},"R":{"ha":889,"x_min":131,"x_max":822,"o":"m 161 0 q 139 8 147 0 q 131 31 131 17 l 131 940 q 139 963 131 954 q 161 972 147 972 l 485 972 q 719 901 635 972 q 804 692 804 831 q 750 515 804 582 q 594 424 696 447 l 818 43 q 822 28 822 35 q 814 8 822 17 q 794 0 806 0 l 778 0 q 747 9 757 0 q 725 38 736 18 l 504 411 l 218 411 l 218 31 q 209 8 218 17 q 186 0 200 0 l 161 0 m 478 494 q 658 544 599 494 q 717 692 717 593 q 658 840 717 790 q 478 889 599 889 l 218 889 l 218 494 l 478 494 z "},"Ŕ":{"ha":889,"x_min":131,"x_max":822,"o":"m 161 0 q 139 8 147 0 q 131 31 131 17 l 131 940 q 139 963 131 954 q 161 972 147 972 l 485 972 q 719 901 635 972 q 804 692 804 831 q 750 515 804 582 q 594 424 696 447 l 818 43 q 822 28 822 35 q 814 8 822 17 q 794 0 806 0 l 778 0 q 747 9 757 0 q 725 38 736 18 l 504 411 l 218 411 l 218 31 q 209 8 218 17 q 186 0 200 0 l 161 0 m 478 494 q 658 544 599 494 q 717 692 717 593 q 658 840 717 790 q 478 889 599 889 l 218 889 l 218 494 l 478 494 m 400 1042 q 378 1064 378 1042 q 385 1082 378 1075 l 481 1197 q 503 1217 493 1213 q 532 1222 513 1222 l 596 1222 q 622 1196 622 1222 q 615 1179 622 1186 l 464 1056 q 444 1044 453 1047 q 421 1042 436 1042 l 400 1042 z "},"Ř":{"ha":889,"x_min":131,"x_max":822,"o":"m 161 0 q 139 8 147 0 q 131 31 131 17 l 131 940 q 139 963 131 954 q 161 972 147 972 l 485 972 q 719 901 635 972 q 804 692 804 831 q 750 515 804 582 q 594 424 696 447 l 818 43 q 822 28 822 35 q 814 8 822 17 q 794 0 806 0 l 778 0 q 747 9 757 0 q 725 38 736 18 l 504 411 l 218 411 l 218 31 q 209 8 218 17 q 186 0 200 0 l 161 0 m 478 494 q 658 544 599 494 q 717 692 717 593 q 658 840 717 790 q 478 889 599 889 l 218 889 l 218 494 l 478 494 m 410 1042 q 388 1045 397 1042 q 365 1061 378 1049 l 244 1179 q 228 1207 228 1196 q 247 1222 228 1222 l 271 1222 q 290 1219 281 1222 q 306 1213 300 1217 l 417 1129 l 528 1213 q 543 1219 533 1217 q 563 1222 553 1222 l 586 1222 q 606 1207 606 1222 q 589 1179 606 1196 l 468 1061 q 447 1045 456 1049 q 424 1042 438 1042 l 410 1042 z "},"Ŗ":{"ha":889,"x_min":131,"x_max":822,"o":"m 161 0 q 139 8 147 0 q 131 31 131 17 l 131 940 q 139 963 131 954 q 161 972 147 972 l 485 972 q 719 901 635 972 q 804 692 804 831 q 750 515 804 582 q 594 424 696 447 l 818 43 q 822 28 822 35 q 814 8 822 17 q 794 0 806 0 l 778 0 q 747 9 757 0 q 725 38 736 18 l 504 411 l 218 411 l 218 31 q 209 8 218 17 q 186 0 200 0 l 161 0 m 478 494 q 658 544 599 494 q 717 692 717 593 q 658 840 717 790 q 478 889 599 889 l 218 889 l 218 494 l 478 494 m 379 -292 q 363 -283 368 -292 q 360 -262 357 -275 l 383 -107 q 418 -69 388 -69 l 481 -69 q 495 -76 489 -69 q 501 -92 501 -83 q 496 -117 501 -104 l 440 -262 q 426 -285 433 -278 q 404 -292 418 -292 l 379 -292 z "},"S":{"ha":840,"x_min":67,"x_max":771,"o":"m 422 -14 q 234 22 314 -14 q 112 114 154 57 q 67 236 69 171 q 75 256 67 247 q 96 264 83 264 l 124 264 q 154 236 149 264 q 231 119 164 169 q 422 69 297 69 q 619 117 554 69 q 683 251 683 165 q 652 338 683 304 q 561 398 621 372 q 381 463 501 424 q 213 531 274 497 q 124 613 153 564 q 94 736 94 661 q 133 864 94 807 q 243 953 171 921 q 415 986 315 986 q 592 949 518 986 q 703 856 665 913 q 743 743 740 800 q 735 724 743 732 q 714 715 728 715 l 686 715 q 667 722 676 715 q 656 743 657 728 q 581 858 647 813 q 415 903 515 903 q 245 861 308 903 q 182 736 182 819 q 210 647 182 682 q 296 585 239 611 q 464 524 353 560 q 642 454 578 488 q 738 374 706 421 q 771 251 771 326 q 678 56 771 126 q 422 -14 585 -14 z "},"Ś":{"ha":840,"x_min":67,"x_max":771,"o":"m 422 -14 q 234 22 314 -14 q 112 114 154 57 q 67 236 69 171 q 75 256 67 247 q 96 264 83 264 l 124 264 q 154 236 149 264 q 231 119 164 169 q 422 69 297 69 q 619 117 554 69 q 683 251 683 165 q 652 338 683 304 q 561 398 621 372 q 381 463 501 424 q 213 531 274 497 q 124 613 153 564 q 94 736 94 661 q 133 864 94 807 q 243 953 171 921 q 415 986 315 986 q 592 949 518 986 q 703 856 665 913 q 743 743 740 800 q 735 724 743 732 q 714 715 728 715 l 686 715 q 667 722 676 715 q 656 743 657 728 q 581 858 647 813 q 415 903 515 903 q 245 861 308 903 q 182 736 182 819 q 210 647 182 682 q 296 585 239 611 q 464 524 353 560 q 642 454 578 488 q 738 374 706 421 q 771 251 771 326 q 678 56 771 126 q 422 -14 585 -14 m 404 1042 q 382 1064 382 1042 q 389 1082 382 1075 l 485 1197 q 507 1217 497 1213 q 536 1222 517 1222 l 600 1222 q 626 1196 626 1222 q 619 1179 626 1186 l 468 1056 q 449 1044 457 1047 q 425 1042 440 1042 l 404 1042 z "},"Š":{"ha":840,"x_min":67,"x_max":771,"o":"m 422 -14 q 234 22 314 -14 q 112 114 154 57 q 67 236 69 171 q 75 256 67 247 q 96 264 83 264 l 124 264 q 154 236 149 264 q 231 119 164 169 q 422 69 297 69 q 619 117 554 69 q 683 251 683 165 q 652 338 683 304 q 561 398 621 372 q 381 463 501 424 q 213 531 274 497 q 124 613 153 564 q 94 736 94 661 q 133 864 94 807 q 243 953 171 921 q 415 986 315 986 q 592 949 518 986 q 703 856 665 913 q 743 743 740 800 q 735 724 743 732 q 714 715 728 715 l 686 715 q 667 722 676 715 q 656 743 657 728 q 581 858 647 813 q 415 903 515 903 q 245 861 308 903 q 182 736 182 819 q 210 647 182 682 q 296 585 239 611 q 464 524 353 560 q 642 454 578 488 q 738 374 706 421 q 771 251 771 326 q 678 56 771 126 q 422 -14 585 -14 m 414 1042 q 392 1045 401 1042 q 369 1061 382 1049 l 249 1179 q 232 1207 232 1196 q 251 1222 232 1222 l 275 1222 q 294 1219 285 1222 q 310 1213 304 1217 l 421 1129 l 532 1213 q 547 1219 538 1217 q 567 1222 557 1222 l 590 1222 q 610 1207 610 1222 q 593 1179 610 1196 l 472 1061 q 451 1045 460 1049 q 428 1042 442 1042 l 414 1042 z "},"Ş":{"ha":840,"x_min":67,"x_max":771,"o":"m 421 -306 q 360 -296 388 -306 q 316 -272 332 -286 q 300 -246 300 -258 q 304 -235 300 -239 l 324 -217 q 336 -211 329 -211 q 356 -220 342 -211 q 383 -235 369 -229 q 418 -242 396 -242 q 460 -226 443 -242 q 478 -186 478 -211 q 460 -148 478 -162 q 418 -133 443 -133 q 378 -140 399 -133 q 353 -147 358 -147 q 335 -139 342 -147 l 313 -115 q 308 -104 308 -111 q 313 -87 308 -97 q 319 -74 318 -78 l 347 -8 q 198 39 261 3 q 101 127 135 75 q 67 236 68 179 q 75 256 67 247 q 96 264 83 264 l 124 264 q 154 236 149 264 q 231 119 164 169 q 422 69 297 69 q 619 117 554 69 q 683 251 683 165 q 652 338 683 304 q 561 398 621 372 q 381 463 501 424 q 213 531 274 497 q 124 613 153 564 q 94 736 94 661 q 133 864 94 807 q 243 953 171 921 q 415 986 315 986 q 592 949 518 986 q 703 856 665 913 q 743 743 740 800 q 735 724 743 732 q 714 715 728 715 l 686 715 q 667 722 676 715 q 656 743 657 728 q 581 858 647 813 q 415 903 515 903 q 245 861 308 903 q 182 736 182 819 q 210 647 182 682 q 296 585 239 611 q 464 524 353 560 q 642 454 578 488 q 738 374 706 421 q 771 251 771 326 q 678 56 771 126 q 422 -14 585 -14 l 390 -81 q 443 -69 408 -69 q 519 -101 489 -69 q 549 -183 549 -133 q 515 -271 549 -236 q 421 -306 482 -306 z "},"Ŝ":{"ha":840,"x_min":67,"x_max":771,"o":"m 422 -14 q 234 22 314 -14 q 112 114 154 57 q 67 236 69 171 q 75 256 67 247 q 96 264 83 264 l 124 264 q 154 236 149 264 q 231 119 164 169 q 422 69 297 69 q 619 117 554 69 q 683 251 683 165 q 652 338 683 304 q 561 398 621 372 q 381 463 501 424 q 213 531 274 497 q 124 613 153 564 q 94 736 94 661 q 133 864 94 807 q 243 953 171 921 q 415 986 315 986 q 592 949 518 986 q 703 856 665 913 q 743 743 740 800 q 735 724 743 732 q 714 715 728 715 l 686 715 q 667 722 676 715 q 656 743 657 728 q 581 858 647 813 q 415 903 515 903 q 245 861 308 903 q 182 736 182 819 q 210 647 182 682 q 296 585 239 611 q 464 524 353 560 q 642 454 578 488 q 738 374 706 421 q 771 251 771 326 q 678 56 771 126 q 422 -14 585 -14 m 251 1042 q 232 1057 232 1042 q 249 1085 232 1068 l 369 1203 q 392 1219 382 1215 q 414 1222 401 1222 l 428 1222 q 451 1219 442 1222 q 472 1203 460 1215 l 593 1085 q 610 1057 610 1068 q 590 1042 610 1042 l 567 1042 q 547 1044 557 1042 q 532 1051 538 1047 l 421 1135 l 310 1051 q 294 1044 304 1047 q 275 1042 285 1042 l 251 1042 z "},"Ș":{"ha":840,"x_min":67,"x_max":771,"o":"m 422 -14 q 234 22 314 -14 q 112 114 154 57 q 67 236 69 171 q 75 256 67 247 q 96 264 83 264 l 124 264 q 154 236 149 264 q 231 119 164 169 q 422 69 297 69 q 619 117 554 69 q 683 251 683 165 q 652 338 683 304 q 561 398 621 372 q 381 463 501 424 q 213 531 274 497 q 124 613 153 564 q 94 736 94 661 q 133 864 94 807 q 243 953 171 921 q 415 986 315 986 q 592 949 518 986 q 703 856 665 913 q 743 743 740 800 q 735 724 743 732 q 714 715 728 715 l 686 715 q 667 722 676 715 q 656 743 657 728 q 581 858 647 813 q 415 903 515 903 q 245 861 308 903 q 182 736 182 819 q 210 647 182 682 q 296 585 239 611 q 464 524 353 560 q 642 454 578 488 q 738 374 706 421 q 771 251 771 326 q 678 56 771 126 q 422 -14 585 -14 m 353 -292 q 336 -283 342 -292 q 333 -262 331 -275 l 357 -107 q 392 -69 361 -69 l 454 -69 q 469 -76 463 -69 q 475 -92 475 -83 q 469 -117 475 -104 l 414 -262 q 399 -285 407 -278 q 378 -292 392 -292 l 353 -292 z "},"T":{"ha":774,"x_min":38,"x_max":736,"o":"m 374 0 q 351 8 360 0 q 343 31 343 17 l 343 889 l 68 889 q 46 897 54 889 q 38 919 38 906 l 38 940 q 46 963 38 954 q 68 972 54 972 l 704 972 q 728 964 719 972 q 736 940 736 956 l 736 919 q 727 897 736 906 q 704 889 718 889 l 431 889 l 431 31 q 422 8 431 17 q 399 0 413 0 l 374 0 z "},"Ŧ":{"ha":788,"x_min":44,"x_max":743,"o":"m 381 0 q 358 8 367 0 q 350 31 350 17 l 350 486 l 186 486 q 164 494 172 486 q 156 517 156 503 l 156 538 q 164 560 156 551 q 186 569 172 569 l 350 569 l 350 889 l 75 889 q 53 897 61 889 q 44 919 44 906 l 44 940 q 53 963 44 954 q 75 972 61 972 l 711 972 q 735 964 726 972 q 743 940 743 956 l 743 919 q 734 897 743 906 q 711 889 725 889 l 438 889 l 438 569 l 600 569 q 624 561 615 569 q 632 538 632 553 l 632 517 q 623 494 632 503 q 600 486 614 486 l 438 486 l 438 31 q 428 8 438 17 q 406 0 419 0 l 381 0 z "},"Ť":{"ha":774,"x_min":38,"x_max":736,"o":"m 374 0 q 351 8 360 0 q 343 31 343 17 l 343 889 l 68 889 q 46 897 54 889 q 38 919 38 906 l 38 940 q 46 963 38 954 q 68 972 54 972 l 704 972 q 728 964 719 972 q 736 940 736 956 l 736 919 q 727 897 736 906 q 704 889 718 889 l 431 889 l 431 31 q 422 8 431 17 q 399 0 413 0 l 374 0 m 381 1042 q 358 1045 368 1042 q 336 1061 349 1049 l 215 1179 q 199 1207 199 1196 q 218 1222 199 1222 l 242 1222 q 261 1219 251 1222 q 276 1213 271 1217 l 388 1129 l 499 1213 q 514 1219 504 1217 q 533 1222 524 1222 l 557 1222 q 576 1207 576 1222 q 560 1179 576 1196 l 439 1061 q 417 1045 426 1049 q 394 1042 408 1042 l 381 1042 z "},"Ț":{"ha":774,"x_min":38,"x_max":736,"o":"m 374 0 q 351 8 360 0 q 343 31 343 17 l 343 889 l 68 889 q 46 897 54 889 q 38 919 38 906 l 38 940 q 46 963 38 954 q 68 972 54 972 l 704 972 q 728 964 719 972 q 736 940 736 956 l 736 919 q 727 897 736 906 q 704 889 718 889 l 431 889 l 431 31 q 422 8 431 17 q 399 0 413 0 l 374 0 m 317 -292 q 300 -283 306 -292 q 297 -262 294 -275 l 321 -107 q 356 -69 325 -69 l 418 -69 q 433 -76 426 -69 q 439 -92 439 -83 q 433 -117 439 -104 l 378 -262 q 363 -285 371 -278 q 342 -292 356 -292 l 317 -292 z "},"U":{"ha":960,"x_min":122,"x_max":838,"o":"m 481 -14 q 215 83 307 -14 q 122 376 122 179 l 122 940 q 131 963 122 954 q 153 972 139 972 l 178 972 q 201 964 193 972 q 210 940 210 956 l 210 372 q 281 144 210 219 q 481 69 351 69 q 679 144 608 69 q 750 372 750 219 l 750 940 q 759 964 750 956 q 782 972 768 972 l 807 972 q 829 963 821 972 q 838 940 838 954 l 838 376 q 746 82 838 178 q 481 -14 654 -14 z "},"Ú":{"ha":960,"x_min":122,"x_max":838,"o":"m 481 -14 q 215 83 307 -14 q 122 376 122 179 l 122 940 q 131 963 122 954 q 153 972 139 972 l 178 972 q 201 964 193 972 q 210 940 210 956 l 210 372 q 281 144 210 219 q 481 69 351 69 q 679 144 608 69 q 750 372 750 219 l 750 940 q 759 964 750 956 q 782 972 768 972 l 807 972 q 829 963 821 972 q 838 940 838 954 l 838 376 q 746 82 838 178 q 481 -14 654 -14 m 464 1042 q 442 1064 442 1042 q 449 1082 442 1075 l 544 1197 q 567 1217 557 1213 q 596 1222 576 1222 l 660 1222 q 686 1196 686 1222 q 679 1179 686 1186 l 528 1056 q 508 1044 517 1047 q 485 1042 500 1042 l 464 1042 z "},"Ŭ":{"ha":960,"x_min":122,"x_max":838,"o":"m 481 -14 q 215 83 307 -14 q 122 376 122 179 l 122 940 q 131 963 122 954 q 153 972 139 972 l 178 972 q 201 964 193 972 q 210 940 210 956 l 210 372 q 281 144 210 219 q 481 69 351 69 q 679 144 608 69 q 750 372 750 219 l 750 940 q 759 964 750 956 q 782 972 768 972 l 807 972 q 829 963 821 972 q 838 940 838 954 l 838 376 q 746 82 838 178 q 481 -14 654 -14 m 481 1028 q 357 1074 393 1028 q 321 1189 321 1119 q 328 1208 321 1200 q 347 1215 335 1215 l 368 1215 q 388 1208 381 1215 q 394 1189 394 1200 q 414 1124 394 1150 q 481 1097 433 1097 q 547 1124 528 1097 q 567 1189 567 1150 q 574 1208 567 1200 q 593 1215 581 1215 l 614 1215 q 633 1208 626 1215 q 640 1189 640 1200 q 604 1074 640 1119 q 481 1028 568 1028 z "},"Û":{"ha":960,"x_min":122,"x_max":838,"o":"m 481 -14 q 215 83 307 -14 q 122 376 122 179 l 122 940 q 131 963 122 954 q 153 972 139 972 l 178 972 q 201 964 193 972 q 210 940 210 956 l 210 372 q 281 144 210 219 q 481 69 351 69 q 679 144 608 69 q 750 372 750 219 l 750 940 q 759 964 750 956 q 782 972 768 972 l 807 972 q 829 963 821 972 q 838 940 838 954 l 838 376 q 746 82 838 178 q 481 -14 654 -14 m 311 1042 q 292 1057 292 1042 q 308 1085 292 1068 l 429 1203 q 451 1219 442 1215 q 474 1222 461 1222 l 488 1222 q 510 1219 501 1222 q 532 1203 519 1215 l 653 1085 q 669 1057 669 1068 q 650 1042 669 1042 l 626 1042 q 607 1044 617 1042 q 592 1051 597 1047 l 481 1135 l 369 1051 q 354 1044 364 1047 q 335 1042 344 1042 l 311 1042 z "},"Ü":{"ha":960,"x_min":122,"x_max":838,"o":"m 481 -14 q 215 83 307 -14 q 122 376 122 179 l 122 940 q 131 963 122 954 q 153 972 139 972 l 178 972 q 201 964 193 972 q 210 940 210 956 l 210 372 q 281 144 210 219 q 481 69 351 69 q 679 144 608 69 q 750 372 750 219 l 750 940 q 759 964 750 956 q 782 972 768 972 l 807 972 q 829 963 821 972 q 838 940 838 954 l 838 376 q 746 82 838 178 q 481 -14 654 -14 m 326 1042 q 304 1050 313 1042 q 296 1072 296 1058 l 296 1125 q 304 1148 296 1139 q 326 1157 313 1157 l 379 1157 q 402 1148 393 1157 q 411 1125 411 1139 l 411 1072 q 402 1050 411 1058 q 379 1042 393 1042 l 326 1042 m 581 1042 q 558 1050 567 1042 q 550 1072 550 1058 l 550 1125 q 558 1148 550 1139 q 581 1157 567 1157 l 633 1157 q 656 1148 647 1157 q 665 1125 665 1139 l 665 1072 q 656 1050 665 1058 q 633 1042 647 1042 l 581 1042 z "},"Ù":{"ha":960,"x_min":122,"x_max":838,"o":"m 481 -14 q 215 83 307 -14 q 122 376 122 179 l 122 940 q 131 963 122 954 q 153 972 139 972 l 178 972 q 201 964 193 972 q 210 940 210 956 l 210 372 q 281 144 210 219 q 481 69 351 69 q 679 144 608 69 q 750 372 750 219 l 750 940 q 759 964 750 956 q 782 972 768 972 l 807 972 q 829 963 821 972 q 838 940 838 954 l 838 376 q 746 82 838 178 q 481 -14 654 -14 m 490 1042 q 467 1044 475 1042 q 447 1056 458 1047 l 296 1179 q 289 1196 289 1186 q 315 1222 289 1222 l 379 1222 q 408 1217 399 1222 q 431 1197 418 1213 l 526 1082 q 533 1064 533 1075 q 511 1042 533 1042 l 490 1042 z "},"Ű":{"ha":960,"x_min":122,"x_max":838,"o":"m 481 -14 q 215 83 307 -14 q 122 376 122 179 l 122 940 q 131 963 122 954 q 153 972 139 972 l 178 972 q 201 964 193 972 q 210 940 210 956 l 210 372 q 281 144 210 219 q 481 69 351 69 q 679 144 608 69 q 750 372 750 219 l 750 940 q 759 964 750 956 q 782 972 768 972 l 807 972 q 829 963 821 972 q 838 940 838 954 l 838 376 q 746 82 838 178 q 481 -14 654 -14 m 360 1042 q 338 1064 338 1042 q 344 1085 338 1071 l 394 1196 q 413 1216 401 1210 q 446 1222 425 1222 l 501 1222 q 522 1215 514 1222 q 529 1196 529 1208 q 521 1178 529 1186 l 422 1061 q 381 1042 406 1042 l 360 1042 m 565 1042 q 543 1064 543 1042 q 550 1085 543 1071 l 600 1196 q 619 1216 607 1210 q 651 1222 631 1222 l 707 1222 q 727 1215 719 1222 q 735 1196 735 1208 q 726 1178 735 1186 l 628 1061 q 586 1042 611 1042 l 565 1042 z "},"Ū":{"ha":960,"x_min":122,"x_max":838,"o":"m 481 -14 q 215 83 307 -14 q 122 376 122 179 l 122 940 q 131 963 122 954 q 153 972 139 972 l 178 972 q 201 964 193 972 q 210 940 210 956 l 210 372 q 281 144 210 219 q 481 69 351 69 q 679 144 608 69 q 750 372 750 219 l 750 940 q 759 964 750 956 q 782 972 768 972 l 807 972 q 829 963 821 972 q 838 940 838 954 l 838 376 q 746 82 838 178 q 481 -14 654 -14 m 342 1042 q 319 1050 328 1042 q 311 1072 311 1058 l 311 1103 q 319 1125 311 1117 q 342 1133 328 1133 l 618 1133 q 640 1125 632 1133 q 649 1103 649 1117 l 649 1072 q 640 1050 649 1058 q 618 1042 632 1042 l 342 1042 z "},"Ų":{"ha":960,"x_min":122,"x_max":838,"o":"m 568 -306 q 434 -254 483 -306 q 385 -114 385 -203 q 406 -8 385 -46 q 195 106 268 10 q 122 376 122 201 l 122 940 q 131 963 122 954 q 153 972 139 972 l 178 972 q 201 964 193 972 q 210 940 210 956 l 210 372 q 281 144 210 219 q 481 69 351 69 q 679 144 608 69 q 750 372 750 219 l 750 940 q 759 964 750 956 q 782 972 768 972 l 807 972 q 829 963 821 972 q 838 940 838 954 l 838 376 q 769 110 838 206 q 572 -7 701 15 q 495 -42 522 -18 q 468 -114 468 -65 q 497 -197 468 -167 q 574 -226 526 -226 l 594 -226 q 617 -235 608 -226 q 625 -257 625 -243 l 625 -275 q 617 -297 625 -289 q 594 -306 608 -306 l 568 -306 z "},"Ů":{"ha":960,"x_min":122,"x_max":838,"o":"m 481 -14 q 215 83 307 -14 q 122 376 122 179 l 122 940 q 131 963 122 954 q 153 972 139 972 l 178 972 q 201 964 193 972 q 210 940 210 956 l 210 372 q 281 144 210 219 q 481 69 351 69 q 679 144 608 69 q 750 372 750 219 l 750 940 q 759 964 750 956 q 782 972 768 972 l 807 972 q 829 963 821 972 q 838 940 838 954 l 838 376 q 746 82 838 178 q 481 -14 654 -14 m 481 1028 q 401 1057 433 1028 q 369 1132 369 1086 q 401 1207 369 1178 q 481 1236 433 1236 q 560 1207 528 1236 q 592 1132 592 1178 q 560 1057 592 1086 q 481 1028 528 1028 m 481 1090 q 510 1102 499 1090 q 522 1132 522 1114 q 510 1162 522 1150 q 481 1174 499 1174 q 451 1162 463 1174 q 439 1132 439 1150 q 451 1102 439 1114 q 481 1090 463 1090 z "},"Ũ":{"ha":960,"x_min":122,"x_max":838,"o":"m 481 -14 q 215 83 307 -14 q 122 376 122 179 l 122 940 q 131 963 122 954 q 153 972 139 972 l 178 972 q 201 964 193 972 q 210 940 210 956 l 210 372 q 281 144 210 219 q 481 69 351 69 q 679 144 608 69 q 750 372 750 219 l 750 940 q 759 964 750 956 q 782 972 768 972 l 807 972 q 829 963 821 972 q 838 940 838 954 l 838 376 q 746 82 838 178 q 481 -14 654 -14 m 549 1035 q 508 1041 525 1035 q 464 1063 492 1047 q 414 1082 431 1082 q 397 1077 403 1082 q 383 1061 390 1072 q 357 1042 372 1042 l 329 1042 q 313 1049 319 1042 q 307 1064 307 1056 q 338 1138 307 1104 q 410 1172 368 1172 q 452 1165 433 1172 q 494 1144 471 1158 q 514 1134 497 1143 q 546 1125 531 1125 q 563 1130 557 1125 q 576 1146 569 1135 q 588 1162 582 1157 q 603 1167 593 1167 l 631 1167 q 647 1160 640 1167 q 653 1144 653 1153 q 621 1069 653 1104 q 549 1035 589 1035 z "},"V":{"ha":886,"x_min":51,"x_max":835,"o":"m 424 0 q 376 33 389 0 l 54 929 l 51 944 q 60 964 51 956 q 79 972 68 972 l 108 972 q 128 965 121 972 q 139 951 136 958 l 443 101 l 747 951 q 758 965 750 958 q 778 972 765 972 l 807 972 q 826 964 818 972 q 835 944 835 956 l 832 929 l 510 33 q 463 0 497 0 l 424 0 z "},"W":{"ha":1094,"x_min":67,"x_max":1028,"o":"m 299 0 q 273 8 282 0 q 260 33 264 15 l 69 928 l 67 944 q 75 964 67 956 q 94 972 83 972 l 124 972 q 154 951 150 972 l 317 160 l 489 725 q 532 757 500 757 l 563 757 q 606 725 594 757 l 778 160 l 940 951 q 971 972 944 972 l 1000 972 q 1019 964 1011 972 q 1028 944 1028 956 l 1025 928 l 835 33 q 822 8 831 15 q 796 0 813 0 l 775 0 q 732 33 743 0 l 547 619 l 363 33 q 319 0 353 0 l 299 0 z "},"Ẃ":{"ha":1094,"x_min":67,"x_max":1028,"o":"m 299 0 q 273 8 282 0 q 260 33 264 15 l 69 928 l 67 944 q 75 964 67 956 q 94 972 83 972 l 124 972 q 154 951 150 972 l 317 160 l 489 725 q 532 757 500 757 l 563 757 q 606 725 594 757 l 778 160 l 940 951 q 971 972 944 972 l 1000 972 q 1019 964 1011 972 q 1028 944 1028 956 l 1025 928 l 835 33 q 822 8 831 15 q 796 0 813 0 l 775 0 q 732 33 743 0 l 547 619 l 363 33 q 319 0 353 0 l 299 0 m 531 1042 q 508 1064 508 1042 q 515 1082 508 1075 l 611 1197 q 633 1217 624 1213 q 663 1222 643 1222 l 726 1222 q 753 1196 753 1222 q 746 1179 753 1186 l 594 1056 q 575 1044 583 1047 q 551 1042 567 1042 l 531 1042 z "},"Ŵ":{"ha":1094,"x_min":67,"x_max":1028,"o":"m 299 0 q 273 8 282 0 q 260 33 264 15 l 69 928 l 67 944 q 75 964 67 956 q 94 972 83 972 l 124 972 q 154 951 150 972 l 317 160 l 489 725 q 532 757 500 757 l 563 757 q 606 725 594 757 l 778 160 l 940 951 q 971 972 944 972 l 1000 972 q 1019 964 1011 972 q 1028 944 1028 956 l 1025 928 l 835 33 q 822 8 831 15 q 796 0 813 0 l 775 0 q 732 33 743 0 l 547 619 l 363 33 q 319 0 353 0 l 299 0 m 378 1042 q 358 1057 358 1042 q 375 1085 358 1068 l 496 1203 q 518 1219 508 1215 q 540 1222 528 1222 l 554 1222 q 577 1219 568 1222 q 599 1203 586 1215 l 719 1085 q 736 1057 736 1068 q 717 1042 736 1042 l 693 1042 q 674 1044 683 1042 q 658 1051 664 1047 l 547 1135 l 436 1051 q 421 1044 431 1047 q 401 1042 411 1042 l 378 1042 z "},"Ẅ":{"ha":1094,"x_min":67,"x_max":1028,"o":"m 299 0 q 273 8 282 0 q 260 33 264 15 l 69 928 l 67 944 q 75 964 67 956 q 94 972 83 972 l 124 972 q 154 951 150 972 l 317 160 l 489 725 q 532 757 500 757 l 563 757 q 606 725 594 757 l 778 160 l 940 951 q 971 972 944 972 l 1000 972 q 1019 964 1011 972 q 1028 944 1028 956 l 1025 928 l 835 33 q 822 8 831 15 q 796 0 813 0 l 775 0 q 732 33 743 0 l 547 619 l 363 33 q 319 0 353 0 l 299 0 m 393 1042 q 371 1050 379 1042 q 363 1072 363 1058 l 363 1125 q 371 1148 363 1139 q 393 1157 379 1157 l 446 1157 q 469 1148 460 1157 q 478 1125 478 1139 l 478 1072 q 469 1050 478 1058 q 446 1042 460 1042 l 393 1042 m 647 1042 q 625 1050 633 1042 q 617 1072 617 1058 l 617 1125 q 625 1148 617 1139 q 647 1157 633 1157 l 700 1157 q 723 1148 714 1157 q 732 1125 732 1139 l 732 1072 q 723 1050 732 1058 q 700 1042 714 1042 l 647 1042 z "},"Ẁ":{"ha":1094,"x_min":67,"x_max":1028,"o":"m 299 0 q 273 8 282 0 q 260 33 264 15 l 69 928 l 67 944 q 75 964 67 956 q 94 972 83 972 l 124 972 q 154 951 150 972 l 317 160 l 489 725 q 532 757 500 757 l 563 757 q 606 725 594 757 l 778 160 l 940 951 q 971 972 944 972 l 1000 972 q 1019 964 1011 972 q 1028 944 1028 956 l 1025 928 l 835 33 q 822 8 831 15 q 796 0 813 0 l 775 0 q 732 33 743 0 l 547 619 l 363 33 q 319 0 353 0 l 299 0 m 557 1042 q 533 1044 542 1042 q 514 1056 525 1047 l 363 1179 q 356 1196 356 1186 q 382 1222 356 1222 l 446 1222 q 475 1217 465 1222 q 497 1197 485 1213 l 593 1082 q 600 1064 600 1075 q 578 1042 600 1042 l 557 1042 z "},"X":{"ha":846,"x_min":42,"x_max":806,"o":"m 69 0 q 50 8 58 0 q 42 28 42 17 q 47 46 42 38 l 371 494 l 60 926 q 54 944 54 935 q 63 964 54 956 q 82 972 71 972 l 115 972 q 147 951 133 972 l 426 563 l 700 951 q 732 972 715 972 l 763 972 q 782 964 774 972 q 790 944 790 956 q 785 926 790 935 l 478 492 l 800 46 q 806 28 806 38 q 797 8 806 17 q 778 0 789 0 l 744 0 q 713 21 728 0 l 422 422 l 132 21 q 100 0 118 0 l 69 0 z "},"Y":{"ha":878,"x_min":50,"x_max":828,"o":"m 425 0 q 403 8 411 0 q 394 31 394 17 l 394 371 l 56 926 q 50 944 50 938 q 58 964 50 956 q 78 972 67 972 l 106 972 q 138 951 125 972 l 439 461 l 740 951 q 772 972 753 972 l 800 972 q 819 964 811 972 q 828 944 828 956 q 822 926 828 938 l 483 371 l 483 31 q 474 8 483 17 q 451 0 465 0 l 425 0 z "},"Ý":{"ha":878,"x_min":50,"x_max":828,"o":"m 425 0 q 403 8 411 0 q 394 31 394 17 l 394 371 l 56 926 q 50 944 50 938 q 58 964 50 956 q 78 972 67 972 l 106 972 q 138 951 125 972 l 439 461 l 740 951 q 772 972 753 972 l 800 972 q 819 964 811 972 q 828 944 828 956 q 822 926 828 938 l 483 371 l 483 31 q 474 8 483 17 q 451 0 465 0 l 425 0 m 422 1042 q 400 1064 400 1042 q 407 1082 400 1075 l 503 1197 q 525 1217 515 1213 q 554 1222 535 1222 l 618 1222 q 644 1196 644 1222 q 638 1179 644 1186 l 486 1056 q 467 1044 475 1047 q 443 1042 458 1042 l 422 1042 z "},"Ŷ":{"ha":878,"x_min":50,"x_max":828,"o":"m 425 0 q 403 8 411 0 q 394 31 394 17 l 394 371 l 56 926 q 50 944 50 938 q 58 964 50 956 q 78 972 67 972 l 106 972 q 138 951 125 972 l 439 461 l 740 951 q 772 972 753 972 l 800 972 q 819 964 811 972 q 828 944 828 956 q 822 926 828 938 l 483 371 l 483 31 q 474 8 483 17 q 451 0 465 0 l 425 0 m 269 1042 q 250 1057 250 1042 q 267 1085 250 1068 l 388 1203 q 410 1219 400 1215 q 432 1222 419 1222 l 446 1222 q 469 1219 460 1222 q 490 1203 478 1215 l 611 1085 q 628 1057 628 1068 q 608 1042 628 1042 l 585 1042 q 565 1044 575 1042 q 550 1051 556 1047 l 439 1135 l 328 1051 q 313 1044 322 1047 q 293 1042 303 1042 l 269 1042 z "},"Ÿ":{"ha":878,"x_min":50,"x_max":828,"o":"m 425 0 q 403 8 411 0 q 394 31 394 17 l 394 371 l 56 926 q 50 944 50 938 q 58 964 50 956 q 78 972 67 972 l 106 972 q 138 951 125 972 l 439 461 l 740 951 q 772 972 753 972 l 800 972 q 819 964 811 972 q 828 944 828 956 q 822 926 828 938 l 483 371 l 483 31 q 474 8 483 17 q 451 0 465 0 l 425 0 m 285 1042 q 263 1050 271 1042 q 254 1072 254 1058 l 254 1125 q 263 1148 254 1139 q 285 1157 271 1157 l 338 1157 q 360 1148 351 1157 q 369 1125 369 1139 l 369 1072 q 360 1050 369 1058 q 338 1042 351 1042 l 285 1042 m 539 1042 q 517 1050 525 1042 q 508 1072 508 1058 l 508 1125 q 517 1148 508 1139 q 539 1157 525 1157 l 592 1157 q 615 1148 606 1157 q 624 1125 624 1139 l 624 1072 q 615 1050 624 1058 q 592 1042 606 1042 l 539 1042 z "},"Ỳ":{"ha":878,"x_min":50,"x_max":828,"o":"m 425 0 q 403 8 411 0 q 394 31 394 17 l 394 371 l 56 926 q 50 944 50 938 q 58 964 50 956 q 78 972 67 972 l 106 972 q 138 951 125 972 l 439 461 l 740 951 q 772 972 753 972 l 800 972 q 819 964 811 972 q 828 944 828 956 q 822 926 828 938 l 483 371 l 483 31 q 474 8 483 17 q 451 0 465 0 l 425 0 m 449 1042 q 425 1044 433 1042 q 406 1056 417 1047 l 254 1179 q 247 1196 247 1186 q 274 1222 247 1222 l 338 1222 q 367 1217 357 1222 q 389 1197 376 1213 l 485 1082 q 492 1064 492 1075 q 469 1042 492 1042 l 449 1042 z "},"Z":{"ha":804,"x_min":58,"x_max":746,"o":"m 89 0 q 67 9 75 0 q 58 32 58 18 l 58 60 q 68 97 58 83 q 79 113 78 111 l 626 889 l 101 889 q 79 897 88 889 q 71 919 71 906 l 71 940 q 79 963 71 954 q 101 972 88 972 l 700 972 q 724 964 715 972 q 732 940 732 956 l 732 913 q 727 887 732 897 q 714 863 722 876 l 169 83 l 714 83 q 738 75 729 83 q 746 51 746 67 l 746 31 q 737 8 746 17 q 714 0 728 0 l 89 0 z "},"Ź":{"ha":804,"x_min":58,"x_max":746,"o":"m 89 0 q 67 9 75 0 q 58 32 58 18 l 58 60 q 68 97 58 83 q 79 113 78 111 l 626 889 l 101 889 q 79 897 88 889 q 71 919 71 906 l 71 940 q 79 963 71 954 q 101 972 88 972 l 700 972 q 724 964 715 972 q 732 940 732 956 l 732 913 q 727 887 732 897 q 714 863 722 876 l 169 83 l 714 83 q 738 75 729 83 q 746 51 746 67 l 746 31 q 737 8 746 17 q 714 0 728 0 l 89 0 m 372 1042 q 350 1064 350 1042 q 357 1082 350 1075 l 453 1197 q 475 1217 465 1213 q 504 1222 485 1222 l 568 1222 q 594 1196 594 1222 q 588 1179 594 1186 l 436 1056 q 417 1044 425 1047 q 393 1042 408 1042 l 372 1042 z "},"Ž":{"ha":804,"x_min":58,"x_max":746,"o":"m 89 0 q 67 9 75 0 q 58 32 58 18 l 58 60 q 68 97 58 83 q 79 113 78 111 l 626 889 l 101 889 q 79 897 88 889 q 71 919 71 906 l 71 940 q 79 963 71 954 q 101 972 88 972 l 700 972 q 724 964 715 972 q 732 940 732 956 l 732 913 q 727 887 732 897 q 714 863 722 876 l 169 83 l 714 83 q 738 75 729 83 q 746 51 746 67 l 746 31 q 737 8 746 17 q 714 0 728 0 l 89 0 m 382 1042 q 360 1045 369 1042 q 338 1061 350 1049 l 217 1179 q 200 1207 200 1196 q 219 1222 200 1222 l 243 1222 q 263 1219 253 1222 q 278 1213 272 1217 l 389 1129 l 500 1213 q 515 1219 506 1217 q 535 1222 525 1222 l 558 1222 q 578 1207 578 1222 q 561 1179 578 1196 l 440 1061 q 419 1045 428 1049 q 396 1042 410 1042 l 382 1042 z "},"Ż":{"ha":804,"x_min":58,"x_max":746,"o":"m 89 0 q 67 9 75 0 q 58 32 58 18 l 58 60 q 68 97 58 83 q 79 113 78 111 l 626 889 l 101 889 q 79 897 88 889 q 71 919 71 906 l 71 940 q 79 963 71 954 q 101 972 88 972 l 700 972 q 724 964 715 972 q 732 940 732 956 l 732 913 q 727 887 732 897 q 714 863 722 876 l 169 83 l 714 83 q 738 75 729 83 q 746 51 746 67 l 746 31 q 737 8 746 17 q 714 0 728 0 l 89 0 m 354 1042 q 332 1050 340 1042 q 324 1072 324 1058 l 324 1139 q 332 1162 324 1153 q 354 1171 340 1171 l 421 1171 q 444 1162 435 1171 q 453 1139 453 1153 l 453 1072 q 444 1050 453 1058 q 421 1042 435 1042 l 354 1042 z "},"a":{"ha":744,"x_min":58,"x_max":638,"o":"m 307 -14 q 183 14 240 -14 q 92 89 126 42 q 58 193 58 136 q 133 343 58 285 q 333 418 207 401 l 553 449 l 553 497 q 506 615 553 574 q 364 656 460 656 q 248 628 293 656 q 190 561 203 600 q 177 538 185 544 q 157 532 169 532 l 138 532 q 116 541 125 532 q 107 563 107 550 q 135 634 107 593 q 221 706 163 675 q 364 736 279 736 q 575 665 513 736 q 638 493 638 594 l 638 31 q 629 8 638 17 q 607 0 621 0 l 583 0 q 561 8 569 0 q 553 31 553 17 l 553 96 q 463 18 522 50 q 307 -14 404 -14 m 321 67 q 488 133 422 67 q 553 325 553 200 l 553 372 l 374 347 q 201 294 260 332 q 143 200 143 257 q 197 101 143 136 q 321 67 250 67 z "},"á":{"ha":744,"x_min":58,"x_max":638,"o":"m 307 -14 q 183 14 240 -14 q 92 89 126 42 q 58 193 58 136 q 133 343 58 285 q 333 418 207 401 l 553 449 l 553 497 q 506 615 553 574 q 364 656 460 656 q 248 628 293 656 q 190 561 203 600 q 177 538 185 544 q 157 532 169 532 l 138 532 q 116 541 125 532 q 107 563 107 550 q 135 634 107 593 q 221 706 163 675 q 364 736 279 736 q 575 665 513 736 q 638 493 638 594 l 638 31 q 629 8 638 17 q 607 0 621 0 l 583 0 q 561 8 569 0 q 553 31 553 17 l 553 96 q 463 18 522 50 q 307 -14 404 -14 m 321 67 q 488 133 422 67 q 553 325 553 200 l 553 372 l 374 347 q 201 294 260 332 q 143 200 143 257 q 197 101 143 136 q 321 67 250 67 m 318 826 q 296 849 296 826 q 303 867 296 860 l 399 982 q 421 1002 411 997 q 450 1007 431 1007 l 507 1007 q 533 981 533 1007 q 526 964 533 971 l 375 840 q 356 829 364 832 q 332 826 347 826 l 318 826 z "},"ă":{"ha":744,"x_min":58,"x_max":638,"o":"m 307 -14 q 183 14 240 -14 q 92 89 126 42 q 58 193 58 136 q 133 343 58 285 q 333 418 207 401 l 553 449 l 553 497 q 506 615 553 574 q 364 656 460 656 q 248 628 293 656 q 190 561 203 600 q 177 538 185 544 q 157 532 169 532 l 138 532 q 116 541 125 532 q 107 563 107 550 q 135 634 107 593 q 221 706 163 675 q 364 736 279 736 q 575 665 513 736 q 638 493 638 594 l 638 31 q 629 8 638 17 q 607 0 621 0 l 583 0 q 561 8 569 0 q 553 31 553 17 l 553 96 q 463 18 522 50 q 307 -14 404 -14 m 321 67 q 488 133 422 67 q 553 325 553 200 l 553 372 l 374 347 q 201 294 260 332 q 143 200 143 257 q 197 101 143 136 q 321 67 250 67 m 363 819 q 244 865 279 819 q 210 981 210 911 q 217 999 210 992 q 236 1007 224 1007 l 257 1007 q 276 999 269 1007 q 283 981 283 992 q 363 889 283 889 q 442 981 442 889 q 449 999 442 992 q 468 1007 456 1007 l 489 1007 q 508 999 501 1007 q 515 981 515 992 q 481 865 515 911 q 363 819 446 819 z "},"â":{"ha":744,"x_min":58,"x_max":638,"o":"m 307 -14 q 183 14 240 -14 q 92 89 126 42 q 58 193 58 136 q 133 343 58 285 q 333 418 207 401 l 553 449 l 553 497 q 506 615 553 574 q 364 656 460 656 q 248 628 293 656 q 190 561 203 600 q 177 538 185 544 q 157 532 169 532 l 138 532 q 116 541 125 532 q 107 563 107 550 q 135 634 107 593 q 221 706 163 675 q 364 736 279 736 q 575 665 513 736 q 638 493 638 594 l 638 31 q 629 8 638 17 q 607 0 621 0 l 583 0 q 561 8 569 0 q 553 31 553 17 l 553 96 q 463 18 522 50 q 307 -14 404 -14 m 321 67 q 488 133 422 67 q 553 325 553 200 l 553 372 l 374 347 q 201 294 260 332 q 143 200 143 257 q 197 101 143 136 q 321 67 250 67 m 192 826 q 172 842 172 826 q 189 869 172 853 l 310 988 q 331 1003 322 1000 q 354 1007 340 1007 l 368 1007 q 390 1003 381 1007 q 413 988 400 1000 l 533 869 q 550 842 550 853 q 531 826 550 826 l 507 826 q 488 829 497 826 q 472 836 478 832 l 361 919 l 250 836 q 235 829 244 832 q 215 826 225 826 l 192 826 z "},"ä":{"ha":744,"x_min":58,"x_max":638,"o":"m 307 -14 q 183 14 240 -14 q 92 89 126 42 q 58 193 58 136 q 133 343 58 285 q 333 418 207 401 l 553 449 l 553 497 q 506 615 553 574 q 364 656 460 656 q 248 628 293 656 q 190 561 203 600 q 177 538 185 544 q 157 532 169 532 l 138 532 q 116 541 125 532 q 107 563 107 550 q 135 634 107 593 q 221 706 163 675 q 364 736 279 736 q 575 665 513 736 q 638 493 638 594 l 638 31 q 629 8 638 17 q 607 0 621 0 l 583 0 q 561 8 569 0 q 553 31 553 17 l 553 96 q 463 18 522 50 q 307 -14 404 -14 m 321 67 q 488 133 422 67 q 553 325 553 200 l 553 372 l 374 347 q 201 294 260 332 q 143 200 143 257 q 197 101 143 136 q 321 67 250 67 m 235 871 q 213 879 221 871 q 204 901 204 888 l 204 954 q 213 977 204 968 q 235 986 221 986 l 288 986 q 310 977 301 986 q 319 954 319 968 l 319 901 q 310 879 319 888 q 288 871 301 871 l 235 871 m 447 871 q 425 879 433 871 q 417 901 417 888 l 417 954 q 425 977 417 968 q 447 986 433 986 l 500 986 q 523 977 514 986 q 532 954 532 968 l 532 901 q 523 879 532 888 q 500 871 514 871 l 447 871 z "},"à":{"ha":744,"x_min":58,"x_max":638,"o":"m 307 -14 q 183 14 240 -14 q 92 89 126 42 q 58 193 58 136 q 133 343 58 285 q 333 418 207 401 l 553 449 l 553 497 q 506 615 553 574 q 364 656 460 656 q 248 628 293 656 q 190 561 203 600 q 177 538 185 544 q 157 532 169 532 l 138 532 q 116 541 125 532 q 107 563 107 550 q 135 634 107 593 q 221 706 163 675 q 364 736 279 736 q 575 665 513 736 q 638 493 638 594 l 638 31 q 629 8 638 17 q 607 0 621 0 l 583 0 q 561 8 569 0 q 553 31 553 17 l 553 96 q 463 18 522 50 q 307 -14 404 -14 m 321 67 q 488 133 422 67 q 553 325 553 200 l 553 372 l 374 347 q 201 294 260 332 q 143 200 143 257 q 197 101 143 136 q 321 67 250 67 m 379 826 q 356 829 364 826 q 336 840 347 832 l 185 964 q 178 981 178 971 q 204 1007 178 1007 l 261 1007 q 290 1002 281 1007 q 313 982 300 997 l 408 867 q 415 849 415 860 q 393 826 415 826 l 379 826 z "},"ā":{"ha":744,"x_min":58,"x_max":638,"o":"m 307 -14 q 183 14 240 -14 q 92 89 126 42 q 58 193 58 136 q 133 343 58 285 q 333 418 207 401 l 553 449 l 553 497 q 506 615 553 574 q 364 656 460 656 q 248 628 293 656 q 190 561 203 600 q 177 538 185 544 q 157 532 169 532 l 138 532 q 116 541 125 532 q 107 563 107 550 q 135 634 107 593 q 221 706 163 675 q 364 736 279 736 q 575 665 513 736 q 638 493 638 594 l 638 31 q 629 8 638 17 q 607 0 621 0 l 583 0 q 561 8 569 0 q 553 31 553 17 l 553 96 q 463 18 522 50 q 307 -14 404 -14 m 321 67 q 488 133 422 67 q 553 325 553 200 l 553 372 l 374 347 q 201 294 260 332 q 143 200 143 257 q 197 101 143 136 q 321 67 250 67 m 224 864 q 201 872 210 864 q 193 894 193 881 l 193 914 q 201 936 193 928 q 224 944 210 944 l 500 944 q 522 936 514 944 q 531 914 531 928 l 531 894 q 522 872 531 881 q 500 864 514 864 l 224 864 z "},"ą":{"ha":744,"x_min":58,"x_max":638,"o":"m 594 -306 q 483 -258 528 -306 q 439 -125 439 -210 q 474 -18 439 -64 q 553 49 508 28 l 553 53 l 553 96 q 463 18 522 50 q 307 -14 404 -14 q 183 14 240 -14 q 92 89 126 42 q 58 193 58 136 q 133 343 58 285 q 333 418 207 401 l 553 449 l 553 497 q 506 615 553 574 q 364 656 460 656 q 248 628 293 656 q 190 561 203 600 q 177 538 185 544 q 157 532 169 532 l 138 532 q 116 541 125 532 q 107 563 107 550 q 135 634 107 593 q 221 706 163 675 q 364 736 279 736 q 575 665 513 736 q 638 493 638 594 l 638 31 q 618 1 638 13 l 615 0 q 544 -51 567 -22 q 522 -125 522 -79 q 543 -201 522 -176 q 600 -226 564 -226 l 607 -226 q 629 -235 621 -226 q 638 -257 638 -243 l 638 -275 q 629 -297 638 -289 q 607 -306 621 -306 l 594 -306 m 321 67 q 488 133 422 67 q 553 325 553 200 l 553 372 l 374 347 q 201 294 260 332 q 143 200 143 257 q 197 101 143 136 q 321 67 250 67 z "},"å":{"ha":744,"x_min":58,"x_max":638,"o":"m 307 -14 q 183 14 240 -14 q 92 89 126 42 q 58 193 58 136 q 133 343 58 285 q 333 418 207 401 l 553 449 l 553 497 q 506 615 553 574 q 364 656 460 656 q 248 628 293 656 q 190 561 203 600 q 177 538 185 544 q 157 532 169 532 l 138 532 q 116 541 125 532 q 107 563 107 550 q 135 634 107 593 q 221 706 163 675 q 364 736 279 736 q 575 665 513 736 q 638 493 638 594 l 638 31 q 629 8 638 17 q 607 0 621 0 l 583 0 q 561 8 569 0 q 553 31 553 17 l 553 96 q 463 18 522 50 q 307 -14 404 -14 m 321 67 q 488 133 422 67 q 553 325 553 200 l 553 372 l 374 347 q 201 294 260 332 q 143 200 143 257 q 197 101 143 136 q 321 67 250 67 m 361 819 q 282 849 314 819 q 250 924 250 878 q 282 999 250 969 q 361 1028 314 1028 q 440 999 408 1028 q 472 924 472 969 q 440 849 472 878 q 361 819 408 819 m 361 882 q 391 894 379 882 q 403 924 403 906 q 391 953 403 942 q 361 965 379 965 q 331 953 343 965 q 319 924 319 942 q 331 894 319 906 q 361 882 343 882 z "},"ã":{"ha":744,"x_min":58,"x_max":638,"o":"m 307 -14 q 183 14 240 -14 q 92 89 126 42 q 58 193 58 136 q 133 343 58 285 q 333 418 207 401 l 553 449 l 553 497 q 506 615 553 574 q 364 656 460 656 q 248 628 293 656 q 190 561 203 600 q 177 538 185 544 q 157 532 169 532 l 138 532 q 116 541 125 532 q 107 563 107 550 q 135 634 107 593 q 221 706 163 675 q 364 736 279 736 q 575 665 513 736 q 638 493 638 594 l 638 31 q 629 8 638 17 q 607 0 621 0 l 583 0 q 561 8 569 0 q 553 31 553 17 l 553 96 q 463 18 522 50 q 307 -14 404 -14 m 321 67 q 488 133 422 67 q 553 325 553 200 l 553 372 l 374 347 q 201 294 260 332 q 143 200 143 257 q 197 101 143 136 q 321 67 250 67 m 428 819 q 388 826 404 819 q 349 847 372 833 q 326 860 338 854 q 303 867 314 867 q 285 862 292 867 q 272 846 279 857 q 246 826 261 826 l 218 826 q 202 833 208 826 q 196 849 196 840 q 224 919 196 889 q 294 950 253 950 q 335 943 318 950 q 374 922 353 936 q 397 909 385 915 q 421 903 408 903 q 438 908 432 903 q 451 924 444 913 q 463 940 457 935 q 478 944 468 944 l 506 944 q 522 938 515 944 q 528 922 528 931 q 498 851 528 882 q 428 819 468 819 z "},"æ":{"ha":1224,"x_min":60,"x_max":1153,"o":"m 308 -14 q 179 13 236 -14 q 91 88 122 40 q 60 193 60 135 q 135 345 60 285 q 335 422 210 406 l 554 453 l 554 497 q 508 615 554 574 q 365 656 461 656 q 248 628 293 656 q 190 561 203 600 q 177 538 185 544 q 157 532 169 532 l 138 532 q 116 541 125 532 q 107 563 107 550 q 135 634 107 593 q 222 706 164 675 q 365 736 281 736 q 524 703 464 736 q 613 614 585 669 q 854 736 693 736 q 1090 628 1026 736 q 1153 378 1153 521 l 1153 357 q 1144 335 1153 343 q 1121 326 1135 326 l 640 326 l 640 313 q 674 172 643 228 q 753 92 706 117 q 853 67 801 67 q 963 89 911 67 q 1046 157 1014 111 q 1065 178 1057 174 q 1088 182 1072 182 l 1104 182 q 1125 174 1117 182 q 1133 154 1133 167 q 1099 89 1133 129 q 1002 17 1065 49 q 853 -14 939 -14 q 593 139 667 -14 q 308 -14 513 -14 m 1068 404 l 1068 410 q 1014 588 1068 519 q 854 656 960 656 q 751 628 799 656 q 674 546 704 601 q 640 410 643 490 l 640 404 l 1068 404 m 322 67 q 489 133 424 67 q 554 325 554 200 l 554 372 l 375 347 q 203 294 261 332 q 144 200 144 257 q 198 101 144 136 q 322 67 251 67 z "},"ǽ":{"ha":1224,"x_min":60,"x_max":1153,"o":"m 589 826 q 567 849 567 826 q 574 867 567 860 l 669 982 q 692 1002 682 997 q 721 1007 701 1007 l 778 1007 q 804 981 804 1007 q 797 964 804 971 l 646 840 q 626 829 635 832 q 603 826 618 826 l 589 826 m 308 -14 q 179 13 236 -14 q 91 88 122 40 q 60 193 60 135 q 135 345 60 285 q 335 422 210 406 l 554 453 l 554 497 q 508 615 554 574 q 365 656 461 656 q 248 628 293 656 q 190 561 203 600 q 177 538 185 544 q 157 532 169 532 l 138 532 q 116 541 125 532 q 107 563 107 550 q 135 634 107 593 q 222 706 164 675 q 365 736 281 736 q 524 703 464 736 q 613 614 585 669 q 854 736 693 736 q 1090 628 1026 736 q 1153 378 1153 521 l 1153 357 q 1144 335 1153 343 q 1121 326 1135 326 l 640 326 l 640 313 q 674 172 643 228 q 753 92 706 117 q 853 67 801 67 q 963 89 911 67 q 1046 157 1014 111 q 1065 178 1057 174 q 1088 182 1072 182 l 1104 182 q 1125 174 1117 182 q 1133 154 1133 167 q 1099 89 1133 129 q 1002 17 1065 49 q 853 -14 939 -14 q 593 139 667 -14 q 308 -14 513 -14 m 1068 404 l 1068 410 q 1014 588 1068 519 q 854 656 960 656 q 751 628 799 656 q 674 546 704 601 q 640 410 643 490 l 640 404 l 1068 404 m 322 67 q 489 133 424 67 q 554 325 554 200 l 554 372 l 375 347 q 203 294 261 332 q 144 200 144 257 q 198 101 144 136 q 322 67 251 67 z "},"b":{"ha":806,"x_min":114,"x_max":731,"o":"m 432 -14 q 199 96 279 -14 l 199 31 q 190 8 199 17 q 168 0 182 0 l 144 0 q 122 8 131 0 q 114 31 114 17 l 114 956 q 122 978 114 969 q 144 986 131 986 l 168 986 q 190 978 182 986 q 199 956 199 969 l 199 626 q 432 736 281 736 q 653 638 582 736 q 729 400 725 540 q 731 361 731 386 q 729 322 731 336 q 653 84 725 182 q 432 -14 582 -14 m 424 67 q 588 138 536 67 q 644 322 640 210 q 646 361 646 336 q 596 573 646 490 q 424 656 546 656 q 300 621 350 656 q 225 533 250 586 q 199 419 200 479 l 197 365 l 199 311 q 258 140 203 213 q 424 67 314 67 z "},"c":{"ha":744,"x_min":78,"x_max":675,"o":"m 386 -14 q 163 70 242 -14 q 79 306 83 154 l 78 361 l 79 417 q 163 652 83 568 q 386 736 242 736 q 542 703 478 736 q 639 620 607 671 q 674 515 671 569 q 665 494 675 503 q 643 485 656 485 l 624 485 q 603 491 610 485 q 590 514 597 497 q 513 623 563 590 q 386 656 463 656 q 227 595 286 656 q 164 410 168 535 l 163 361 l 164 313 q 227 127 168 188 q 386 67 286 67 q 513 99 463 67 q 590 208 563 132 q 603 231 597 225 q 624 238 610 238 l 643 238 q 665 228 656 238 q 674 207 675 219 q 639 102 671 153 q 542 19 607 51 q 386 -14 478 -14 z "},"ć":{"ha":744,"x_min":78,"x_max":674,"o":"m 386 -14 q 163 70 242 -14 q 79 306 83 154 l 78 361 l 79 417 q 163 652 83 568 q 386 736 242 736 q 542 703 478 736 q 639 620 607 671 q 674 515 671 569 q 665 494 675 503 q 643 485 656 485 l 624 485 q 603 491 610 485 q 590 514 597 497 q 513 623 563 590 q 386 656 463 656 q 227 595 286 656 q 164 410 168 535 l 163 361 l 164 313 q 227 127 168 188 q 386 67 286 67 q 513 99 463 67 q 590 208 563 132 q 603 231 597 225 q 624 238 610 238 l 643 238 q 665 228 656 238 q 674 207 675 219 q 639 102 671 153 q 542 19 607 51 q 386 -14 478 -14 m 349 826 q 326 849 326 826 q 333 867 326 860 l 429 982 q 451 1002 442 997 q 481 1007 461 1007 l 538 1007 q 564 981 564 1007 q 557 964 564 971 l 406 840 q 386 829 394 832 q 363 826 378 826 l 349 826 z "},"č":{"ha":744,"x_min":78,"x_max":674,"o":"m 386 -14 q 163 70 242 -14 q 79 306 83 154 l 78 361 l 79 417 q 163 652 83 568 q 386 736 242 736 q 542 703 478 736 q 639 620 607 671 q 674 515 671 569 q 665 494 675 503 q 643 485 656 485 l 624 485 q 603 491 610 485 q 590 514 597 497 q 513 623 563 590 q 386 656 463 656 q 227 595 286 656 q 164 410 168 535 l 163 361 l 164 313 q 227 127 168 188 q 386 67 286 67 q 513 99 463 67 q 590 208 563 132 q 603 231 597 225 q 624 238 610 238 l 643 238 q 665 228 656 238 q 674 207 675 219 q 639 102 671 153 q 542 19 607 51 q 386 -14 478 -14 m 369 826 q 347 830 356 826 q 325 846 338 833 l 204 964 q 188 992 188 981 q 207 1007 188 1007 l 231 1007 q 250 1004 240 1007 q 265 997 260 1001 l 376 914 l 488 997 q 503 1004 493 1001 q 522 1007 513 1007 l 546 1007 q 565 992 565 1007 q 549 964 565 981 l 428 846 q 406 830 415 833 q 383 826 396 826 l 369 826 z "},"ç":{"ha":744,"x_min":78,"x_max":675,"o":"m 385 -306 q 324 -296 351 -306 q 280 -272 296 -286 q 264 -246 264 -258 q 268 -235 264 -239 l 288 -217 q 300 -211 293 -211 q 319 -220 306 -211 q 347 -235 333 -229 q 382 -242 360 -242 q 424 -226 407 -242 q 442 -186 442 -211 q 424 -148 442 -162 q 382 -133 407 -133 q 342 -140 363 -133 q 317 -147 322 -147 q 299 -139 306 -147 l 276 -115 q 272 -104 272 -111 q 277 -87 272 -97 q 283 -74 282 -78 l 313 -7 q 142 94 201 13 q 79 306 82 175 l 78 361 l 79 417 q 163 652 83 568 q 386 736 242 736 q 542 703 478 736 q 639 620 607 671 q 674 515 671 569 q 665 494 675 503 q 643 485 656 485 l 624 485 q 603 491 610 485 q 590 514 597 497 q 513 623 563 590 q 386 656 463 656 q 227 595 286 656 q 164 410 168 535 l 163 361 l 164 313 q 227 127 168 188 q 386 67 286 67 q 513 99 463 67 q 590 208 563 132 q 603 231 597 225 q 624 238 610 238 l 643 238 q 665 228 656 238 q 674 207 675 219 q 639 102 671 153 q 542 19 607 51 q 386 -14 478 -14 l 354 -81 q 407 -69 372 -69 q 483 -101 453 -69 q 513 -183 513 -133 q 479 -271 513 -236 q 385 -306 446 -306 z "},"ĉ":{"ha":744,"x_min":78,"x_max":674,"o":"m 386 -14 q 163 70 242 -14 q 79 306 83 154 l 78 361 l 79 417 q 163 652 83 568 q 386 736 242 736 q 542 703 478 736 q 639 620 607 671 q 674 515 671 569 q 665 494 675 503 q 643 485 656 485 l 624 485 q 603 491 610 485 q 590 514 597 497 q 513 623 563 590 q 386 656 463 656 q 227 595 286 656 q 164 410 168 535 l 163 361 l 164 313 q 227 127 168 188 q 386 67 286 67 q 513 99 463 67 q 590 208 563 132 q 603 231 597 225 q 624 238 610 238 l 643 238 q 665 228 656 238 q 674 207 675 219 q 639 102 671 153 q 542 19 607 51 q 386 -14 478 -14 m 207 840 q 188 856 188 840 q 204 883 188 867 l 325 1001 q 347 1017 338 1014 q 369 1021 356 1021 l 383 1021 q 406 1017 396 1021 q 428 1001 415 1014 l 549 883 q 565 856 565 867 q 546 840 565 840 l 522 840 q 503 843 513 840 q 488 850 493 846 l 376 933 l 265 850 q 250 843 260 846 q 231 840 240 840 l 207 840 z "},"ċ":{"ha":744,"x_min":78,"x_max":674,"o":"m 386 -14 q 163 70 242 -14 q 79 306 83 154 l 78 361 l 79 417 q 163 652 83 568 q 386 736 242 736 q 542 703 478 736 q 639 620 607 671 q 674 515 671 569 q 665 494 675 503 q 643 485 656 485 l 624 485 q 603 491 610 485 q 590 514 597 497 q 513 623 563 590 q 386 656 463 656 q 227 595 286 656 q 164 410 168 535 l 163 361 l 164 313 q 227 127 168 188 q 386 67 286 67 q 513 99 463 67 q 590 208 563 132 q 603 231 597 225 q 624 238 610 238 l 643 238 q 665 228 656 238 q 674 207 675 219 q 639 102 671 153 q 542 19 607 51 q 386 -14 478 -14 m 343 857 q 321 865 329 857 q 313 888 313 874 l 313 954 q 321 977 313 968 q 343 986 329 986 l 410 986 q 433 977 424 986 q 442 954 442 968 l 442 888 q 433 865 442 874 q 410 857 424 857 l 343 857 z "},"d":{"ha":806,"x_min":75,"x_max":692,"o":"m 374 -14 q 152 84 224 -14 q 76 322 81 182 l 75 361 l 76 400 q 152 638 81 540 q 374 736 224 736 q 607 626 525 736 l 607 956 q 615 978 607 969 q 638 986 624 986 l 661 986 q 683 978 675 986 q 692 956 692 969 l 692 31 q 683 8 692 17 q 661 0 675 0 l 638 0 q 615 8 624 0 q 607 31 607 17 l 607 96 q 374 -14 526 -14 m 382 67 q 547 140 492 67 q 607 311 603 213 q 608 365 608 325 q 607 419 608 406 q 581 533 606 479 q 506 621 556 586 q 382 656 456 656 q 217 584 269 656 q 161 400 165 513 l 160 361 q 210 149 160 232 q 382 67 260 67 z "},"ð":{"ha":764,"x_min":75,"x_max":683,"o":"m 379 -14 q 214 29 282 -14 q 110 147 146 72 q 75 317 75 222 q 154 560 75 467 q 379 653 233 653 q 563 599 489 653 q 472 768 531 696 l 339 717 q 321 713 329 713 q 301 719 308 713 q 294 738 294 725 l 294 764 q 301 785 294 779 q 325 799 307 792 l 411 832 q 318 914 374 868 q 294 944 294 932 q 302 965 294 957 q 322 972 310 972 l 350 972 q 400 954 378 972 q 496 864 460 901 l 625 914 q 643 918 636 918 q 663 912 656 918 q 669 893 669 906 l 669 867 q 663 845 669 851 q 639 832 657 839 l 553 799 q 649 604 615 717 q 683 322 682 492 l 683 318 q 603 78 683 171 q 379 -14 524 -14 m 379 67 q 540 137 483 67 q 599 317 597 207 l 599 322 q 542 502 599 432 q 379 572 485 572 q 217 502 274 572 q 160 322 160 432 l 160 314 q 219 136 163 206 q 379 67 276 67 z "},"ď":{"ha":806,"x_min":75,"x_max":910,"o":"m 374 -14 q 152 84 224 -14 q 76 322 81 182 l 75 361 l 76 400 q 152 638 81 540 q 374 736 224 736 q 607 626 525 736 l 607 956 q 615 978 607 969 q 638 986 624 986 l 661 986 q 683 978 675 986 q 692 956 692 969 l 692 31 q 683 8 692 17 q 661 0 675 0 l 638 0 q 615 8 624 0 q 607 31 607 17 l 607 96 q 374 -14 526 -14 m 382 67 q 547 140 492 67 q 607 311 603 213 q 608 365 608 325 q 607 419 608 406 q 581 533 606 479 q 506 621 556 586 q 382 656 456 656 q 217 584 269 656 q 161 400 165 513 l 160 361 q 210 149 160 232 q 382 67 260 67 m 788 764 q 771 772 776 764 q 768 793 765 781 l 792 949 q 826 986 796 986 l 889 986 q 904 979 899 986 q 910 964 910 972 q 904 939 910 951 l 849 793 q 834 771 842 778 q 813 764 826 764 l 788 764 z "},"đ":{"ha":806,"x_min":76,"x_max":804,"o":"m 375 -14 q 147 87 213 -14 q 78 322 82 188 l 76 361 q 138 622 76 507 q 375 736 199 736 q 608 626 526 736 l 608 793 l 528 793 q 506 801 514 793 q 497 824 497 810 l 497 843 q 506 865 497 857 q 528 874 514 874 l 608 874 l 608 956 q 617 978 608 969 q 639 986 625 986 l 663 986 q 685 978 676 986 q 693 956 693 969 l 693 874 l 774 874 q 796 865 788 874 q 804 843 804 857 l 804 824 q 796 801 804 810 q 774 793 788 793 l 693 793 l 693 31 q 685 8 693 17 q 663 0 676 0 l 639 0 q 617 8 625 0 q 608 31 608 17 l 608 96 q 375 -14 528 -14 m 383 67 q 549 140 493 67 q 608 311 604 213 q 610 365 610 325 q 608 419 610 406 q 582 533 607 479 q 507 621 557 586 q 383 656 457 656 q 219 584 271 656 q 163 400 167 513 l 161 361 l 163 322 q 219 138 167 210 q 383 67 271 67 z "},"e":{"ha":758,"x_min":75,"x_max":688,"o":"m 381 -14 q 168 73 249 -14 q 76 306 88 160 l 75 361 l 76 417 q 167 649 88 561 q 381 736 247 736 q 606 640 525 736 q 688 378 688 544 l 688 357 q 678 335 688 343 q 656 326 669 326 l 161 326 l 161 313 q 191 191 164 247 q 267 101 218 135 q 381 67 315 67 q 505 97 457 67 q 574 157 553 126 q 592 178 586 174 q 615 182 599 182 l 638 182 q 658 175 650 182 q 667 157 667 168 q 630 87 667 128 q 528 16 593 46 q 381 -14 463 -14 m 603 404 l 603 410 q 542 586 603 517 q 381 656 482 656 q 220 586 279 656 q 161 410 161 517 l 161 404 l 603 404 z "},"é":{"ha":758,"x_min":75,"x_max":688,"o":"m 381 -14 q 168 73 249 -14 q 76 306 88 160 l 75 361 l 76 417 q 167 649 88 561 q 381 736 247 736 q 606 640 525 736 q 688 378 688 544 l 688 357 q 678 335 688 343 q 656 326 669 326 l 161 326 l 161 313 q 191 191 164 247 q 267 101 218 135 q 381 67 315 67 q 505 97 457 67 q 574 157 553 126 q 592 178 586 174 q 615 182 599 182 l 638 182 q 658 175 650 182 q 667 157 667 168 q 630 87 667 128 q 528 16 593 46 q 381 -14 463 -14 m 603 404 l 603 410 q 542 586 603 517 q 381 656 482 656 q 220 586 279 656 q 161 410 161 517 l 161 404 l 603 404 m 360 826 q 338 849 338 826 q 344 867 338 860 l 440 982 q 463 1002 453 997 q 492 1007 472 1007 l 549 1007 q 575 981 575 1007 q 568 964 575 971 l 417 840 q 397 829 406 832 q 374 826 389 826 l 360 826 z "},"ĕ":{"ha":758,"x_min":75,"x_max":688,"o":"m 381 -14 q 168 73 249 -14 q 76 306 88 160 l 75 361 l 76 417 q 167 649 88 561 q 381 736 247 736 q 606 640 525 736 q 688 378 688 544 l 688 357 q 678 335 688 343 q 656 326 669 326 l 161 326 l 161 313 q 191 191 164 247 q 267 101 218 135 q 381 67 315 67 q 505 97 457 67 q 574 157 553 126 q 592 178 586 174 q 615 182 599 182 l 638 182 q 658 175 650 182 q 667 157 667 168 q 630 87 667 128 q 528 16 593 46 q 381 -14 463 -14 m 603 404 l 603 410 q 542 586 603 517 q 381 656 482 656 q 220 586 279 656 q 161 410 161 517 l 161 404 l 603 404 m 381 819 q 263 865 297 819 q 228 981 228 911 q 235 999 228 992 q 254 1007 242 1007 l 275 1007 q 294 999 288 1007 q 301 981 301 992 q 381 889 301 889 q 460 981 460 889 q 467 999 460 992 q 486 1007 474 1007 l 507 1007 q 526 999 519 1007 q 533 981 533 992 q 499 865 533 911 q 381 819 464 819 z "},"ě":{"ha":758,"x_min":75,"x_max":688,"o":"m 381 -14 q 168 73 249 -14 q 76 306 88 160 l 75 361 l 76 417 q 167 649 88 561 q 381 736 247 736 q 606 640 525 736 q 688 378 688 544 l 688 357 q 678 335 688 343 q 656 326 669 326 l 161 326 l 161 313 q 191 191 164 247 q 267 101 218 135 q 381 67 315 67 q 505 97 457 67 q 574 157 553 126 q 592 178 586 174 q 615 182 599 182 l 638 182 q 658 175 650 182 q 667 157 667 168 q 630 87 667 128 q 528 16 593 46 q 381 -14 463 -14 m 603 404 l 603 410 q 542 586 603 517 q 381 656 482 656 q 220 586 279 656 q 161 410 161 517 l 161 404 l 603 404 m 374 826 q 351 830 360 826 q 329 846 342 833 l 208 964 q 192 992 192 981 q 211 1007 192 1007 l 235 1007 q 254 1004 244 1007 q 269 997 264 1001 l 381 914 l 492 997 q 507 1004 497 1001 q 526 1007 517 1007 l 550 1007 q 569 992 569 1007 q 553 964 569 981 l 432 846 q 410 830 419 833 q 388 826 400 826 l 374 826 z "},"ê":{"ha":758,"x_min":75,"x_max":688,"o":"m 381 -14 q 168 73 249 -14 q 76 306 88 160 l 75 361 l 76 417 q 167 649 88 561 q 381 736 247 736 q 606 640 525 736 q 688 378 688 544 l 688 357 q 678 335 688 343 q 656 326 669 326 l 161 326 l 161 313 q 191 191 164 247 q 267 101 218 135 q 381 67 315 67 q 505 97 457 67 q 574 157 553 126 q 592 178 586 174 q 615 182 599 182 l 638 182 q 658 175 650 182 q 667 157 667 168 q 630 87 667 128 q 528 16 593 46 q 381 -14 463 -14 m 603 404 l 603 410 q 542 586 603 517 q 381 656 482 656 q 220 586 279 656 q 161 410 161 517 l 161 404 l 603 404 m 211 826 q 192 842 192 826 q 208 869 192 853 l 329 988 q 351 1003 342 1000 q 374 1007 360 1007 l 388 1007 q 410 1003 400 1007 q 432 988 419 1000 l 553 869 q 569 842 569 853 q 550 826 569 826 l 526 826 q 507 829 517 826 q 492 836 497 832 l 381 919 l 269 836 q 254 829 264 832 q 235 826 244 826 l 211 826 z "},"ë":{"ha":758,"x_min":75,"x_max":688,"o":"m 381 -14 q 168 73 249 -14 q 76 306 88 160 l 75 361 l 76 417 q 167 649 88 561 q 381 736 247 736 q 606 640 525 736 q 688 378 688 544 l 688 357 q 678 335 688 343 q 656 326 669 326 l 161 326 l 161 313 q 191 191 164 247 q 267 101 218 135 q 381 67 315 67 q 505 97 457 67 q 574 157 553 126 q 592 178 586 174 q 615 182 599 182 l 638 182 q 658 175 650 182 q 667 157 667 168 q 630 87 667 128 q 528 16 593 46 q 381 -14 463 -14 m 603 404 l 603 410 q 542 586 603 517 q 381 656 482 656 q 220 586 279 656 q 161 410 161 517 l 161 404 l 603 404 m 247 871 q 225 879 233 871 q 217 901 217 888 l 217 954 q 225 977 217 968 q 247 986 233 986 l 300 986 q 323 977 314 986 q 332 954 332 968 l 332 901 q 323 879 332 888 q 300 871 314 871 l 247 871 m 460 871 q 438 879 446 871 q 429 901 429 888 l 429 954 q 438 977 429 968 q 460 986 446 986 l 513 986 q 535 977 526 986 q 544 954 544 968 l 544 901 q 535 879 544 888 q 513 871 526 871 l 460 871 z "},"ė":{"ha":758,"x_min":75,"x_max":688,"o":"m 381 -14 q 168 73 249 -14 q 76 306 88 160 l 75 361 l 76 417 q 167 649 88 561 q 381 736 247 736 q 606 640 525 736 q 688 378 688 544 l 688 357 q 678 335 688 343 q 656 326 669 326 l 161 326 l 161 313 q 191 191 164 247 q 267 101 218 135 q 381 67 315 67 q 505 97 457 67 q 574 157 553 126 q 592 178 586 174 q 615 182 599 182 l 638 182 q 658 175 650 182 q 667 157 667 168 q 630 87 667 128 q 528 16 593 46 q 381 -14 463 -14 m 603 404 l 603 410 q 542 586 603 517 q 381 656 482 656 q 220 586 279 656 q 161 410 161 517 l 161 404 l 603 404 m 347 857 q 325 865 333 857 q 317 888 317 874 l 317 954 q 325 977 317 968 q 347 986 333 986 l 414 986 q 437 977 428 986 q 446 954 446 968 l 446 888 q 437 865 446 874 q 414 857 428 857 l 347 857 z "},"è":{"ha":758,"x_min":75,"x_max":688,"o":"m 381 -14 q 168 73 249 -14 q 76 306 88 160 l 75 361 l 76 417 q 167 649 88 561 q 381 736 247 736 q 606 640 525 736 q 688 378 688 544 l 688 357 q 678 335 688 343 q 656 326 669 326 l 161 326 l 161 313 q 191 191 164 247 q 267 101 218 135 q 381 67 315 67 q 505 97 457 67 q 574 157 553 126 q 592 178 586 174 q 615 182 599 182 l 638 182 q 658 175 650 182 q 667 157 667 168 q 630 87 667 128 q 528 16 593 46 q 381 -14 463 -14 m 603 404 l 603 410 q 542 586 603 517 q 381 656 482 656 q 220 586 279 656 q 161 410 161 517 l 161 404 l 603 404 m 390 826 q 367 829 375 826 q 347 840 358 832 l 196 964 q 189 981 189 971 q 215 1007 189 1007 l 272 1007 q 301 1002 292 1007 q 324 982 311 997 l 419 867 q 426 849 426 860 q 404 826 426 826 l 390 826 z "},"ē":{"ha":758,"x_min":75,"x_max":688,"o":"m 381 -14 q 168 73 249 -14 q 76 306 88 160 l 75 361 l 76 417 q 167 649 88 561 q 381 736 247 736 q 606 640 525 736 q 688 378 688 544 l 688 357 q 678 335 688 343 q 656 326 669 326 l 161 326 l 161 313 q 191 191 164 247 q 267 101 218 135 q 381 67 315 67 q 505 97 457 67 q 574 157 553 126 q 592 178 586 174 q 615 182 599 182 l 638 182 q 658 175 650 182 q 667 157 667 168 q 630 87 667 128 q 528 16 593 46 q 381 -14 463 -14 m 603 404 l 603 410 q 542 586 603 517 q 381 656 482 656 q 220 586 279 656 q 161 410 161 517 l 161 404 l 603 404 m 243 864 q 221 872 229 864 q 213 894 213 881 l 213 914 q 221 936 213 928 q 243 944 229 944 l 519 944 q 542 936 533 944 q 550 914 550 928 l 550 894 q 542 872 550 881 q 519 864 533 864 l 243 864 z "},"ę":{"ha":760,"x_min":76,"x_max":689,"o":"m 453 -306 q 319 -254 368 -306 q 269 -114 269 -203 q 296 -3 269 -46 q 143 105 200 24 q 78 306 86 186 l 76 361 l 78 417 q 169 649 89 561 q 382 736 249 736 q 608 640 526 736 q 689 378 689 544 l 689 357 q 680 335 689 343 q 657 326 671 326 l 163 326 l 163 313 q 192 191 165 247 q 268 101 219 135 q 382 67 317 67 q 506 97 458 67 q 575 157 554 126 q 594 178 588 174 q 617 182 600 182 l 639 182 q 660 175 651 182 q 668 157 668 168 q 640 98 668 132 q 561 34 613 64 q 444 -8 510 4 q 376 -42 400 -17 q 353 -114 353 -67 q 382 -197 353 -167 q 458 -226 411 -226 l 479 -226 q 501 -235 493 -226 q 510 -257 510 -243 l 510 -275 q 501 -297 510 -289 q 479 -306 493 -306 l 453 -306 m 603 404 l 603 410 q 542 586 603 517 q 381 656 482 656 q 220 586 279 656 q 161 410 161 517 l 161 404 l 603 404 z "},"f":{"ha":500,"x_min":26,"x_max":493,"o":"m 211 0 q 189 8 197 0 q 181 31 181 17 l 181 642 l 57 642 q 35 650 43 642 q 26 672 26 658 l 26 692 q 35 714 26 706 q 57 722 43 722 l 181 722 l 181 801 q 226 967 181 907 q 390 1028 272 1028 l 463 1028 q 485 1019 476 1028 q 493 997 493 1011 l 493 978 q 485 956 493 964 q 463 947 476 947 l 390 947 q 292 910 319 947 q 265 794 265 874 l 265 722 l 449 722 q 471 714 463 722 q 479 692 479 706 l 479 672 q 471 650 479 658 q 449 642 463 642 l 265 642 l 265 31 q 257 8 265 17 q 235 0 249 0 l 211 0 z "},"g":{"ha":807,"x_min":76,"x_max":693,"o":"m 382 -306 q 208 -268 274 -306 q 117 -183 143 -231 q 92 -99 92 -135 q 101 -78 92 -86 q 122 -69 110 -69 l 142 -69 q 162 -76 154 -69 q 175 -99 169 -82 q 375 -225 218 -225 q 551 -176 494 -225 q 608 0 608 -126 l 608 96 q 375 -14 528 -14 q 153 84 225 -14 q 78 322 82 182 l 76 361 l 78 400 q 153 638 82 540 q 375 736 225 736 q 608 626 526 736 l 608 690 q 617 713 608 704 q 639 722 625 722 l 661 722 q 684 713 675 722 q 693 690 693 704 l 693 14 q 624 -220 693 -135 q 382 -306 554 -306 m 383 67 q 549 140 493 67 q 608 311 604 213 q 610 361 610 325 q 608 411 610 397 q 549 583 604 510 q 383 656 493 656 q 219 584 271 656 q 163 400 167 513 l 161 361 l 163 322 q 219 138 167 210 q 383 67 271 67 z "},"ğ":{"ha":807,"x_min":76,"x_max":693,"o":"m 382 -306 q 208 -268 274 -306 q 117 -183 143 -231 q 92 -99 92 -135 q 101 -78 92 -86 q 122 -69 110 -69 l 142 -69 q 162 -76 154 -69 q 175 -99 169 -82 q 375 -225 218 -225 q 551 -176 494 -225 q 608 0 608 -126 l 608 96 q 375 -14 528 -14 q 153 84 225 -14 q 78 322 82 182 l 76 361 l 78 400 q 153 638 82 540 q 375 736 225 736 q 608 626 526 736 l 608 690 q 617 713 608 704 q 639 722 625 722 l 661 722 q 684 713 675 722 q 693 690 693 704 l 693 14 q 624 -220 693 -135 q 382 -306 554 -306 m 383 67 q 549 140 493 67 q 608 311 604 213 q 610 361 610 325 q 608 411 610 397 q 549 583 604 510 q 383 656 493 656 q 219 584 271 656 q 163 400 167 513 l 161 361 l 163 322 q 219 138 167 210 q 383 67 271 67 m 385 819 q 267 865 301 819 q 232 981 232 911 q 239 999 232 992 q 258 1007 246 1007 l 279 1007 q 299 999 292 1007 q 306 981 306 992 q 385 889 306 889 q 464 981 464 889 q 471 999 464 992 q 490 1007 478 1007 l 511 1007 q 531 999 524 1007 q 538 981 538 992 q 503 865 538 911 q 385 819 468 819 z "},"ĝ":{"ha":807,"x_min":76,"x_max":693,"o":"m 382 -306 q 208 -268 274 -306 q 117 -183 143 -231 q 92 -99 92 -135 q 101 -78 92 -86 q 122 -69 110 -69 l 142 -69 q 162 -76 154 -69 q 175 -99 169 -82 q 375 -225 218 -225 q 551 -176 494 -225 q 608 0 608 -126 l 608 96 q 375 -14 528 -14 q 153 84 225 -14 q 78 322 82 182 l 76 361 l 78 400 q 153 638 82 540 q 375 736 225 736 q 608 626 526 736 l 608 690 q 617 713 608 704 q 639 722 625 722 l 661 722 q 684 713 675 722 q 693 690 693 704 l 693 14 q 624 -220 693 -135 q 382 -306 554 -306 m 383 67 q 549 140 493 67 q 608 311 604 213 q 610 361 610 325 q 608 411 610 397 q 549 583 604 510 q 383 656 493 656 q 219 584 271 656 q 163 400 167 513 l 161 361 l 163 322 q 219 138 167 210 q 383 67 271 67 m 215 826 q 196 842 196 826 q 213 869 196 853 l 333 988 q 355 1003 346 1000 q 378 1007 364 1007 l 392 1007 q 414 1003 404 1007 q 436 988 424 1000 l 557 869 q 574 842 574 853 q 554 826 574 826 l 531 826 q 511 829 521 826 q 496 836 501 832 l 385 919 l 274 836 q 258 829 268 832 q 239 826 249 826 l 215 826 z "},"ģ":{"ha":807,"x_min":76,"x_max":693,"o":"m 451 1049 q 468 1040 463 1049 q 471 1019 474 1032 l 447 864 q 413 826 443 826 l 350 826 q 335 833 342 826 q 329 849 329 840 q 335 874 329 861 l 390 1019 q 405 1042 397 1035 q 426 1049 413 1049 l 451 1049 m 382 -306 q 208 -268 274 -306 q 117 -183 143 -231 q 92 -99 92 -135 q 101 -78 92 -86 q 122 -69 110 -69 l 142 -69 q 162 -76 154 -69 q 175 -99 169 -82 q 375 -225 218 -225 q 551 -176 494 -225 q 608 0 608 -126 l 608 96 q 375 -14 528 -14 q 153 84 225 -14 q 78 322 82 182 l 76 361 l 78 400 q 153 638 82 540 q 375 736 225 736 q 608 626 526 736 l 608 690 q 617 713 608 704 q 639 722 625 722 l 661 722 q 684 713 675 722 q 693 690 693 704 l 693 14 q 624 -220 693 -135 q 382 -306 554 -306 m 383 67 q 549 140 493 67 q 608 311 604 213 q 610 361 610 325 q 608 411 610 397 q 549 583 604 510 q 383 656 493 656 q 219 584 271 656 q 163 400 167 513 l 161 361 l 163 322 q 219 138 167 210 q 383 67 271 67 z "},"ġ":{"ha":807,"x_min":76,"x_max":693,"o":"m 382 -306 q 208 -268 274 -306 q 117 -183 143 -231 q 92 -99 92 -135 q 101 -78 92 -86 q 122 -69 110 -69 l 142 -69 q 162 -76 154 -69 q 175 -99 169 -82 q 375 -225 218 -225 q 551 -176 494 -225 q 608 0 608 -126 l 608 96 q 375 -14 528 -14 q 153 84 225 -14 q 78 322 82 182 l 76 361 l 78 400 q 153 638 82 540 q 375 736 225 736 q 608 626 526 736 l 608 690 q 617 713 608 704 q 639 722 625 722 l 661 722 q 684 713 675 722 q 693 690 693 704 l 693 14 q 624 -220 693 -135 q 382 -306 554 -306 m 383 67 q 549 140 493 67 q 608 311 604 213 q 610 361 610 325 q 608 411 610 397 q 549 583 604 510 q 383 656 493 656 q 219 584 271 656 q 163 400 167 513 l 161 361 l 163 322 q 219 138 167 210 q 383 67 271 67 m 351 857 q 329 865 338 857 q 321 888 321 874 l 321 954 q 329 977 321 968 q 351 986 338 986 l 418 986 q 441 977 432 986 q 450 954 450 968 l 450 888 q 441 865 450 874 q 418 857 432 857 l 351 857 z "},"h":{"ha":821,"x_min":114,"x_max":715,"o":"m 144 0 q 122 8 131 0 q 114 31 114 17 l 114 956 q 122 978 114 969 q 144 986 131 986 l 168 986 q 190 978 182 986 q 199 956 199 969 l 199 626 q 294 708 240 681 q 432 736 347 736 q 642 649 568 736 q 715 425 715 563 l 715 31 q 707 8 715 17 q 685 0 699 0 l 661 0 q 639 8 647 0 q 631 31 631 17 l 631 418 q 576 593 631 531 q 418 656 521 656 q 258 592 318 656 q 199 418 199 529 l 199 31 q 190 8 199 17 q 168 0 182 0 l 144 0 z "},"ħ":{"ha":819,"x_min":1,"x_max":714,"o":"m 143 0 q 121 8 129 0 q 113 31 113 17 l 113 793 l 32 793 q 10 801 18 793 q 1 824 1 810 l 1 843 q 10 865 1 857 q 32 874 18 874 l 113 874 l 113 956 q 121 978 113 969 q 143 986 129 986 l 167 986 q 189 978 181 986 q 197 956 197 969 l 197 874 l 278 874 q 300 865 292 874 q 308 843 308 857 l 308 824 q 300 801 308 810 q 278 793 292 793 l 197 793 l 197 626 q 292 708 239 681 q 431 736 346 736 q 640 649 567 736 q 714 425 714 563 l 714 31 q 706 8 714 17 q 683 0 697 0 l 660 0 q 638 8 646 0 q 629 31 629 17 l 629 418 q 574 593 629 531 q 417 656 519 656 q 257 592 317 656 q 197 418 197 529 l 197 31 q 189 8 197 17 q 167 0 181 0 l 143 0 z "},"ĥ":{"ha":821,"x_min":114,"x_max":715,"o":"m 144 0 q 122 8 131 0 q 114 31 114 17 l 114 956 q 122 978 114 969 q 144 986 131 986 l 168 986 q 190 978 182 986 q 199 956 199 969 l 199 626 q 294 708 240 681 q 432 736 347 736 q 642 649 568 736 q 715 425 715 563 l 715 31 q 707 8 715 17 q 685 0 699 0 l 661 0 q 639 8 647 0 q 631 31 631 17 l 631 418 q 576 593 631 531 q 418 656 521 656 q 258 592 318 656 q 199 418 199 529 l 199 31 q 190 8 199 17 q 168 0 182 0 l 144 0 m 244 1042 q 225 1057 225 1042 q 242 1085 225 1068 l 363 1203 q 384 1219 375 1215 q 407 1222 393 1222 l 421 1222 q 443 1219 433 1222 q 465 1203 453 1215 l 586 1085 q 603 1057 603 1068 q 583 1042 603 1042 l 560 1042 q 540 1044 550 1042 q 525 1051 531 1047 l 414 1135 l 303 1051 q 288 1044 297 1047 q 268 1042 278 1042 l 244 1042 z "},"i":{"ha":310,"x_min":97,"x_max":213,"o":"m 128 871 q 106 879 114 871 q 97 901 97 888 l 97 954 q 106 977 97 968 q 128 986 114 986 l 181 986 q 203 977 194 986 q 213 954 213 968 l 213 901 q 203 879 213 888 q 181 871 194 871 l 128 871 m 143 0 q 121 8 129 0 q 113 31 113 17 l 113 692 q 121 714 113 706 q 143 722 129 722 l 167 722 q 189 714 181 722 q 197 692 197 706 l 197 31 q 189 8 197 17 q 167 0 181 0 l 143 0 z "},"ı":{"ha":310,"x_min":113,"x_max":197,"o":"m 143 0 q 121 8 129 0 q 113 31 113 17 l 113 692 q 121 714 113 706 q 143 722 129 722 l 167 722 q 189 714 181 722 q 197 692 197 706 l 197 31 q 189 8 197 17 q 167 0 181 0 l 143 0 z "},"í":{"ha":310,"x_min":110,"x_max":347,"o":"m 143 0 q 121 8 129 0 q 113 31 113 17 l 113 692 q 121 714 113 706 q 143 722 129 722 l 167 722 q 189 714 181 722 q 197 692 197 706 l 197 31 q 189 8 197 17 q 167 0 181 0 l 143 0 m 132 826 q 110 849 110 826 q 117 867 110 860 l 213 982 q 235 1002 225 997 q 264 1007 244 1007 l 321 1007 q 347 981 347 1007 q 340 964 347 971 l 189 840 q 169 829 178 832 q 146 826 161 826 l 132 826 z "},"ĭ":{"ha":310,"x_min":1,"x_max":307,"o":"m 143 0 q 121 8 129 0 q 113 31 113 17 l 113 692 q 121 714 113 706 q 143 722 129 722 l 167 722 q 189 714 181 722 q 197 692 197 706 l 197 31 q 189 8 197 17 q 167 0 181 0 l 143 0 m 154 819 q 36 865 71 819 q 1 981 1 911 q 8 999 1 992 q 28 1007 15 1007 l 49 1007 q 68 999 61 1007 q 75 981 75 992 q 154 889 75 889 q 233 981 233 889 q 240 999 233 992 q 260 1007 247 1007 l 281 1007 q 300 999 293 1007 q 307 981 307 992 q 272 865 307 911 q 154 819 238 819 z "},"î":{"ha":310,"x_min":-35,"x_max":343,"o":"m 143 0 q 121 8 129 0 q 113 31 113 17 l 113 692 q 121 714 113 706 q 143 722 129 722 l 167 722 q 189 714 181 722 q 197 692 197 706 l 197 31 q 189 8 197 17 q 167 0 181 0 l 143 0 m -15 826 q -35 842 -35 826 q -18 869 -35 853 l 103 988 q 124 1003 115 1000 q 147 1007 133 1007 l 161 1007 q 183 1003 174 1007 q 206 988 193 1000 l 326 869 q 343 842 343 853 q 324 826 343 826 l 300 826 q 281 829 290 826 q 265 836 271 832 l 154 919 l 43 836 q 28 829 38 832 q 8 826 18 826 l -15 826 z "},"ï":{"ha":310,"x_min":-10,"x_max":318,"o":"m 143 0 q 121 8 129 0 q 113 31 113 17 l 113 692 q 121 714 113 706 q 143 722 129 722 l 167 722 q 189 714 181 722 q 197 692 197 706 l 197 31 q 189 8 197 17 q 167 0 181 0 l 143 0 m 21 871 q -1 879 7 871 q -10 901 -10 888 l -10 954 q -1 977 -10 968 q 21 986 7 986 l 74 986 q 97 977 88 986 q 106 954 106 968 l 106 901 q 97 879 106 888 q 74 871 88 871 l 21 871 m 233 871 q 211 879 219 871 q 203 901 203 888 l 203 954 q 211 977 203 968 q 233 986 219 986 l 286 986 q 309 977 300 986 q 318 954 318 968 l 318 901 q 309 879 318 888 q 286 871 300 871 l 233 871 z "},"ì":{"ha":310,"x_min":-37,"x_max":200,"o":"m 143 0 q 121 8 129 0 q 113 31 113 17 l 113 692 q 121 714 113 706 q 143 722 129 722 l 167 722 q 189 714 181 722 q 197 692 197 706 l 197 31 q 189 8 197 17 q 167 0 181 0 l 143 0 m 164 826 q 140 829 149 826 q 121 840 132 832 l -31 964 q -37 981 -37 971 q -11 1007 -37 1007 l 46 1007 q 75 1002 65 1007 q 97 982 85 997 l 193 867 q 200 849 200 860 q 178 826 200 826 l 164 826 z "},"ĳ":{"ha":633,"x_min":97,"x_max":535,"o":"m 128 871 q 106 879 114 871 q 97 901 97 888 l 97 954 q 106 977 97 968 q 128 986 114 986 l 181 986 q 203 977 194 986 q 213 954 213 968 l 213 901 q 203 879 213 888 q 181 871 194 871 l 128 871 m 143 0 q 121 8 129 0 q 113 31 113 17 l 113 692 q 121 714 113 706 q 143 722 129 722 l 167 722 q 189 714 181 722 q 197 692 197 706 l 197 31 q 189 8 197 17 q 167 0 181 0 l 143 0 m 450 871 q 428 879 436 871 q 419 901 419 888 l 419 954 q 428 977 419 968 q 450 986 436 986 l 503 986 q 526 977 517 986 q 535 954 535 968 l 535 901 q 526 879 535 888 q 503 871 517 871 l 450 871 m 304 -264 q 282 -256 290 -264 q 274 -233 274 -247 l 274 -214 q 282 -192 274 -200 q 304 -183 290 -183 l 310 -183 q 410 -144 386 -183 q 435 -31 435 -106 l 435 692 q 443 714 435 706 q 465 722 451 722 l 489 722 q 511 714 503 722 q 519 692 519 706 l 519 -31 q 474 -202 519 -140 q 310 -264 428 -264 l 304 -264 z "},"ī":{"ha":310,"x_min":-14,"x_max":324,"o":"m 143 0 q 121 8 129 0 q 113 31 113 17 l 113 692 q 121 714 113 706 q 143 722 129 722 l 167 722 q 189 714 181 722 q 197 692 197 706 l 197 31 q 189 8 197 17 q 167 0 181 0 l 143 0 m 17 864 q -6 872 3 864 q -14 894 -14 881 l -14 914 q -6 936 -14 928 q 17 944 3 944 l 293 944 q 315 936 307 944 q 324 914 324 928 l 324 894 q 315 872 324 881 q 293 864 307 864 l 17 864 z "},"į":{"ha":339,"x_min":0,"x_max":242,"o":"m 157 871 q 135 879 143 871 q 126 901 126 888 l 126 954 q 135 977 126 968 q 157 986 143 986 l 210 986 q 233 977 224 986 q 242 954 242 968 l 242 901 q 233 879 242 888 q 210 871 224 871 l 157 871 m 183 -306 q 49 -254 99 -306 q 0 -114 0 -203 q 38 13 0 -37 q 142 75 75 63 l 142 81 l 142 89 l 142 692 q 150 714 142 706 q 172 722 158 722 l 196 722 q 218 714 210 722 q 226 692 226 706 l 226 31 q 218 8 226 17 q 196 0 210 0 l 189 0 q 113 -31 142 0 q 83 -114 83 -61 q 113 -197 83 -167 q 189 -226 142 -226 l 210 -226 q 232 -235 224 -226 q 240 -257 240 -243 l 240 -275 q 232 -297 240 -289 q 210 -306 224 -306 l 183 -306 z "},"ĩ":{"ha":310,"x_min":-11,"x_max":321,"o":"m 143 0 q 121 8 129 0 q 113 31 113 17 l 113 692 q 121 714 113 706 q 143 722 129 722 l 167 722 q 189 714 181 722 q 197 692 197 706 l 197 31 q 189 8 197 17 q 167 0 181 0 l 143 0 m 221 819 q 181 826 197 819 q 142 847 165 833 q 119 860 131 854 q 96 867 107 867 q 78 862 85 867 q 65 846 72 857 q 39 826 54 826 l 11 826 q -5 833 1 826 q -11 849 -11 840 q 17 919 -11 889 q 88 950 46 950 q 128 943 111 950 q 167 922 146 936 q 190 909 178 915 q 214 903 201 903 q 231 908 225 903 q 244 924 238 913 q 256 940 250 935 q 271 944 261 944 l 299 944 q 315 938 308 944 q 321 922 321 931 q 291 851 321 882 q 221 819 261 819 z "},"j":{"ha":324,"x_min":-36,"x_max":225,"o":"m 140 871 q 118 879 126 871 q 110 901 110 888 l 110 954 q 118 977 110 968 q 140 986 126 986 l 193 986 q 216 977 207 986 q 225 954 225 968 l 225 901 q 216 879 225 888 q 193 871 207 871 l 140 871 m -6 -264 q -28 -256 -19 -264 q -36 -233 -36 -247 l -36 -214 q -28 -192 -36 -200 q -6 -183 -19 -183 l 0 -183 q 101 -144 76 -183 q 125 -31 125 -106 l 125 692 q 133 714 125 706 q 156 722 142 722 l 179 722 q 201 714 193 722 q 210 692 210 706 l 210 -31 q 164 -202 210 -140 q 0 -264 118 -264 l -6 -264 z "},"ȷ":{"ha":374,"x_min":14,"x_max":260,"o":"m 44 -264 q 22 -256 31 -264 q 14 -233 14 -247 l 14 -214 q 22 -192 14 -200 q 44 -183 31 -183 l 50 -183 q 151 -144 126 -183 q 175 -31 175 -106 l 175 642 l 58 642 q 36 650 44 642 q 28 672 28 658 l 28 692 q 36 714 28 706 q 58 722 44 722 l 229 722 q 251 714 243 722 q 260 692 260 706 l 260 -31 q 214 -202 260 -140 q 50 -264 168 -264 l 44 -264 z "},"ĵ":{"ha":374,"x_min":-28,"x_max":350,"o":"m 44 -264 q 22 -256 31 -264 q 14 -233 14 -247 l 14 -214 q 22 -192 14 -200 q 44 -183 31 -183 l 50 -183 q 151 -144 126 -183 q 175 -31 175 -106 l 175 642 l 58 642 q 36 650 44 642 q 28 672 28 658 l 28 692 q 36 714 28 706 q 58 722 44 722 l 229 722 q 251 714 243 722 q 260 692 260 706 l 260 -31 q 214 -202 260 -140 q 50 -264 168 -264 l 44 -264 m -8 826 q -28 842 -28 826 q -11 869 -28 853 l 110 988 q 131 1003 122 1000 q 154 1007 140 1007 l 168 1007 q 190 1003 181 1007 q 213 988 200 1000 l 333 869 q 350 842 350 853 q 331 826 350 826 l 307 826 q 288 829 297 826 q 272 836 278 832 l 161 919 l 50 836 q 35 829 44 832 q 15 826 25 826 l -8 826 z "},"k":{"ha":676,"x_min":114,"x_max":656,"o":"m 144 0 q 122 8 131 0 q 114 31 114 17 l 114 956 q 122 978 114 969 q 144 986 131 986 l 168 986 q 190 978 182 986 q 199 956 199 969 l 199 464 l 508 699 q 539 719 531 715 q 567 722 547 722 l 593 722 q 613 715 606 722 q 621 694 621 707 q 603 667 621 679 l 251 400 l 638 56 q 656 28 656 39 q 648 8 656 15 q 628 0 640 0 l 606 0 q 575 3 585 0 q 547 24 565 7 l 199 333 l 199 31 q 190 8 199 17 q 168 0 182 0 l 144 0 z "},"ķ":{"ha":676,"x_min":114,"x_max":656,"o":"m 144 0 q 122 8 131 0 q 114 31 114 17 l 114 956 q 122 978 114 969 q 144 986 131 986 l 168 986 q 190 978 182 986 q 199 956 199 969 l 199 464 l 508 699 q 539 719 531 715 q 567 722 547 722 l 593 722 q 613 715 606 722 q 621 694 621 707 q 603 667 621 679 l 251 400 l 638 56 q 656 28 656 39 q 648 8 656 15 q 628 0 640 0 l 606 0 q 575 3 585 0 q 547 24 565 7 l 199 333 l 199 31 q 190 8 199 17 q 168 0 182 0 l 144 0 m 269 -292 q 253 -283 258 -292 q 250 -262 247 -275 l 274 -107 q 308 -69 278 -69 l 371 -69 q 386 -76 381 -69 q 392 -92 392 -83 q 386 -117 392 -104 l 331 -262 q 316 -285 324 -278 q 294 -292 308 -292 l 269 -292 z "},"ĸ":{"ha":678,"x_min":113,"x_max":654,"o":"m 143 0 q 121 8 129 0 q 113 31 113 17 l 113 692 q 121 714 113 706 q 143 722 129 722 l 167 722 q 189 714 181 722 q 197 692 197 706 l 197 428 l 518 699 q 549 719 540 715 q 576 722 557 722 l 599 722 q 619 715 611 722 q 626 694 626 707 q 608 667 626 679 l 247 361 l 636 56 q 654 28 654 42 q 647 8 654 15 q 626 0 639 0 l 601 0 q 572 4 582 0 q 543 24 563 8 l 197 294 l 197 31 q 189 8 197 17 q 167 0 181 0 l 143 0 z "},"l":{"ha":313,"x_min":114,"x_max":199,"o":"m 144 0 q 122 8 131 0 q 114 31 114 17 l 114 956 q 122 978 114 969 q 144 986 131 986 l 168 986 q 190 978 182 986 q 199 956 199 969 l 199 31 q 190 8 199 17 q 168 0 182 0 l 144 0 z "},"ĺ":{"ha":313,"x_min":114,"x_max":360,"o":"m 144 0 q 122 8 131 0 q 114 31 114 17 l 114 956 q 122 978 114 969 q 144 986 131 986 l 168 986 q 190 978 182 986 q 199 956 199 969 l 199 31 q 190 8 199 17 q 168 0 182 0 l 144 0 m 144 1042 q 122 1064 122 1042 q 129 1082 122 1075 l 225 1197 q 247 1217 238 1213 q 276 1222 257 1222 l 333 1222 q 360 1196 360 1222 q 353 1179 360 1186 l 201 1056 q 182 1044 190 1047 q 158 1042 174 1042 l 144 1042 z "},"ľ":{"ha":347,"x_min":114,"x_max":417,"o":"m 144 0 q 122 8 131 0 q 114 31 114 17 l 114 956 q 122 978 114 969 q 144 986 131 986 l 168 986 q 190 978 182 986 q 199 956 199 969 l 199 31 q 190 8 199 17 q 168 0 182 0 l 144 0 m 294 764 q 278 772 283 764 q 275 793 272 781 l 299 949 q 333 986 303 986 l 396 986 q 411 979 406 986 q 417 964 417 972 q 411 939 417 951 l 356 793 q 341 771 349 778 q 319 764 333 764 l 294 764 z "},"ļ":{"ha":313,"x_min":68,"x_max":210,"o":"m 144 0 q 122 8 131 0 q 114 31 114 17 l 114 956 q 122 978 114 969 q 144 986 131 986 l 168 986 q 190 978 182 986 q 199 956 199 969 l 199 31 q 190 8 199 17 q 168 0 182 0 l 144 0 m 88 -292 q 71 -283 76 -292 q 68 -262 65 -275 l 92 -107 q 126 -69 96 -69 l 189 -69 q 204 -76 199 -69 q 210 -92 210 -83 q 204 -117 210 -104 l 149 -262 q 134 -285 142 -278 q 113 -292 126 -292 l 88 -292 z "},"ŀ":{"ha":356,"x_min":114,"x_max":397,"o":"m 144 0 q 122 8 131 0 q 114 31 114 17 l 114 956 q 122 978 114 969 q 144 986 131 986 l 168 986 q 190 978 182 986 q 199 956 199 969 l 199 31 q 190 8 199 17 q 168 0 182 0 l 144 0 m 299 435 q 276 443 285 435 q 268 465 268 451 l 268 532 q 276 555 268 546 q 299 564 285 564 l 365 564 q 388 555 379 564 q 397 532 397 546 l 397 465 q 388 443 397 451 q 365 435 379 435 l 299 435 z "},"ł":{"ha":343,"x_min":33,"x_max":313,"o":"m 161 0 q 139 8 147 0 q 131 31 131 17 l 131 442 l 78 422 q 60 418 67 418 q 40 424 47 418 q 33 443 33 431 l 33 469 q 40 491 33 485 q 64 504 46 497 l 131 529 l 131 956 q 139 978 131 969 q 161 986 147 986 l 185 986 q 207 978 199 986 q 215 956 215 969 l 215 561 l 268 582 q 286 586 278 586 q 306 580 299 586 q 313 561 313 574 l 313 535 q 306 513 313 519 q 282 500 300 507 l 215 474 l 215 31 q 207 8 215 17 q 185 0 199 0 l 161 0 z "},"m":{"ha":1219,"x_min":113,"x_max":1114,"o":"m 143 0 q 121 8 129 0 q 113 31 113 17 l 113 692 q 121 714 113 706 q 143 722 129 722 l 167 722 q 189 714 181 722 q 197 692 197 706 l 197 643 q 281 713 233 689 q 396 736 329 736 q 618 606 551 736 q 713 701 651 665 q 854 736 775 736 q 1042 658 969 736 q 1114 435 1114 579 l 1114 31 q 1106 8 1114 17 q 1083 0 1097 0 l 1060 0 q 1038 8 1046 0 q 1029 31 1029 17 l 1029 421 q 977 601 1029 547 q 840 656 925 656 q 710 601 765 656 q 656 421 656 546 l 656 31 q 647 8 656 17 q 625 0 639 0 l 601 0 q 579 8 588 0 q 571 31 571 17 l 571 421 q 517 601 571 546 q 382 656 463 656 q 252 601 307 656 q 197 422 197 546 l 197 31 q 189 8 197 17 q 167 0 181 0 l 143 0 z "},"n":{"ha":819,"x_min":113,"x_max":714,"o":"m 143 0 q 121 8 129 0 q 113 31 113 17 l 113 692 q 121 714 113 706 q 143 722 129 722 l 167 722 q 189 714 181 722 q 197 692 197 706 l 197 626 q 292 708 239 681 q 431 736 346 736 q 640 649 567 736 q 714 425 714 563 l 714 31 q 706 8 714 17 q 683 0 697 0 l 660 0 q 638 8 646 0 q 629 31 629 17 l 629 418 q 574 593 629 531 q 417 656 519 656 q 257 592 317 656 q 197 418 197 529 l 197 31 q 189 8 197 17 q 167 0 181 0 l 143 0 z "},"ń":{"ha":819,"x_min":113,"x_max":714,"o":"m 143 0 q 121 8 129 0 q 113 31 113 17 l 113 692 q 121 714 113 706 q 143 722 129 722 l 167 722 q 189 714 181 722 q 197 692 197 706 l 197 626 q 292 708 239 681 q 431 736 346 736 q 640 649 567 736 q 714 425 714 563 l 714 31 q 706 8 714 17 q 683 0 697 0 l 660 0 q 638 8 646 0 q 629 31 629 17 l 629 418 q 574 593 629 531 q 417 656 519 656 q 257 592 317 656 q 197 418 197 529 l 197 31 q 189 8 197 17 q 167 0 181 0 l 143 0 m 385 826 q 363 849 363 826 q 369 867 363 860 l 465 982 q 488 1002 478 997 q 517 1007 497 1007 l 574 1007 q 600 981 600 1007 q 593 964 600 971 l 442 840 q 422 829 431 832 q 399 826 414 826 l 385 826 z "},"ŉ":{"ha":819,"x_min":113,"x_max":714,"o":"m 143 0 q 121 8 129 0 q 113 31 113 17 l 113 692 q 121 714 113 706 q 143 722 129 722 l 167 722 q 189 714 181 722 q 197 692 197 706 l 197 626 q 292 708 239 681 q 431 736 346 736 q 640 649 567 736 q 714 425 714 563 l 714 31 q 706 8 714 17 q 683 0 697 0 l 660 0 q 638 8 646 0 q 629 31 629 17 l 629 418 q 574 593 629 531 q 417 656 519 656 q 257 592 317 656 q 197 418 197 529 l 197 31 q 189 8 197 17 q 167 0 181 0 l 143 0 m 143 808 q 126 817 132 808 q 124 838 121 825 l 147 993 q 182 1031 151 1031 l 244 1031 q 260 1024 254 1031 q 265 1008 265 1017 q 260 983 265 996 l 204 838 q 190 815 197 822 q 168 808 182 808 l 143 808 z "},"ň":{"ha":819,"x_min":113,"x_max":714,"o":"m 143 0 q 121 8 129 0 q 113 31 113 17 l 113 692 q 121 714 113 706 q 143 722 129 722 l 167 722 q 189 714 181 722 q 197 692 197 706 l 197 626 q 292 708 239 681 q 431 736 346 736 q 640 649 567 736 q 714 425 714 563 l 714 31 q 706 8 714 17 q 683 0 697 0 l 660 0 q 638 8 646 0 q 629 31 629 17 l 629 418 q 574 593 629 531 q 417 656 519 656 q 257 592 317 656 q 197 418 197 529 l 197 31 q 189 8 197 17 q 167 0 181 0 l 143 0 m 406 826 q 383 830 392 826 q 361 846 374 833 l 240 964 q 224 992 224 981 q 243 1007 224 1007 l 267 1007 q 286 1004 276 1007 q 301 997 296 1001 l 413 914 l 524 997 q 539 1004 529 1001 q 558 1007 549 1007 l 582 1007 q 601 992 601 1007 q 585 964 601 981 l 464 846 q 442 830 451 833 q 419 826 432 826 l 406 826 z "},"ņ":{"ha":819,"x_min":113,"x_max":714,"o":"m 143 0 q 121 8 129 0 q 113 31 113 17 l 113 692 q 121 714 113 706 q 143 722 129 722 l 167 722 q 189 714 181 722 q 197 692 197 706 l 197 626 q 292 708 239 681 q 431 736 346 736 q 640 649 567 736 q 714 425 714 563 l 714 31 q 706 8 714 17 q 683 0 697 0 l 660 0 q 638 8 646 0 q 629 31 629 17 l 629 418 q 574 593 629 531 q 417 656 519 656 q 257 592 317 656 q 197 418 197 529 l 197 31 q 189 8 197 17 q 167 0 181 0 l 143 0 m 350 -292 q 333 -283 339 -292 q 331 -262 328 -275 l 354 -107 q 389 -69 358 -69 l 451 -69 q 467 -76 461 -69 q 472 -92 472 -83 q 467 -117 472 -104 l 411 -262 q 397 -285 404 -278 q 375 -292 389 -292 l 350 -292 z "},"ŋ":{"ha":819,"x_min":113,"x_max":714,"o":"m 499 -312 q 476 -304 485 -312 q 468 -282 468 -296 l 468 -262 q 476 -240 468 -249 q 499 -232 485 -232 l 504 -232 q 605 -193 581 -232 q 629 -79 629 -154 l 629 418 q 574 593 629 531 q 417 656 519 656 q 257 592 317 656 q 197 418 197 529 l 197 31 q 189 8 197 17 q 167 0 181 0 l 143 0 q 121 8 129 0 q 113 31 113 17 l 113 692 q 121 714 113 706 q 143 722 129 722 l 167 722 q 189 714 181 722 q 197 692 197 706 l 197 626 q 292 708 239 681 q 431 736 346 736 q 640 649 567 736 q 714 425 714 563 l 714 -79 q 668 -251 714 -189 q 504 -312 622 -312 l 499 -312 z "},"ñ":{"ha":819,"x_min":113,"x_max":714,"o":"m 143 0 q 121 8 129 0 q 113 31 113 17 l 113 692 q 121 714 113 706 q 143 722 129 722 l 167 722 q 189 714 181 722 q 197 692 197 706 l 197 626 q 292 708 239 681 q 431 736 346 736 q 640 649 567 736 q 714 425 714 563 l 714 31 q 706 8 714 17 q 683 0 697 0 l 660 0 q 638 8 646 0 q 629 31 629 17 l 629 418 q 574 593 629 531 q 417 656 519 656 q 257 592 317 656 q 197 418 197 529 l 197 31 q 189 8 197 17 q 167 0 181 0 l 143 0 m 479 819 q 440 826 456 819 q 400 847 424 833 q 377 860 389 854 q 354 867 365 867 q 337 862 343 867 q 324 846 331 857 q 297 826 313 826 l 269 826 q 253 833 260 826 q 247 849 247 840 q 276 919 247 889 q 346 950 304 950 q 387 943 369 950 q 425 922 404 936 q 448 909 436 915 q 472 903 460 903 q 490 908 483 903 q 503 924 496 913 q 514 940 508 935 q 529 944 519 944 l 557 944 q 573 938 567 944 q 579 922 579 931 q 549 851 579 882 q 479 819 519 819 z "},"o":{"ha":775,"x_min":78,"x_max":697,"o":"m 388 -14 q 163 74 243 -14 q 79 303 83 163 l 78 361 l 79 419 q 163 648 83 560 q 388 736 243 736 q 612 648 532 736 q 696 419 692 560 q 697 361 697 406 q 696 303 697 317 q 612 74 692 163 q 388 -14 532 -14 m 388 67 q 547 130 486 67 q 611 310 607 193 q 613 361 613 324 q 611 413 613 399 q 547 592 607 529 q 388 656 486 656 q 228 592 289 656 q 164 413 168 529 l 163 361 l 164 310 q 228 130 168 193 q 388 67 289 67 z "},"ó":{"ha":775,"x_min":78,"x_max":697,"o":"m 388 -14 q 163 74 243 -14 q 79 303 83 163 l 78 361 l 79 419 q 163 648 83 560 q 388 736 243 736 q 612 648 532 736 q 696 419 692 560 q 697 361 697 406 q 696 303 697 317 q 612 74 692 163 q 388 -14 532 -14 m 388 67 q 547 130 486 67 q 611 310 607 193 q 613 361 613 324 q 611 413 613 399 q 547 592 607 529 q 388 656 486 656 q 228 592 289 656 q 164 413 168 529 l 163 361 l 164 310 q 228 130 168 193 q 388 67 289 67 m 364 826 q 342 849 342 826 q 349 867 342 860 l 444 982 q 467 1002 457 997 q 496 1007 476 1007 l 553 1007 q 579 981 579 1007 q 572 964 579 971 l 421 840 q 401 829 410 832 q 378 826 393 826 l 364 826 z "},"ŏ":{"ha":775,"x_min":78,"x_max":697,"o":"m 388 -14 q 163 74 243 -14 q 79 303 83 163 l 78 361 l 79 419 q 163 648 83 560 q 388 736 243 736 q 612 648 532 736 q 696 419 692 560 q 697 361 697 406 q 696 303 697 317 q 612 74 692 163 q 388 -14 532 -14 m 388 67 q 547 130 486 67 q 611 310 607 193 q 613 361 613 324 q 611 413 613 399 q 547 592 607 529 q 388 656 486 656 q 228 592 289 656 q 164 413 168 529 l 163 361 l 164 310 q 228 130 168 193 q 388 67 289 67 m 388 819 q 269 865 304 819 q 235 981 235 911 q 242 999 235 992 q 261 1007 249 1007 l 282 1007 q 301 999 294 1007 q 308 981 308 992 q 388 889 308 889 q 467 981 467 889 q 474 999 467 992 q 493 1007 481 1007 l 514 1007 q 533 999 526 1007 q 540 981 540 992 q 506 865 540 911 q 388 819 471 819 z "},"ô":{"ha":775,"x_min":78,"x_max":697,"o":"m 388 -14 q 163 74 243 -14 q 79 303 83 163 l 78 361 l 79 419 q 163 648 83 560 q 388 736 243 736 q 612 648 532 736 q 696 419 692 560 q 697 361 697 406 q 696 303 697 317 q 612 74 692 163 q 388 -14 532 -14 m 388 67 q 547 130 486 67 q 611 310 607 193 q 613 361 613 324 q 611 413 613 399 q 547 592 607 529 q 388 656 486 656 q 228 592 289 656 q 164 413 168 529 l 163 361 l 164 310 q 228 130 168 193 q 388 67 289 67 m 218 826 q 199 842 199 826 q 215 869 199 853 l 336 988 q 358 1003 349 1000 q 381 1007 367 1007 l 394 1007 q 417 1003 407 1007 q 439 988 426 1000 l 560 869 q 576 842 576 853 q 557 826 576 826 l 533 826 q 514 829 524 826 q 499 836 504 832 l 388 919 l 276 836 q 261 829 271 832 q 242 826 251 826 l 218 826 z "},"ö":{"ha":775,"x_min":78,"x_max":697,"o":"m 388 -14 q 163 74 243 -14 q 79 303 83 163 l 78 361 l 79 419 q 163 648 83 560 q 388 736 243 736 q 612 648 532 736 q 696 419 692 560 q 697 361 697 406 q 696 303 697 317 q 612 74 692 163 q 388 -14 532 -14 m 388 67 q 547 130 486 67 q 611 310 607 193 q 613 361 613 324 q 611 413 613 399 q 547 592 607 529 q 388 656 486 656 q 228 592 289 656 q 164 413 168 529 l 163 361 l 164 310 q 228 130 168 193 q 388 67 289 67 m 254 871 q 232 879 240 871 q 224 901 224 888 l 224 954 q 232 977 224 968 q 254 986 240 986 l 307 986 q 330 977 321 986 q 339 954 339 968 l 339 901 q 330 879 339 888 q 307 871 321 871 l 254 871 m 467 871 q 444 879 453 871 q 436 901 436 888 l 436 954 q 444 977 436 968 q 467 986 453 986 l 519 986 q 542 977 533 986 q 551 954 551 968 l 551 901 q 542 879 551 888 q 519 871 533 871 l 467 871 z "},"ò":{"ha":775,"x_min":78,"x_max":697,"o":"m 388 -14 q 163 74 243 -14 q 79 303 83 163 l 78 361 l 79 419 q 163 648 83 560 q 388 736 243 736 q 612 648 532 736 q 696 419 692 560 q 697 361 697 406 q 696 303 697 317 q 612 74 692 163 q 388 -14 532 -14 m 388 67 q 547 130 486 67 q 611 310 607 193 q 613 361 613 324 q 611 413 613 399 q 547 592 607 529 q 388 656 486 656 q 228 592 289 656 q 164 413 168 529 l 163 361 l 164 310 q 228 130 168 193 q 388 67 289 67 m 397 826 q 374 829 382 826 q 354 840 365 832 l 203 964 q 196 981 196 971 q 222 1007 196 1007 l 279 1007 q 308 1002 299 1007 q 331 982 318 997 l 426 867 q 433 849 433 860 q 411 826 433 826 l 397 826 z "},"ő":{"ha":775,"x_min":78,"x_max":697,"o":"m 388 -14 q 163 74 243 -14 q 79 303 83 163 l 78 361 l 79 419 q 163 648 83 560 q 388 736 243 736 q 612 648 532 736 q 696 419 692 560 q 697 361 697 406 q 696 303 697 317 q 612 74 692 163 q 388 -14 532 -14 m 388 67 q 547 130 486 67 q 611 310 607 193 q 613 361 613 324 q 611 413 613 399 q 547 592 607 529 q 388 656 486 656 q 228 592 289 656 q 164 413 168 529 l 163 361 l 164 310 q 228 130 168 193 q 388 67 289 67 m 264 826 q 242 849 242 826 q 249 869 242 856 l 299 981 q 317 1001 306 994 q 350 1007 329 1007 l 399 1007 q 419 1000 411 1007 q 426 981 426 993 q 418 963 426 971 l 319 846 q 278 826 303 826 l 264 826 m 463 826 q 440 849 440 826 q 447 869 440 856 l 497 981 q 516 1001 504 994 q 549 1007 528 1007 l 597 1007 q 617 1000 610 1007 q 625 981 625 993 q 617 963 625 971 l 518 846 q 476 826 501 826 l 463 826 z "},"ō":{"ha":775,"x_min":78,"x_max":697,"o":"m 388 -14 q 163 74 243 -14 q 79 303 83 163 l 78 361 l 79 419 q 163 648 83 560 q 388 736 243 736 q 612 648 532 736 q 696 419 692 560 q 697 361 697 406 q 696 303 697 317 q 612 74 692 163 q 388 -14 532 -14 m 388 67 q 547 130 486 67 q 611 310 607 193 q 613 361 613 324 q 611 413 613 399 q 547 592 607 529 q 388 656 486 656 q 228 592 289 656 q 164 413 168 529 l 163 361 l 164 310 q 228 130 168 193 q 388 67 289 67 m 250 864 q 228 872 236 864 q 219 894 219 881 l 219 914 q 228 936 219 928 q 250 944 236 944 l 526 944 q 549 936 540 944 q 557 914 557 928 l 557 894 q 549 872 557 881 q 526 864 540 864 l 250 864 z "},"ø":{"ha":825,"x_min":21,"x_max":804,"o":"m 413 -14 q 217 45 289 -14 q 118 200 144 104 l 65 179 q 47 175 54 175 q 28 181 35 175 q 21 200 21 188 l 21 226 q 27 248 21 242 q 51 261 33 254 l 106 282 q 103 360 103 308 q 104 419 103 400 q 182 644 108 551 q 413 736 256 736 q 610 675 538 736 q 707 515 682 614 l 760 536 q 778 540 771 540 q 797 534 790 540 q 804 515 804 528 l 804 489 q 798 467 804 474 q 774 454 792 461 l 719 433 q 722 356 722 397 l 721 303 q 643 78 717 171 q 413 -14 569 -14 m 628 485 q 551 614 610 572 q 413 656 493 656 q 256 598 318 656 q 189 419 193 540 l 188 369 l 189 314 l 628 485 m 413 67 q 569 124 507 67 q 636 303 632 182 q 638 349 638 314 q 636 401 638 386 l 197 231 q 276 107 218 147 q 413 67 333 67 z "},"ǿ":{"ha":825,"x_min":21,"x_max":804,"o":"m 389 826 q 367 849 367 826 q 374 867 367 860 l 469 982 q 492 1002 482 997 q 521 1007 501 1007 l 578 1007 q 604 981 604 1007 q 597 964 604 971 l 446 840 q 426 829 435 832 q 403 826 418 826 l 389 826 m 413 -14 q 217 45 289 -14 q 118 200 144 104 l 65 179 q 47 175 54 175 q 28 181 35 175 q 21 200 21 188 l 21 226 q 27 248 21 242 q 51 261 33 254 l 106 282 q 103 360 103 308 q 104 419 103 400 q 182 644 108 551 q 413 736 256 736 q 610 675 538 736 q 707 515 682 614 l 760 536 q 778 540 771 540 q 797 534 790 540 q 804 515 804 528 l 804 489 q 798 467 804 474 q 774 454 792 461 l 719 433 q 722 356 722 397 l 721 303 q 643 78 717 171 q 413 -14 569 -14 m 628 485 q 551 614 610 572 q 413 656 493 656 q 256 598 318 656 q 189 419 193 540 l 188 369 l 189 314 l 628 485 m 413 67 q 569 124 507 67 q 636 303 632 182 q 638 349 638 314 q 636 401 638 386 l 197 231 q 276 107 218 147 q 413 67 333 67 z "},"õ":{"ha":775,"x_min":78,"x_max":697,"o":"m 388 -14 q 163 74 243 -14 q 79 303 83 163 l 78 361 l 79 419 q 163 648 83 560 q 388 736 243 736 q 612 648 532 736 q 696 419 692 560 q 697 361 697 406 q 696 303 697 317 q 612 74 692 163 q 388 -14 532 -14 m 388 67 q 547 130 486 67 q 611 310 607 193 q 613 361 613 324 q 611 413 613 399 q 547 592 607 529 q 388 656 486 656 q 228 592 289 656 q 164 413 168 529 l 163 361 l 164 310 q 228 130 168 193 q 388 67 289 67 m 454 819 q 415 826 431 819 q 375 847 399 833 q 352 860 364 854 q 329 867 340 867 q 312 862 318 867 q 299 846 306 857 q 272 826 288 826 l 244 826 q 228 833 235 826 q 222 849 222 840 q 251 919 222 889 q 321 950 279 950 q 362 943 344 950 q 400 922 379 936 q 423 909 411 915 q 447 903 435 903 q 465 908 458 903 q 478 924 471 913 q 489 940 483 935 q 504 944 494 944 l 532 944 q 548 938 542 944 q 554 922 554 931 q 524 851 554 882 q 454 819 494 819 z "},"œ":{"ha":1293,"x_min":79,"x_max":1226,"o":"m 389 -14 q 165 74 244 -14 q 81 303 85 163 l 79 361 l 81 419 q 165 648 85 560 q 389 736 244 736 q 554 695 486 736 q 658 581 622 654 q 763 695 697 654 q 919 736 829 736 q 1145 640 1064 736 q 1226 378 1226 544 l 1226 357 q 1217 335 1226 343 q 1194 326 1208 326 l 700 326 l 700 313 q 730 191 703 247 q 806 101 757 135 q 919 67 854 67 q 1038 97 992 67 q 1106 157 1085 126 q 1124 178 1118 174 q 1147 182 1131 182 l 1169 182 q 1190 175 1182 182 q 1199 157 1199 168 q 1163 87 1199 128 q 1063 16 1126 46 q 919 -14 999 -14 q 764 26 831 -14 q 658 140 697 67 q 554 26 622 67 q 389 -14 486 -14 m 389 67 q 548 130 488 67 q 613 310 608 193 q 614 361 614 324 q 613 413 614 399 q 548 592 608 529 q 389 656 488 656 q 230 592 290 656 q 165 413 169 529 l 164 361 l 165 310 q 230 130 169 193 q 389 67 290 67 m 1142 404 l 1142 410 q 1081 586 1142 517 q 919 656 1021 656 q 759 586 818 656 q 700 410 700 517 l 700 404 l 1142 404 z "},"p":{"ha":807,"x_min":114,"x_max":731,"o":"m 144 -264 q 122 -256 131 -264 q 114 -233 114 -247 l 114 692 q 122 714 114 706 q 144 722 131 722 l 168 722 q 190 714 182 722 q 199 692 199 706 l 199 626 q 432 736 279 736 q 653 641 582 736 q 729 407 725 546 q 731 361 731 393 q 729 315 731 329 q 653 81 725 176 q 432 -14 582 -14 q 199 96 281 -14 l 199 -233 q 190 -256 199 -247 q 168 -264 182 -264 l 144 -264 m 424 67 q 588 138 536 67 q 644 322 640 210 q 646 361 646 336 q 596 573 646 490 q 424 656 546 656 q 258 583 314 656 q 199 411 203 510 l 197 357 l 199 303 q 225 190 200 243 q 300 101 250 136 q 424 67 350 67 z "},"þ":{"ha":807,"x_min":114,"x_max":731,"o":"m 144 -264 q 122 -256 131 -264 q 114 -233 114 -247 l 114 956 q 122 978 114 969 q 144 986 131 986 l 168 986 q 190 978 182 986 q 199 956 199 969 l 199 626 q 432 736 279 736 q 653 641 582 736 q 729 407 725 546 q 731 361 731 393 q 729 315 731 329 q 653 81 725 176 q 432 -14 582 -14 q 199 96 281 -14 l 199 -233 q 190 -256 199 -247 q 168 -264 182 -264 l 144 -264 m 424 67 q 588 138 536 67 q 644 322 640 210 q 646 361 646 336 q 596 573 646 490 q 424 656 546 656 q 258 583 314 656 q 199 411 203 510 l 197 357 l 199 303 q 225 190 200 243 q 300 101 250 136 q 424 67 350 67 z "},"q":{"ha":807,"x_min":76,"x_max":693,"o":"m 639 -264 q 617 -256 625 -264 q 608 -233 608 -247 l 608 96 q 375 -14 526 -14 q 153 81 225 -14 q 78 315 82 176 l 76 361 l 78 407 q 153 641 82 546 q 375 736 225 736 q 608 626 528 736 l 608 692 q 617 714 608 706 q 639 722 625 722 l 663 722 q 685 714 676 722 q 693 692 693 706 l 693 -233 q 685 -256 693 -247 q 663 -264 676 -264 l 639 -264 m 383 67 q 507 101 457 67 q 582 190 557 136 q 608 303 607 243 q 610 357 610 317 q 608 411 610 397 q 549 583 604 510 q 383 656 493 656 q 219 584 271 656 q 163 400 167 513 l 161 361 q 211 149 161 232 q 383 67 261 67 z "},"r":{"ha":483,"x_min":113,"x_max":468,"o":"m 143 0 q 121 8 129 0 q 113 31 113 17 l 113 690 q 121 713 113 704 q 143 722 129 722 l 165 722 q 188 713 179 722 q 197 690 197 704 l 197 626 q 386 722 247 722 l 438 722 q 460 714 451 722 q 468 692 468 706 l 468 672 q 460 650 468 658 q 438 642 451 642 l 378 642 q 246 593 294 642 q 197 461 197 544 l 197 31 q 188 8 197 17 q 165 0 179 0 l 143 0 z "},"ŕ":{"ha":483,"x_min":113,"x_max":468,"o":"m 143 0 q 121 8 129 0 q 113 31 113 17 l 113 690 q 121 713 113 704 q 143 722 129 722 l 165 722 q 188 713 179 722 q 197 690 197 704 l 197 626 q 386 722 247 722 l 438 722 q 460 714 451 722 q 468 692 468 706 l 468 672 q 460 650 468 658 q 438 642 451 642 l 378 642 q 246 593 294 642 q 197 461 197 544 l 197 31 q 188 8 197 17 q 165 0 179 0 l 143 0 m 246 826 q 224 849 224 826 q 231 867 224 860 l 326 982 q 349 1002 339 997 q 378 1007 358 1007 l 435 1007 q 461 981 461 1007 q 454 964 461 971 l 303 840 q 283 829 292 832 q 260 826 275 826 l 246 826 z "},"ř":{"ha":483,"x_min":69,"x_max":468,"o":"m 143 0 q 121 8 129 0 q 113 31 113 17 l 113 690 q 121 713 113 704 q 143 722 129 722 l 165 722 q 188 713 179 722 q 197 690 197 704 l 197 626 q 386 722 247 722 l 438 722 q 460 714 451 722 q 468 692 468 706 l 468 672 q 460 650 468 658 q 438 642 451 642 l 378 642 q 246 593 294 642 q 197 461 197 544 l 197 31 q 188 8 197 17 q 165 0 179 0 l 143 0 m 251 826 q 228 830 238 826 q 207 846 219 833 l 86 964 q 69 992 69 981 q 89 1007 69 1007 l 113 1007 q 132 1004 122 1007 q 147 997 142 1001 l 258 914 l 369 997 q 385 1004 375 1001 q 404 1007 394 1007 l 428 1007 q 447 992 447 1007 q 431 964 447 981 l 310 846 q 288 830 297 833 q 265 826 278 826 l 251 826 z "},"ŗ":{"ha":483,"x_min":57,"x_max":468,"o":"m 143 0 q 121 8 129 0 q 113 31 113 17 l 113 690 q 121 713 113 704 q 143 722 129 722 l 165 722 q 188 713 179 722 q 197 690 197 704 l 197 626 q 386 722 247 722 l 438 722 q 460 714 451 722 q 468 692 468 706 l 468 672 q 460 650 468 658 q 438 642 451 642 l 378 642 q 246 593 294 642 q 197 461 197 544 l 197 31 q 188 8 197 17 q 165 0 179 0 l 143 0 m 76 -292 q 60 -283 65 -292 q 57 -262 54 -275 l 81 -107 q 115 -69 85 -69 l 178 -69 q 193 -76 188 -69 q 199 -92 199 -83 q 193 -117 199 -104 l 138 -262 q 123 -285 131 -278 q 101 -292 115 -292 l 76 -292 z "},"s":{"ha":683,"x_min":65,"x_max":618,"o":"m 342 -14 q 190 17 251 -14 q 97 86 128 47 q 65 149 65 125 q 75 169 65 161 q 96 176 85 176 l 117 176 q 133 173 126 176 q 147 158 139 169 q 222 91 178 115 q 342 67 265 67 q 481 99 428 67 q 533 193 533 132 q 512 254 533 231 q 442 295 490 278 q 300 335 394 313 q 131 411 176 363 q 86 535 86 460 q 115 632 86 586 q 199 707 143 678 q 335 736 256 736 q 476 708 418 736 q 562 642 533 679 q 590 581 590 604 q 581 560 590 568 q 560 553 572 553 l 539 553 q 508 571 519 553 q 445 634 481 613 q 335 656 410 656 q 213 622 254 656 q 171 535 171 589 q 188 479 171 501 q 250 438 204 457 q 383 400 296 419 q 565 322 513 371 q 618 193 618 274 q 586 89 618 136 q 492 14 554 42 q 342 -14 429 -14 z "},"ś":{"ha":683,"x_min":65,"x_max":618,"o":"m 342 -14 q 190 17 251 -14 q 97 86 128 47 q 65 149 65 125 q 75 169 65 161 q 96 176 85 176 l 117 176 q 133 173 126 176 q 147 158 139 169 q 222 91 178 115 q 342 67 265 67 q 481 99 428 67 q 533 193 533 132 q 512 254 533 231 q 442 295 490 278 q 300 335 394 313 q 131 411 176 363 q 86 535 86 460 q 115 632 86 586 q 199 707 143 678 q 335 736 256 736 q 476 708 418 736 q 562 642 533 679 q 590 581 590 604 q 581 560 590 568 q 560 553 572 553 l 539 553 q 508 571 519 553 q 445 634 481 613 q 335 656 410 656 q 213 622 254 656 q 171 535 171 589 q 188 479 171 501 q 250 438 204 457 q 383 400 296 419 q 565 322 513 371 q 618 193 618 274 q 586 89 618 136 q 492 14 554 42 q 342 -14 429 -14 m 307 826 q 285 849 285 826 q 292 867 285 860 l 388 982 q 410 1002 400 997 q 439 1007 419 1007 l 496 1007 q 522 981 522 1007 q 515 964 522 971 l 364 840 q 344 829 353 832 q 321 826 336 826 l 307 826 z "},"š":{"ha":683,"x_min":65,"x_max":618,"o":"m 342 -14 q 190 17 251 -14 q 97 86 128 47 q 65 149 65 125 q 75 169 65 161 q 96 176 85 176 l 117 176 q 133 173 126 176 q 147 158 139 169 q 222 91 178 115 q 342 67 265 67 q 481 99 428 67 q 533 193 533 132 q 512 254 533 231 q 442 295 490 278 q 300 335 394 313 q 131 411 176 363 q 86 535 86 460 q 115 632 86 586 q 199 707 143 678 q 335 736 256 736 q 476 708 418 736 q 562 642 533 679 q 590 581 590 604 q 581 560 590 568 q 560 553 572 553 l 539 553 q 508 571 519 553 q 445 634 481 613 q 335 656 410 656 q 213 622 254 656 q 171 535 171 589 q 188 479 171 501 q 250 438 204 457 q 383 400 296 419 q 565 322 513 371 q 618 193 618 274 q 586 89 618 136 q 492 14 554 42 q 342 -14 429 -14 m 333 826 q 310 830 319 826 q 289 846 301 833 l 168 964 q 151 992 151 981 q 171 1007 151 1007 l 194 1007 q 214 1004 204 1007 q 229 997 224 1001 l 340 914 l 451 997 q 467 1004 457 1001 q 486 1007 476 1007 l 510 1007 q 529 992 529 1007 q 513 964 529 981 l 392 846 q 369 830 379 833 q 347 826 360 826 l 333 826 z "},"ş":{"ha":683,"x_min":65,"x_max":618,"o":"m 340 -306 q 279 -296 307 -306 q 235 -272 251 -286 q 219 -246 219 -258 q 224 -235 219 -239 l 243 -217 q 256 -211 249 -211 q 275 -220 261 -211 q 302 -235 289 -229 q 338 -242 315 -242 q 380 -226 363 -242 q 397 -186 397 -211 q 380 -148 397 -162 q 338 -133 363 -133 q 298 -140 318 -133 q 272 -147 278 -147 q 254 -139 261 -147 l 232 -115 q 228 -104 228 -111 q 233 -87 228 -97 q 239 -74 238 -78 l 268 -7 q 156 34 201 4 q 88 97 110 64 q 65 149 65 129 q 75 169 65 161 q 96 176 85 176 l 117 176 q 133 173 126 176 q 147 158 139 169 q 222 91 178 115 q 342 67 265 67 q 481 99 428 67 q 533 193 533 132 q 512 254 533 231 q 442 295 490 278 q 300 335 394 313 q 131 411 176 363 q 86 535 86 460 q 115 632 86 586 q 199 707 143 678 q 335 736 256 736 q 476 708 418 736 q 562 642 533 679 q 590 581 590 604 q 581 560 590 568 q 560 553 572 553 l 539 553 q 508 571 519 553 q 445 634 481 613 q 335 656 410 656 q 213 622 254 656 q 171 535 171 589 q 188 479 171 501 q 250 438 204 457 q 383 400 296 419 q 565 322 513 371 q 618 193 618 274 q 586 89 618 136 q 492 14 554 42 q 342 -14 429 -14 l 310 -81 q 363 -69 328 -69 q 438 -101 408 -69 q 468 -183 468 -133 q 435 -271 468 -236 q 340 -306 401 -306 z "},"ŝ":{"ha":683,"x_min":65,"x_max":618,"o":"m 342 -14 q 190 17 251 -14 q 97 86 128 47 q 65 149 65 125 q 75 169 65 161 q 96 176 85 176 l 117 176 q 133 173 126 176 q 147 158 139 169 q 222 91 178 115 q 342 67 265 67 q 481 99 428 67 q 533 193 533 132 q 512 254 533 231 q 442 295 490 278 q 300 335 394 313 q 131 411 176 363 q 86 535 86 460 q 115 632 86 586 q 199 707 143 678 q 335 736 256 736 q 476 708 418 736 q 562 642 533 679 q 590 581 590 604 q 581 560 590 568 q 560 553 572 553 l 539 553 q 508 571 519 553 q 445 634 481 613 q 335 656 410 656 q 213 622 254 656 q 171 535 171 589 q 188 479 171 501 q 250 438 204 457 q 383 400 296 419 q 565 322 513 371 q 618 193 618 274 q 586 89 618 136 q 492 14 554 42 q 342 -14 429 -14 m 171 826 q 151 842 151 826 q 168 869 151 853 l 289 988 q 310 1003 301 1000 q 333 1007 319 1007 l 347 1007 q 369 1003 360 1007 q 392 988 379 1000 l 513 869 q 529 842 529 853 q 510 826 529 826 l 486 826 q 467 829 476 826 q 451 836 457 832 l 340 919 l 229 836 q 214 829 224 832 q 194 826 204 826 l 171 826 z "},"ș":{"ha":683,"x_min":65,"x_max":618,"o":"m 342 -14 q 190 17 251 -14 q 97 86 128 47 q 65 149 65 125 q 75 169 65 161 q 96 176 85 176 l 117 176 q 133 173 126 176 q 147 158 139 169 q 222 91 178 115 q 342 67 265 67 q 481 99 428 67 q 533 193 533 132 q 512 254 533 231 q 442 295 490 278 q 300 335 394 313 q 131 411 176 363 q 86 535 86 460 q 115 632 86 586 q 199 707 143 678 q 335 736 256 736 q 476 708 418 736 q 562 642 533 679 q 590 581 590 604 q 581 560 590 568 q 560 553 572 553 l 539 553 q 508 571 519 553 q 445 634 481 613 q 335 656 410 656 q 213 622 254 656 q 171 535 171 589 q 188 479 171 501 q 250 438 204 457 q 383 400 296 419 q 565 322 513 371 q 618 193 618 274 q 586 89 618 136 q 492 14 554 42 q 342 -14 429 -14 m 274 -292 q 257 -283 263 -292 q 254 -262 251 -275 l 278 -107 q 313 -69 282 -69 l 375 -69 q 390 -76 385 -69 q 396 -92 396 -83 q 390 -117 396 -104 l 335 -262 q 320 -285 328 -278 q 299 -292 313 -292 l 274 -292 z "},"ß":{"ha":789,"x_min":114,"x_max":717,"o":"m 144 0 q 122 8 131 0 q 114 31 114 17 l 114 697 q 183 904 114 822 q 394 986 253 986 q 553 949 489 986 q 647 855 617 913 q 676 733 676 797 q 639 599 676 651 q 551 524 601 546 q 717 281 717 471 q 685 149 717 214 q 586 42 654 85 q 417 0 518 0 l 313 0 q 290 8 299 0 q 282 31 282 17 l 282 50 q 290 72 282 64 q 313 81 299 81 l 403 81 q 572 137 513 81 q 632 281 632 193 q 572 426 632 369 q 403 482 513 482 l 313 482 q 290 490 299 482 q 282 513 282 499 l 282 532 q 290 554 282 546 q 313 563 299 563 l 389 563 q 592 733 592 564 q 537 857 592 808 q 394 906 482 906 q 251 851 303 906 q 199 690 199 796 l 199 31 q 190 8 199 17 q 168 0 182 0 l 144 0 z "},"ſ":{"ha":378,"x_min":26,"x_max":493,"o":"m 211 0 q 189 8 197 0 q 181 31 181 17 l 181 642 l 57 642 q 35 650 43 642 q 26 672 26 658 l 26 692 q 35 714 26 706 q 57 722 43 722 l 181 722 l 181 794 q 226 966 181 904 q 390 1028 272 1028 l 463 1028 q 485 1019 476 1028 q 493 997 493 1011 l 493 978 q 485 956 493 964 q 463 947 476 947 l 390 947 q 290 908 314 947 q 265 794 265 869 l 265 31 q 257 8 265 17 q 235 0 249 0 l 211 0 z "},"t":{"ha":499,"x_min":28,"x_max":468,"o":"m 356 0 q 210 62 253 0 q 167 232 167 124 l 167 642 l 58 642 q 36 650 44 642 q 28 672 28 658 l 28 692 q 36 714 28 706 q 58 722 44 722 l 167 722 l 167 956 q 175 978 167 969 q 197 986 183 986 l 221 986 q 243 978 235 986 q 251 956 251 969 l 251 722 l 424 722 q 446 714 438 722 q 454 692 454 706 l 454 672 q 446 650 454 658 q 424 642 438 642 l 251 642 l 251 238 q 277 120 251 160 q 363 81 303 81 l 438 81 q 460 72 451 81 q 468 50 468 64 l 468 31 q 460 8 468 17 q 438 0 451 0 l 356 0 z "},"ŧ":{"ha":510,"x_min":35,"x_max":475,"o":"m 363 0 q 217 62 260 0 q 174 232 174 124 l 174 422 l 65 422 q 43 431 51 422 q 35 453 35 439 l 35 472 q 43 494 35 486 q 65 503 51 503 l 174 503 l 174 642 l 65 642 q 43 650 51 642 q 35 672 35 658 l 35 692 q 43 714 35 706 q 65 722 51 722 l 174 722 l 174 956 q 182 978 174 969 q 204 986 190 986 l 228 986 q 250 978 242 986 q 258 956 258 969 l 258 722 l 431 722 q 453 714 444 722 q 461 692 461 706 l 461 672 q 453 650 461 658 q 431 642 444 642 l 258 642 l 258 503 l 431 503 q 453 494 444 503 q 461 472 461 486 l 461 453 q 453 431 461 439 q 431 422 444 422 l 258 422 l 258 238 q 284 120 258 160 q 369 81 310 81 l 444 81 q 467 72 458 81 q 475 50 475 64 l 475 31 q 467 8 475 17 q 444 0 458 0 l 363 0 z "},"ť":{"ha":451,"x_min":28,"x_max":521,"o":"m 356 0 q 210 62 253 0 q 167 232 167 124 l 167 642 l 58 642 q 36 650 44 642 q 28 672 28 658 l 28 692 q 36 714 28 706 q 58 722 44 722 l 167 722 l 167 956 q 175 978 167 969 q 197 986 183 986 l 221 986 q 243 978 235 986 q 251 956 251 969 l 251 722 l 424 722 q 446 714 438 722 q 454 692 454 706 l 454 672 q 446 650 454 658 q 424 642 438 642 l 251 642 l 251 238 q 277 120 251 160 q 363 81 303 81 l 438 81 q 460 72 451 81 q 468 50 468 64 l 468 31 q 460 8 468 17 q 438 0 451 0 l 356 0 m 399 847 q 382 856 388 847 q 379 876 376 864 l 403 1032 q 438 1069 407 1069 l 500 1069 q 515 1063 510 1069 q 521 1047 521 1056 q 515 1022 521 1035 l 460 876 q 445 854 453 861 q 424 847 438 847 l 399 847 z "},"ț":{"ha":499,"x_min":28,"x_max":468,"o":"m 356 0 q 210 62 253 0 q 167 232 167 124 l 167 642 l 58 642 q 36 650 44 642 q 28 672 28 658 l 28 692 q 36 714 28 706 q 58 722 44 722 l 167 722 l 167 956 q 175 978 167 969 q 197 986 183 986 l 221 986 q 243 978 235 986 q 251 956 251 969 l 251 722 l 424 722 q 446 714 438 722 q 454 692 454 706 l 454 672 q 446 650 454 658 q 424 642 438 642 l 251 642 l 251 238 q 277 120 251 160 q 363 81 303 81 l 438 81 q 460 72 451 81 q 468 50 468 64 l 468 31 q 460 8 468 17 q 438 0 451 0 l 356 0 m 151 -292 q 135 -283 140 -292 q 132 -262 129 -275 l 156 -107 q 190 -69 160 -69 l 253 -69 q 268 -76 263 -69 q 274 -92 274 -83 q 268 -117 274 -104 l 213 -262 q 198 -285 206 -278 q 176 -292 190 -292 l 151 -292 z "},"u":{"ha":813,"x_min":106,"x_max":700,"o":"m 383 -14 q 176 72 247 -14 q 106 297 106 158 l 106 692 q 114 714 106 706 q 136 722 122 722 l 160 722 q 182 714 174 722 q 190 692 190 706 l 190 304 q 397 67 190 67 q 556 130 497 67 q 615 304 615 193 l 615 692 q 624 714 615 706 q 646 722 632 722 l 669 722 q 692 714 683 722 q 700 692 700 706 l 700 31 q 692 8 700 17 q 669 0 683 0 l 646 0 q 624 8 632 0 q 615 31 615 17 l 615 96 q 520 14 574 42 q 383 -14 467 -14 z "},"ú":{"ha":813,"x_min":106,"x_max":700,"o":"m 383 -14 q 176 72 247 -14 q 106 297 106 158 l 106 692 q 114 714 106 706 q 136 722 122 722 l 160 722 q 182 714 174 722 q 190 692 190 706 l 190 304 q 397 67 190 67 q 556 130 497 67 q 615 304 615 193 l 615 692 q 624 714 615 706 q 646 722 632 722 l 669 722 q 692 714 683 722 q 700 692 700 706 l 700 31 q 692 8 700 17 q 669 0 683 0 l 646 0 q 624 8 632 0 q 615 31 615 17 l 615 96 q 520 14 574 42 q 383 -14 467 -14 m 376 826 q 354 849 354 826 q 361 867 354 860 l 457 982 q 479 1002 469 997 q 508 1007 489 1007 l 565 1007 q 592 981 592 1007 q 585 964 592 971 l 433 840 q 414 829 422 832 q 390 826 406 826 l 376 826 z "},"ŭ":{"ha":813,"x_min":106,"x_max":700,"o":"m 383 -14 q 176 72 247 -14 q 106 297 106 158 l 106 692 q 114 714 106 706 q 136 722 122 722 l 160 722 q 182 714 174 722 q 190 692 190 706 l 190 304 q 397 67 190 67 q 556 130 497 67 q 615 304 615 193 l 615 692 q 624 714 615 706 q 646 722 632 722 l 669 722 q 692 714 683 722 q 700 692 700 706 l 700 31 q 692 8 700 17 q 669 0 683 0 l 646 0 q 624 8 632 0 q 615 31 615 17 l 615 96 q 520 14 574 42 q 383 -14 467 -14 m 403 819 q 285 865 319 819 q 250 981 250 911 q 257 999 250 992 q 276 1007 264 1007 l 297 1007 q 317 999 310 1007 q 324 981 324 992 q 403 889 324 889 q 482 981 482 889 q 489 999 482 992 q 508 1007 496 1007 l 529 1007 q 549 999 542 1007 q 556 981 556 992 q 521 865 556 911 q 403 819 486 819 z "},"û":{"ha":813,"x_min":106,"x_max":700,"o":"m 383 -14 q 176 72 247 -14 q 106 297 106 158 l 106 692 q 114 714 106 706 q 136 722 122 722 l 160 722 q 182 714 174 722 q 190 692 190 706 l 190 304 q 397 67 190 67 q 556 130 497 67 q 615 304 615 193 l 615 692 q 624 714 615 706 q 646 722 632 722 l 669 722 q 692 714 683 722 q 700 692 700 706 l 700 31 q 692 8 700 17 q 669 0 683 0 l 646 0 q 624 8 632 0 q 615 31 615 17 l 615 96 q 520 14 574 42 q 383 -14 467 -14 m 233 826 q 214 842 214 826 q 231 869 214 853 l 351 988 q 373 1003 364 1000 q 396 1007 382 1007 l 410 1007 q 432 1003 422 1007 q 454 988 442 1000 l 575 869 q 592 842 592 853 q 572 826 592 826 l 549 826 q 529 829 539 826 q 514 836 519 832 l 403 919 l 292 836 q 276 829 286 832 q 257 826 267 826 l 233 826 z "},"ü":{"ha":813,"x_min":106,"x_max":700,"o":"m 383 -14 q 176 72 247 -14 q 106 297 106 158 l 106 692 q 114 714 106 706 q 136 722 122 722 l 160 722 q 182 714 174 722 q 190 692 190 706 l 190 304 q 397 67 190 67 q 556 130 497 67 q 615 304 615 193 l 615 692 q 624 714 615 706 q 646 722 632 722 l 669 722 q 692 714 683 722 q 700 692 700 706 l 700 31 q 692 8 700 17 q 669 0 683 0 l 646 0 q 624 8 632 0 q 615 31 615 17 l 615 96 q 520 14 574 42 q 383 -14 467 -14 m 269 871 q 247 879 256 871 q 239 901 239 888 l 239 954 q 247 977 239 968 q 269 986 256 986 l 322 986 q 345 977 336 986 q 354 954 354 968 l 354 901 q 345 879 354 888 q 322 871 336 871 l 269 871 m 482 871 q 460 879 468 871 q 451 901 451 888 l 451 954 q 460 977 451 968 q 482 986 468 986 l 535 986 q 558 977 549 986 q 567 954 567 968 l 567 901 q 558 879 567 888 q 535 871 549 871 l 482 871 z "},"ù":{"ha":813,"x_min":106,"x_max":700,"o":"m 383 -14 q 176 72 247 -14 q 106 297 106 158 l 106 692 q 114 714 106 706 q 136 722 122 722 l 160 722 q 182 714 174 722 q 190 692 190 706 l 190 304 q 397 67 190 67 q 556 130 497 67 q 615 304 615 193 l 615 692 q 624 714 615 706 q 646 722 632 722 l 669 722 q 692 714 683 722 q 700 692 700 706 l 700 31 q 692 8 700 17 q 669 0 683 0 l 646 0 q 624 8 632 0 q 615 31 615 17 l 615 96 q 520 14 574 42 q 383 -14 467 -14 m 414 826 q 390 829 399 826 q 371 840 382 832 l 219 964 q 213 981 213 971 q 239 1007 213 1007 l 296 1007 q 325 1002 315 1007 q 347 982 335 997 l 443 867 q 450 849 450 860 q 428 826 450 826 l 414 826 z "},"ű":{"ha":813,"x_min":106,"x_max":700,"o":"m 383 -14 q 176 72 247 -14 q 106 297 106 158 l 106 692 q 114 714 106 706 q 136 722 122 722 l 160 722 q 182 714 174 722 q 190 692 190 706 l 190 304 q 397 67 190 67 q 556 130 497 67 q 615 304 615 193 l 615 692 q 624 714 615 706 q 646 722 632 722 l 669 722 q 692 714 683 722 q 700 692 700 706 l 700 31 q 692 8 700 17 q 669 0 683 0 l 646 0 q 624 8 632 0 q 615 31 615 17 l 615 96 q 520 14 574 42 q 383 -14 467 -14 m 267 826 q 244 849 244 826 q 251 869 244 856 l 301 981 q 320 1001 308 994 q 353 1007 332 1007 l 401 1007 q 422 1000 414 1007 q 429 981 429 993 q 421 963 429 971 l 322 846 q 281 826 306 826 l 267 826 m 465 826 q 443 849 443 826 q 450 869 443 856 l 500 981 q 519 1001 507 994 q 551 1007 531 1007 l 600 1007 q 620 1000 613 1007 q 628 981 628 993 q 619 963 628 971 l 521 846 q 479 826 504 826 l 465 826 z "},"ū":{"ha":813,"x_min":106,"x_max":700,"o":"m 383 -14 q 176 72 247 -14 q 106 297 106 158 l 106 692 q 114 714 106 706 q 136 722 122 722 l 160 722 q 182 714 174 722 q 190 692 190 706 l 190 304 q 397 67 190 67 q 556 130 497 67 q 615 304 615 193 l 615 692 q 624 714 615 706 q 646 722 632 722 l 669 722 q 692 714 683 722 q 700 692 700 706 l 700 31 q 692 8 700 17 q 669 0 683 0 l 646 0 q 624 8 632 0 q 615 31 615 17 l 615 96 q 520 14 574 42 q 383 -14 467 -14 m 265 864 q 243 872 251 864 q 235 894 235 881 l 235 914 q 243 936 235 928 q 265 944 251 944 l 542 944 q 564 936 556 944 q 572 914 572 928 l 572 894 q 564 872 572 881 q 542 864 556 864 l 265 864 z "},"ų":{"ha":813,"x_min":106,"x_max":700,"o":"m 657 -306 q 546 -258 590 -306 q 501 -125 501 -210 q 536 -18 501 -64 q 615 49 571 28 l 615 60 l 615 96 q 520 14 574 42 q 383 -14 467 -14 q 176 72 247 -14 q 106 297 106 158 l 106 692 q 114 714 106 706 q 136 722 122 722 l 160 722 q 182 714 174 722 q 190 692 190 706 l 190 304 q 397 67 190 67 q 556 130 497 67 q 615 304 615 193 l 615 692 q 624 714 615 706 q 646 722 632 722 l 669 722 q 692 714 683 722 q 700 692 700 706 l 700 31 q 678 0 700 11 l 674 -3 q 606 -51 628 -24 q 585 -125 585 -79 q 606 -201 585 -176 q 663 -226 626 -226 l 669 -226 q 692 -235 683 -226 q 700 -257 700 -243 l 700 -275 q 692 -297 700 -289 q 669 -306 683 -306 l 657 -306 z "},"ů":{"ha":813,"x_min":106,"x_max":700,"o":"m 383 -14 q 176 72 247 -14 q 106 297 106 158 l 106 692 q 114 714 106 706 q 136 722 122 722 l 160 722 q 182 714 174 722 q 190 692 190 706 l 190 304 q 397 67 190 67 q 556 130 497 67 q 615 304 615 193 l 615 692 q 624 714 615 706 q 646 722 632 722 l 669 722 q 692 714 683 722 q 700 692 700 706 l 700 31 q 692 8 700 17 q 669 0 683 0 l 646 0 q 624 8 632 0 q 615 31 615 17 l 615 96 q 520 14 574 42 q 383 -14 467 -14 m 403 819 q 324 849 356 819 q 292 924 292 878 q 324 999 292 969 q 403 1028 356 1028 q 482 999 450 1028 q 514 924 514 969 q 482 849 514 878 q 403 819 450 819 m 403 882 q 433 894 421 882 q 444 924 444 906 q 433 953 444 942 q 403 965 421 965 q 373 953 385 965 q 361 924 361 942 q 373 894 361 906 q 403 882 385 882 z "},"ũ":{"ha":813,"x_min":106,"x_max":700,"o":"m 383 -14 q 176 72 247 -14 q 106 297 106 158 l 106 692 q 114 714 106 706 q 136 722 122 722 l 160 722 q 182 714 174 722 q 190 692 190 706 l 190 304 q 397 67 190 67 q 556 130 497 67 q 615 304 615 193 l 615 692 q 624 714 615 706 q 646 722 632 722 l 669 722 q 692 714 683 722 q 700 692 700 706 l 700 31 q 692 8 700 17 q 669 0 683 0 l 646 0 q 624 8 632 0 q 615 31 615 17 l 615 96 q 520 14 574 42 q 383 -14 467 -14 m 469 819 q 430 826 446 819 q 390 847 414 833 q 367 860 379 854 q 344 867 356 867 q 327 862 333 867 q 314 846 321 857 q 288 826 303 826 l 260 826 q 244 833 250 826 q 238 849 238 840 q 266 919 238 889 q 336 950 294 950 q 377 943 360 950 q 415 922 394 936 q 438 909 426 915 q 463 903 450 903 q 480 908 474 903 q 493 924 486 913 q 504 940 499 935 q 519 944 510 944 l 547 944 q 563 938 557 944 q 569 922 569 931 q 540 851 569 882 q 469 819 510 819 z "},"v":{"ha":744,"x_min":50,"x_max":694,"o":"m 361 0 q 308 35 322 0 l 53 679 l 50 694 q 58 714 50 706 q 78 722 67 722 l 107 722 q 127 715 119 722 q 138 701 135 708 l 372 101 l 607 701 q 617 715 610 708 q 638 722 625 722 l 667 722 q 686 714 678 722 q 694 694 694 706 l 692 679 l 436 35 q 383 0 422 0 l 361 0 z "},"w":{"ha":1092,"x_min":57,"x_max":1035,"o":"m 300 0 q 272 8 282 0 q 256 35 263 17 l 60 679 l 57 694 q 65 714 57 706 q 85 722 74 722 l 111 722 q 132 715 124 722 q 142 701 140 708 l 313 124 l 494 694 q 507 714 497 706 q 532 722 517 722 l 560 722 q 585 714 575 722 q 597 694 594 706 l 779 124 l 950 701 q 960 715 951 708 q 981 722 968 722 l 1007 722 q 1026 714 1018 722 q 1035 694 1035 706 l 1032 679 l 836 35 q 819 8 829 17 q 792 0 810 0 l 768 0 q 721 35 731 0 l 546 582 l 371 35 q 324 0 361 0 l 300 0 z "},"ẃ":{"ha":1092,"x_min":57,"x_max":1035,"o":"m 300 0 q 272 8 282 0 q 256 35 263 17 l 60 679 l 57 694 q 65 714 57 706 q 85 722 74 722 l 111 722 q 132 715 124 722 q 142 701 140 708 l 313 124 l 494 694 q 507 714 497 706 q 532 722 517 722 l 560 722 q 585 714 575 722 q 597 694 594 706 l 779 124 l 950 701 q 960 715 951 708 q 981 722 968 722 l 1007 722 q 1026 714 1018 722 q 1035 694 1035 706 l 1032 679 l 836 35 q 819 8 829 17 q 792 0 810 0 l 768 0 q 721 35 731 0 l 546 582 l 371 35 q 324 0 361 0 l 300 0 m 524 826 q 501 849 501 826 q 508 867 501 860 l 604 982 q 626 1002 617 997 q 656 1007 636 1007 l 713 1007 q 739 981 739 1007 q 732 964 739 971 l 581 840 q 561 829 569 832 q 538 826 553 826 l 524 826 z "},"ŵ":{"ha":1092,"x_min":57,"x_max":1035,"o":"m 300 0 q 272 8 282 0 q 256 35 263 17 l 60 679 l 57 694 q 65 714 57 706 q 85 722 74 722 l 111 722 q 132 715 124 722 q 142 701 140 708 l 313 124 l 494 694 q 507 714 497 706 q 532 722 517 722 l 560 722 q 585 714 575 722 q 597 694 594 706 l 779 124 l 950 701 q 960 715 951 708 q 981 722 968 722 l 1007 722 q 1026 714 1018 722 q 1035 694 1035 706 l 1032 679 l 836 35 q 819 8 829 17 q 792 0 810 0 l 768 0 q 721 35 731 0 l 546 582 l 371 35 q 324 0 361 0 l 300 0 m 376 826 q 357 842 357 826 q 374 869 357 853 l 494 988 q 516 1003 507 1000 q 539 1007 525 1007 l 553 1007 q 575 1003 565 1007 q 597 988 585 1000 l 718 869 q 735 842 735 853 q 715 826 735 826 l 692 826 q 672 829 682 826 q 657 836 663 832 l 546 919 l 435 836 q 419 829 429 832 q 400 826 410 826 l 376 826 z "},"ẅ":{"ha":1092,"x_min":57,"x_max":1035,"o":"m 300 0 q 272 8 282 0 q 256 35 263 17 l 60 679 l 57 694 q 65 714 57 706 q 85 722 74 722 l 111 722 q 132 715 124 722 q 142 701 140 708 l 313 124 l 494 694 q 507 714 497 706 q 532 722 517 722 l 560 722 q 585 714 575 722 q 597 694 594 706 l 779 124 l 950 701 q 960 715 951 708 q 981 722 968 722 l 1007 722 q 1026 714 1018 722 q 1035 694 1035 706 l 1032 679 l 836 35 q 819 8 829 17 q 792 0 810 0 l 768 0 q 721 35 731 0 l 546 582 l 371 35 q 324 0 361 0 l 300 0 m 413 871 q 390 879 399 871 q 382 901 382 888 l 382 954 q 390 977 382 968 q 413 986 399 986 l 465 986 q 488 977 479 986 q 497 954 497 968 l 497 901 q 488 879 497 888 q 465 871 479 871 l 413 871 m 625 871 q 603 879 611 871 q 594 901 594 888 l 594 954 q 603 977 594 968 q 625 986 611 986 l 678 986 q 701 977 692 986 q 710 954 710 968 l 710 901 q 701 879 710 888 q 678 871 692 871 l 625 871 z "},"ẁ":{"ha":1092,"x_min":57,"x_max":1035,"o":"m 300 0 q 272 8 282 0 q 256 35 263 17 l 60 679 l 57 694 q 65 714 57 706 q 85 722 74 722 l 111 722 q 132 715 124 722 q 142 701 140 708 l 313 124 l 494 694 q 507 714 497 706 q 532 722 517 722 l 560 722 q 585 714 575 722 q 597 694 594 706 l 779 124 l 950 701 q 960 715 951 708 q 981 722 968 722 l 1007 722 q 1026 714 1018 722 q 1035 694 1035 706 l 1032 679 l 836 35 q 819 8 829 17 q 792 0 810 0 l 768 0 q 721 35 731 0 l 546 582 l 371 35 q 324 0 361 0 l 300 0 m 553 826 q 529 829 538 826 q 510 840 521 832 l 358 964 q 351 981 351 971 q 378 1007 351 1007 l 435 1007 q 464 1002 454 1007 q 486 982 474 997 l 582 867 q 589 849 589 860 q 567 826 589 826 l 553 826 z "},"x":{"ha":719,"x_min":49,"x_max":669,"o":"m 76 0 q 57 8 65 0 q 49 28 49 17 q 60 56 49 42 l 304 369 l 72 667 q 61 694 61 681 q 69 714 61 706 q 89 722 78 722 l 118 722 q 137 717 131 722 q 153 701 143 713 l 361 433 l 569 700 q 576 708 571 701 q 589 719 582 715 q 604 722 596 722 l 632 722 q 651 714 643 722 q 660 694 660 706 q 649 667 660 681 l 414 365 l 658 56 q 669 28 669 42 q 661 8 669 17 q 642 0 653 0 l 613 0 q 578 21 593 0 l 358 301 l 139 21 q 123 5 129 10 q 104 0 117 0 l 76 0 z "},"y":{"ha":739,"x_min":49,"x_max":697,"o":"m 235 -264 q 215 -256 224 -264 q 207 -236 207 -247 q 215 -208 207 -229 l 322 42 l 57 667 q 49 694 49 688 q 57 714 49 706 q 76 722 65 722 l 106 722 q 138 701 128 722 l 371 151 l 610 701 q 642 722 621 722 l 669 722 q 689 714 681 722 q 697 694 697 706 q 689 667 697 688 l 294 -243 q 263 -264 285 -264 l 235 -264 z "},"ý":{"ha":739,"x_min":49,"x_max":697,"o":"m 235 -264 q 215 -256 224 -264 q 207 -236 207 -247 q 215 -208 207 -229 l 322 42 l 57 667 q 49 694 49 688 q 57 714 49 706 q 76 722 65 722 l 106 722 q 138 701 128 722 l 371 151 l 610 701 q 642 722 621 722 l 669 722 q 689 714 681 722 q 697 694 697 706 q 689 667 697 688 l 294 -243 q 263 -264 285 -264 l 235 -264 m 346 826 q 324 849 324 826 q 331 867 324 860 l 426 982 q 449 1002 439 997 q 478 1007 458 1007 l 535 1007 q 561 981 561 1007 q 554 964 561 971 l 403 840 q 383 829 392 832 q 360 826 375 826 l 346 826 z "},"ŷ":{"ha":739,"x_min":49,"x_max":697,"o":"m 235 -264 q 215 -256 224 -264 q 207 -236 207 -247 q 215 -208 207 -229 l 322 42 l 57 667 q 49 694 49 688 q 57 714 49 706 q 76 722 65 722 l 106 722 q 138 701 128 722 l 371 151 l 610 701 q 642 722 621 722 l 669 722 q 689 714 681 722 q 697 694 697 706 q 689 667 697 688 l 294 -243 q 263 -264 285 -264 l 235 -264 m 201 826 q 182 842 182 826 q 199 869 182 853 l 319 988 q 341 1003 332 1000 q 364 1007 350 1007 l 378 1007 q 400 1003 390 1007 q 422 988 410 1000 l 543 869 q 560 842 560 853 q 540 826 560 826 l 517 826 q 497 829 507 826 q 482 836 488 832 l 371 919 l 260 836 q 244 829 254 832 q 225 826 235 826 l 201 826 z "},"ÿ":{"ha":739,"x_min":49,"x_max":697,"o":"m 235 -264 q 215 -256 224 -264 q 207 -236 207 -247 q 215 -208 207 -229 l 322 42 l 57 667 q 49 694 49 688 q 57 714 49 706 q 76 722 65 722 l 106 722 q 138 701 128 722 l 371 151 l 610 701 q 642 722 621 722 l 669 722 q 689 714 681 722 q 697 694 697 706 q 689 667 697 688 l 294 -243 q 263 -264 285 -264 l 235 -264 m 238 871 q 215 879 224 871 q 207 901 207 888 l 207 954 q 215 977 207 968 q 238 986 224 986 l 290 986 q 313 977 304 986 q 322 954 322 968 l 322 901 q 313 879 322 888 q 290 871 304 871 l 238 871 m 450 871 q 428 879 436 871 q 419 901 419 888 l 419 954 q 428 977 419 968 q 450 986 436 986 l 503 986 q 526 977 517 986 q 535 954 535 968 l 535 901 q 526 879 535 888 q 503 871 517 871 l 450 871 z "},"ỳ":{"ha":739,"x_min":49,"x_max":697,"o":"m 235 -264 q 215 -256 224 -264 q 207 -236 207 -247 q 215 -208 207 -229 l 322 42 l 57 667 q 49 694 49 688 q 57 714 49 706 q 76 722 65 722 l 106 722 q 138 701 128 722 l 371 151 l 610 701 q 642 722 621 722 l 669 722 q 689 714 681 722 q 697 694 697 706 q 689 667 697 688 l 294 -243 q 263 -264 285 -264 l 235 -264 m 381 826 q 357 829 365 826 q 338 840 349 832 l 186 964 q 179 981 179 971 q 206 1007 179 1007 l 263 1007 q 292 1002 282 1007 q 314 982 301 997 l 410 867 q 417 849 417 860 q 394 826 417 826 l 381 826 z "},"z":{"ha":681,"x_min":58,"x_max":628,"o":"m 89 0 q 67 8 75 0 q 58 31 58 17 l 58 54 q 78 97 58 69 l 486 642 l 103 642 q 81 650 89 642 q 72 672 72 658 l 72 692 q 81 714 72 706 q 103 722 89 722 l 569 722 q 592 714 583 722 q 600 692 600 706 l 600 668 q 581 625 600 653 l 175 81 l 597 81 q 619 72 611 81 q 628 50 628 64 l 628 31 q 619 8 628 17 q 597 0 611 0 l 89 0 z "},"ź":{"ha":681,"x_min":58,"x_max":628,"o":"m 89 0 q 67 8 75 0 q 58 31 58 17 l 58 54 q 78 97 58 69 l 486 642 l 103 642 q 81 650 89 642 q 72 672 72 658 l 72 692 q 81 714 72 706 q 103 722 89 722 l 569 722 q 592 714 583 722 q 600 692 600 706 l 600 668 q 581 625 600 653 l 175 81 l 597 81 q 619 72 611 81 q 628 50 628 64 l 628 31 q 619 8 628 17 q 597 0 611 0 l 89 0 m 318 826 q 296 849 296 826 q 303 867 296 860 l 399 982 q 421 1002 411 997 q 450 1007 431 1007 l 507 1007 q 533 981 533 1007 q 526 964 533 971 l 375 840 q 356 829 364 832 q 332 826 347 826 l 318 826 z "},"ž":{"ha":681,"x_min":58,"x_max":628,"o":"m 89 0 q 67 8 75 0 q 58 31 58 17 l 58 54 q 78 97 58 69 l 486 642 l 103 642 q 81 650 89 642 q 72 672 72 658 l 72 692 q 81 714 72 706 q 103 722 89 722 l 569 722 q 592 714 583 722 q 600 692 600 706 l 600 668 q 581 625 600 653 l 175 81 l 597 81 q 619 72 611 81 q 628 50 628 64 l 628 31 q 619 8 628 17 q 597 0 611 0 l 89 0 m 336 826 q 313 830 322 826 q 292 846 304 833 l 171 964 q 154 992 154 981 q 174 1007 154 1007 l 197 1007 q 217 1004 207 1007 q 232 997 226 1001 l 343 914 l 454 997 q 469 1004 460 1001 q 489 1007 479 1007 l 513 1007 q 532 992 532 1007 q 515 964 532 981 l 394 846 q 372 830 382 833 q 350 826 363 826 l 336 826 z "},"ż":{"ha":681,"x_min":58,"x_max":628,"o":"m 89 0 q 67 8 75 0 q 58 31 58 17 l 58 54 q 78 97 58 69 l 486 642 l 103 642 q 81 650 89 642 q 72 672 72 658 l 72 692 q 81 714 72 706 q 103 722 89 722 l 569 722 q 592 714 583 722 q 600 692 600 706 l 600 668 q 581 625 600 653 l 175 81 l 597 81 q 619 72 611 81 q 628 50 628 64 l 628 31 q 619 8 628 17 q 597 0 611 0 l 89 0 m 310 857 q 288 865 296 857 q 279 888 279 874 l 279 954 q 288 977 279 968 q 310 986 296 986 l 376 986 q 399 977 390 986 q 408 954 408 968 l 408 888 q 399 865 408 874 q 376 857 390 857 l 310 857 z "},"ﬁ":{"ha":688,"x_min":26,"x_max":575,"o":"m 211 0 q 189 8 197 0 q 181 31 181 17 l 181 642 l 57 642 q 35 650 43 642 q 26 672 26 658 l 26 692 q 35 714 26 706 q 57 722 43 722 l 181 722 l 181 801 q 226 967 181 907 q 390 1028 272 1028 l 544 1028 q 567 1019 558 1028 q 575 997 575 1011 l 575 978 q 567 956 575 964 q 544 947 558 947 l 390 947 q 292 910 319 947 q 265 794 265 874 l 265 722 l 544 722 q 567 714 558 722 q 575 692 575 706 l 575 31 q 567 8 575 17 q 544 0 558 0 l 521 0 q 499 8 507 0 q 490 31 490 17 l 490 642 l 265 642 l 265 31 q 257 8 265 17 q 235 0 249 0 l 211 0 z "},"ﬂ":{"ha":771,"x_min":26,"x_max":657,"o":"m 211 0 q 189 8 197 0 q 181 31 181 17 l 181 642 l 57 642 q 35 650 43 642 q 26 672 26 658 l 26 692 q 35 714 26 706 q 57 722 43 722 l 181 722 l 181 801 q 226 967 181 907 q 390 1028 272 1028 l 463 1028 q 485 1019 476 1028 q 493 997 493 1011 l 493 978 q 485 956 493 964 q 463 947 476 947 l 390 947 q 292 910 319 947 q 265 794 265 874 l 265 722 l 572 722 l 572 997 q 581 1019 572 1011 q 603 1028 589 1028 l 626 1028 q 649 1019 640 1028 q 657 997 657 1011 l 657 31 q 649 8 657 17 q 626 0 640 0 l 603 0 q 581 8 589 0 q 572 31 572 17 l 572 642 l 265 642 l 265 31 q 257 8 265 17 q 235 0 249 0 l 211 0 z "},"ª":{"ha":510,"x_min":81,"x_max":410,"o":"m 210 596 q 116 626 151 596 q 81 701 81 657 q 122 790 81 756 q 238 836 164 825 l 325 849 q 312 881 325 864 q 256 899 299 899 q 217 894 232 899 q 189 881 203 889 q 158 871 172 871 l 135 871 q 104 892 104 871 q 125 927 104 906 q 181 964 146 949 q 260 979 217 979 q 369 938 328 979 q 410 831 410 896 l 410 633 q 401 611 410 619 q 379 603 393 603 l 356 603 q 333 611 342 603 q 325 633 325 619 l 325 643 q 281 610 314 624 q 210 596 247 596 m 222 671 q 300 701 275 671 q 325 776 325 731 l 260 767 q 186 743 206 758 q 167 704 167 728 q 183 680 167 689 q 222 671 199 671 z "},"º":{"ha":501,"x_min":83,"x_max":419,"o":"m 251 596 q 133 635 178 596 q 85 750 89 674 l 83 788 l 85 825 q 135 940 89 900 q 251 979 182 979 q 367 940 321 979 q 418 825 414 900 q 419 788 419 818 q 418 750 419 757 q 369 635 414 674 q 251 596 325 596 m 251 676 q 333 757 329 676 q 335 788 335 764 q 333 818 335 811 q 310 877 331 856 q 251 899 289 899 q 193 877 214 899 q 169 818 172 856 l 168 788 l 169 757 q 251 676 174 676 z "},"А":{"ha":903,"x_min":33,"x_max":869,"o":"m 61 0 q 42 8 50 0 q 33 28 33 17 l 36 43 l 388 944 q 428 972 399 972 l 475 972 q 515 944 504 972 l 867 43 l 869 28 q 861 8 869 17 q 842 0 853 0 l 814 0 q 794 7 801 0 q 783 21 786 14 l 697 243 l 206 243 l 119 21 q 109 7 117 14 q 89 0 101 0 l 61 0 m 239 326 l 664 326 l 451 874 l 239 326 z "},"Б":{"ha":878,"x_min":131,"x_max":819,"o":"m 161 0 q 139 8 147 0 q 131 31 131 17 l 131 940 q 139 963 131 954 q 161 972 147 972 l 739 972 q 763 964 754 972 q 771 940 771 956 l 771 919 q 762 897 771 906 q 739 889 753 889 l 218 889 l 218 560 l 528 560 q 742 485 665 560 q 819 283 819 410 q 788 151 819 217 q 690 43 756 86 q 528 0 624 0 l 161 0 m 514 83 q 630 110 581 83 q 706 185 679 138 q 732 288 732 232 q 677 426 732 375 q 514 476 622 476 l 218 476 l 218 83 l 514 83 z "},"В":{"ha":907,"x_min":131,"x_max":822,"o":"m 161 0 q 139 8 147 0 q 131 31 131 17 l 131 940 q 139 963 131 954 q 161 972 147 972 l 524 972 q 732 901 661 972 q 803 724 803 831 q 767 589 803 642 q 681 513 731 536 q 781 419 740 482 q 822 275 822 357 q 788 140 822 203 q 689 38 754 76 q 533 0 624 0 l 161 0 m 506 550 q 662 595 608 550 q 715 724 715 640 q 662 847 715 806 q 506 889 608 889 l 218 889 l 218 550 l 506 550 m 519 83 q 678 137 621 83 q 735 275 735 190 q 678 414 735 361 q 519 467 621 467 l 218 467 l 218 83 l 519 83 z "},"Г":{"ha":701,"x_min":131,"x_max":701,"o":"m 161 0 q 139 8 147 0 q 131 31 131 17 l 131 940 q 139 963 131 954 q 161 972 147 972 l 669 972 q 693 964 685 972 q 701 940 701 956 l 701 919 q 692 897 701 906 q 669 889 683 889 l 218 889 l 218 31 q 209 8 218 17 q 186 0 200 0 l 161 0 z "},"Ѓ":{"ha":701,"x_min":131,"x_max":701,"o":"m 161 0 q 139 8 147 0 q 131 31 131 17 l 131 940 q 139 963 131 954 q 161 972 147 972 l 669 972 q 693 964 685 972 q 701 940 701 956 l 701 919 q 692 897 701 906 q 669 889 683 889 l 218 889 l 218 31 q 209 8 218 17 q 186 0 200 0 l 161 0 m 418 1042 q 396 1064 396 1042 q 403 1082 396 1075 l 499 1197 q 521 1217 511 1213 q 550 1222 531 1222 l 614 1222 q 640 1196 640 1222 q 633 1179 640 1186 l 482 1056 q 463 1044 471 1047 q 439 1042 454 1042 l 418 1042 z "},"Ґ":{"ha":701,"x_min":131,"x_max":701,"o":"m 669 1167 q 692 1158 683 1167 q 701 1136 701 1150 l 701 919 q 692 897 701 906 q 669 889 683 889 l 218 889 l 218 31 q 209 8 218 17 q 186 0 200 0 l 161 0 q 139 8 147 0 q 131 31 131 17 l 131 940 q 139 963 131 954 q 161 972 147 972 l 614 972 l 614 1136 q 622 1158 614 1150 q 644 1167 631 1167 l 669 1167 z "},"Д":{"ha":939,"x_min":28,"x_max":890,"o":"m 58 -193 q 36 -185 44 -193 q 28 -162 28 -176 l 28 53 q 36 75 28 67 q 58 83 44 83 l 90 83 q 232 635 232 83 l 232 942 q 240 964 232 956 q 263 972 249 972 l 757 972 q 781 964 772 972 q 789 940 789 956 l 789 83 l 858 83 q 881 75 872 83 q 890 53 890 67 l 890 -162 q 881 -185 890 -176 q 858 -193 872 -193 l 833 -193 q 811 -185 819 -193 q 803 -162 803 -176 l 803 0 l 115 0 l 115 -162 q 106 -185 115 -176 q 83 -193 97 -193 l 58 -193 m 701 83 l 701 889 l 319 889 l 319 624 q 294 276 319 407 q 218 83 269 146 l 701 83 z "},"Е":{"ha":822,"x_min":131,"x_max":746,"o":"m 161 0 q 139 8 147 0 q 131 31 131 17 l 131 940 q 139 963 131 954 q 161 972 147 972 l 703 972 q 726 964 718 972 q 735 940 735 956 l 735 919 q 726 897 735 906 q 703 889 717 889 l 218 889 l 218 535 l 672 535 q 696 526 688 535 q 704 503 704 518 l 704 482 q 695 460 704 468 q 672 451 686 451 l 218 451 l 218 83 l 714 83 q 738 75 729 83 q 746 51 746 67 l 746 31 q 737 8 746 17 q 714 0 728 0 l 161 0 z "},"Ѐ":{"ha":822,"x_min":131,"x_max":746,"o":"m 161 0 q 139 8 147 0 q 131 31 131 17 l 131 940 q 139 963 131 954 q 161 972 147 972 l 703 972 q 726 964 718 972 q 735 940 735 956 l 735 919 q 726 897 735 906 q 703 889 717 889 l 218 889 l 218 535 l 672 535 q 696 526 688 535 q 704 503 704 518 l 704 482 q 695 460 704 468 q 672 451 686 451 l 218 451 l 218 83 l 714 83 q 738 75 729 83 q 746 51 746 67 l 746 31 q 737 8 746 17 q 714 0 728 0 l 161 0 m 449 1042 q 425 1044 433 1042 q 406 1056 417 1047 l 254 1179 q 247 1196 247 1186 q 274 1222 247 1222 l 338 1222 q 367 1217 357 1222 q 389 1197 376 1213 l 485 1082 q 492 1064 492 1075 q 469 1042 492 1042 l 449 1042 z "},"Ё":{"ha":822,"x_min":131,"x_max":746,"o":"m 161 0 q 139 8 147 0 q 131 31 131 17 l 131 940 q 139 963 131 954 q 161 972 147 972 l 703 972 q 726 964 718 972 q 735 940 735 956 l 735 919 q 726 897 735 906 q 703 889 717 889 l 218 889 l 218 535 l 672 535 q 696 526 688 535 q 704 503 704 518 l 704 482 q 695 460 704 468 q 672 451 686 451 l 218 451 l 218 83 l 714 83 q 738 75 729 83 q 746 51 746 67 l 746 31 q 737 8 746 17 q 714 0 728 0 l 161 0 m 306 1121 q 283 1129 292 1121 q 275 1151 275 1138 l 275 1204 q 283 1227 275 1218 q 306 1236 292 1236 l 358 1236 q 381 1227 372 1236 q 390 1204 390 1218 l 390 1151 q 381 1129 390 1138 q 358 1121 372 1121 l 306 1121 m 518 1121 q 496 1129 504 1121 q 488 1151 488 1138 l 488 1204 q 496 1227 488 1218 q 518 1236 504 1236 l 571 1236 q 594 1227 585 1236 q 603 1204 603 1218 l 603 1151 q 594 1129 603 1138 q 571 1121 585 1121 l 518 1121 z "},"Ж":{"ha":1329,"x_min":63,"x_max":1267,"o":"m 1264 49 q 1267 33 1267 44 q 1258 10 1267 19 q 1235 0 1249 0 l 1211 0 q 1179 18 1190 0 l 888 451 l 708 451 l 708 29 q 700 8 708 17 q 678 0 692 0 l 651 0 q 629 8 638 0 q 621 31 621 17 l 621 451 l 439 451 l 150 18 q 118 0 139 0 l 94 0 q 72 10 81 0 q 63 33 63 19 q 65 49 63 44 l 364 500 l 93 926 q 86 944 86 938 q 114 972 86 972 l 133 972 q 179 951 164 972 l 444 533 l 621 535 l 621 942 q 629 964 621 956 q 651 972 638 972 l 678 972 q 700 964 692 972 q 708 942 708 956 l 708 535 l 882 533 l 1147 951 q 1193 972 1163 972 l 1215 972 q 1243 944 1243 972 q 1236 926 1243 938 l 965 500 l 1264 49 z "},"З":{"ha":832,"x_min":56,"x_max":747,"o":"m 394 -14 q 156 51 246 -14 q 56 224 65 117 l 56 226 q 64 244 56 238 q 85 250 72 250 l 107 250 q 131 244 121 250 q 144 218 140 238 q 226 110 161 150 q 394 69 292 69 q 526 94 465 69 q 624 163 588 118 q 660 268 660 208 q 593 414 660 361 q 413 467 526 467 l 314 467 q 292 475 300 467 q 283 497 283 483 l 283 518 q 292 541 283 532 q 314 550 300 550 l 406 550 q 566 595 507 550 q 625 732 625 640 q 560 856 625 808 q 400 903 494 903 q 237 866 300 903 q 157 751 174 829 q 126 722 151 722 l 99 722 q 77 730 86 722 q 69 750 68 738 q 166 924 79 861 q 400 986 253 986 q 573 950 503 986 q 678 856 643 914 q 713 732 713 799 q 685 603 713 661 q 601 511 658 546 q 710 413 672 476 q 747 268 747 350 q 703 121 747 185 q 580 22 660 57 q 394 -14 500 -14 z "},"И":{"ha":1008,"x_min":131,"x_max":878,"o":"m 161 0 q 139 9 147 0 q 131 32 131 18 l 131 940 q 140 964 131 956 q 163 972 149 972 l 188 972 q 210 963 201 972 q 218 940 218 954 l 218 153 l 789 956 q 818 972 800 972 l 847 972 q 869 963 861 972 q 878 940 878 954 l 878 31 q 869 8 878 17 q 847 0 861 0 l 822 0 q 799 8 808 0 q 790 31 790 17 l 790 817 l 221 17 q 192 0 210 0 l 161 0 z "},"Й":{"ha":1008,"x_min":131,"x_max":878,"o":"m 161 0 q 139 9 147 0 q 131 32 131 18 l 131 940 q 140 964 131 956 q 163 972 149 972 l 188 972 q 210 963 201 972 q 218 940 218 954 l 218 153 l 789 956 q 818 972 800 972 l 847 972 q 869 963 861 972 q 878 940 878 954 l 878 31 q 869 8 878 17 q 847 0 861 0 l 822 0 q 799 8 808 0 q 790 31 790 17 l 790 817 l 221 17 q 192 0 210 0 l 161 0 m 496 1028 q 340 1074 385 1028 q 294 1189 294 1119 q 301 1208 294 1200 q 321 1215 308 1215 l 342 1215 q 361 1208 354 1215 q 368 1189 368 1200 q 496 1097 368 1097 q 624 1189 624 1097 q 631 1208 624 1200 q 650 1215 638 1215 l 671 1215 q 690 1208 683 1215 q 697 1189 697 1200 q 652 1074 697 1119 q 496 1028 607 1028 z "},"Ѝ":{"ha":1008,"x_min":131,"x_max":878,"o":"m 161 0 q 139 9 147 0 q 131 32 131 18 l 131 940 q 140 964 131 956 q 163 972 149 972 l 188 972 q 210 963 201 972 q 218 940 218 954 l 218 153 l 789 956 q 818 972 800 972 l 847 972 q 869 963 861 972 q 878 940 878 954 l 878 31 q 869 8 878 17 q 847 0 861 0 l 822 0 q 799 8 808 0 q 790 31 790 17 l 790 817 l 221 17 q 192 0 210 0 l 161 0 m 506 1042 q 482 1044 490 1042 q 463 1056 474 1047 l 311 1179 q 304 1196 304 1186 q 331 1222 304 1222 l 394 1222 q 424 1217 414 1222 q 446 1197 433 1213 l 542 1082 q 549 1064 549 1075 q 526 1042 549 1042 l 506 1042 z "},"К":{"ha":853,"x_min":131,"x_max":790,"o":"m 788 49 q 790 33 790 44 q 781 10 790 19 q 758 0 772 0 l 735 0 q 703 18 714 0 l 411 451 l 218 451 l 218 31 q 209 8 218 17 q 186 0 200 0 l 161 0 q 139 8 147 0 q 131 31 131 17 l 131 940 q 139 963 131 954 q 161 972 147 972 l 186 972 q 210 964 201 972 q 218 940 218 956 l 218 535 l 406 533 l 671 951 q 717 972 686 972 l 739 972 q 767 944 767 972 q 760 926 767 938 l 489 500 l 788 49 z "},"Ќ":{"ha":853,"x_min":131,"x_max":790,"o":"m 788 49 q 790 33 790 44 q 781 10 790 19 q 758 0 772 0 l 735 0 q 703 18 714 0 l 411 451 l 218 451 l 218 31 q 209 8 218 17 q 186 0 200 0 l 161 0 q 139 8 147 0 q 131 31 131 17 l 131 940 q 139 963 131 954 q 161 972 147 972 l 186 972 q 210 964 201 972 q 218 940 218 956 l 218 535 l 406 533 l 671 951 q 717 972 686 972 l 739 972 q 767 944 767 972 q 760 926 767 938 l 489 500 l 788 49 m 397 1042 q 375 1064 375 1042 q 382 1082 375 1075 l 478 1197 q 500 1217 490 1213 q 529 1222 510 1222 l 593 1222 q 619 1196 619 1222 q 613 1179 619 1186 l 461 1056 q 442 1044 450 1047 q 418 1042 433 1042 l 397 1042 z "},"Л":{"ha":944,"x_min":28,"x_max":814,"o":"m 757 0 q 735 8 743 0 q 726 31 726 17 l 726 889 l 344 889 l 344 624 q 313 270 344 404 q 218 73 281 136 q 60 1 156 10 q 37 10 46 0 q 28 33 28 19 l 28 58 q 35 79 28 71 q 56 89 43 88 q 205 226 153 103 q 257 635 257 350 l 257 942 q 265 964 257 956 q 288 972 274 972 l 782 972 q 806 964 797 972 q 814 940 814 956 l 814 31 q 805 8 814 17 q 782 0 796 0 l 757 0 z "},"М":{"ha":1083,"x_min":131,"x_max":953,"o":"m 163 0 q 140 8 149 0 q 131 31 131 17 l 131 940 q 140 964 131 956 q 163 972 149 972 l 197 972 q 226 954 218 972 l 542 340 l 858 954 q 888 972 868 972 l 921 972 q 944 964 936 972 q 953 940 953 956 l 953 31 q 944 8 953 17 q 921 0 935 0 l 896 0 q 874 8 882 0 q 865 31 865 17 l 865 783 l 600 261 q 557 233 588 233 l 526 233 q 483 261 496 233 l 218 783 l 218 31 q 210 8 218 17 q 188 0 201 0 l 163 0 z "},"Н":{"ha":972,"x_min":131,"x_max":842,"o":"m 161 0 q 139 8 147 0 q 131 31 131 17 l 131 940 q 139 963 131 954 q 161 972 147 972 l 186 972 q 210 964 201 972 q 218 940 218 956 l 218 535 l 754 535 l 754 940 q 763 963 754 954 q 785 972 771 972 l 810 972 q 833 964 825 972 q 842 940 842 956 l 842 31 q 833 8 842 17 q 810 0 824 0 l 785 0 q 763 8 771 0 q 754 31 754 17 l 754 451 l 218 451 l 218 31 q 209 8 218 17 q 186 0 200 0 l 161 0 z "},"О":{"ha":919,"x_min":92,"x_max":829,"o":"m 460 -14 q 93 369 103 -14 q 92 486 92 411 q 93 603 92 561 q 196 889 99 792 q 460 986 293 986 q 724 889 626 986 q 826 603 821 792 q 829 486 829 519 q 826 369 829 453 q 460 -14 817 -14 m 460 69 q 659 145 585 69 q 739 376 733 221 q 742 486 742 460 q 739 596 742 513 q 658 827 733 751 q 460 903 583 903 q 261 827 336 903 q 181 596 186 751 q 179 486 179 554 q 181 376 179 418 q 260 145 186 221 q 460 69 335 69 z "},"П":{"ha":972,"x_min":131,"x_max":842,"o":"m 161 0 q 139 8 147 0 q 131 31 131 17 l 131 940 q 139 963 131 954 q 161 972 147 972 l 810 972 q 833 964 825 972 q 842 940 842 956 l 842 31 q 833 8 842 17 q 810 0 824 0 l 785 0 q 763 8 771 0 q 754 31 754 17 l 754 889 l 218 889 l 218 31 q 209 8 218 17 q 186 0 200 0 l 161 0 z "},"Р":{"ha":872,"x_min":131,"x_max":818,"o":"m 161 0 q 139 8 147 0 q 131 31 131 17 l 131 940 q 139 963 131 954 q 161 972 147 972 l 499 972 q 733 898 647 972 q 818 685 818 824 q 733 472 818 546 q 499 397 647 397 l 218 397 l 218 31 q 209 8 218 17 q 186 0 200 0 l 161 0 m 492 481 q 671 533 611 481 q 731 685 731 585 q 671 837 731 785 q 492 889 611 889 l 218 889 l 218 481 l 492 481 z "},"С":{"ha":904,"x_min":90,"x_max":831,"o":"m 460 -14 q 189 88 279 -14 q 92 363 99 190 q 90 485 90 400 q 92 610 90 571 q 189 884 99 782 q 460 986 279 986 q 665 941 583 986 q 787 827 747 896 q 831 686 826 758 l 831 683 q 822 665 831 672 q 801 658 814 658 l 774 658 q 743 688 749 658 q 647 854 717 806 q 460 903 578 903 q 257 829 329 903 q 179 603 185 756 q 178 488 178 565 q 179 369 178 410 q 257 143 185 217 q 460 69 329 69 q 647 118 578 69 q 743 285 717 167 q 774 314 749 314 l 801 314 q 823 306 814 314 q 831 286 832 299 q 787 145 826 214 q 665 31 747 76 q 460 -14 583 -14 z "},"Т":{"ha":774,"x_min":38,"x_max":736,"o":"m 374 0 q 351 8 360 0 q 343 31 343 17 l 343 889 l 68 889 q 46 897 54 889 q 38 919 38 906 l 38 940 q 46 963 38 954 q 68 972 54 972 l 704 972 q 728 964 719 972 q 736 940 736 956 l 736 919 q 727 897 736 906 q 704 889 718 889 l 431 889 l 431 31 q 422 8 431 17 q 399 0 413 0 l 374 0 z "},"У":{"ha":782,"x_min":21,"x_max":782,"o":"m 754 972 q 774 964 765 972 q 782 944 782 956 q 778 928 782 936 l 492 283 q 408 117 443 174 q 326 30 374 60 q 204 0 278 0 l 157 0 q 135 8 143 0 q 126 31 126 17 l 126 51 q 135 74 126 65 q 157 83 143 83 l 204 83 q 304 125 264 83 q 392 265 344 167 l 25 928 q 21 944 21 936 q 29 964 21 956 q 49 972 38 972 l 78 972 q 110 951 97 972 l 438 367 l 693 951 q 706 967 697 961 q 725 972 715 972 l 754 972 z "},"Ў":{"ha":782,"x_min":21,"x_max":782,"o":"m 754 972 q 774 964 765 972 q 782 944 782 956 q 778 928 782 936 l 492 283 q 408 117 443 174 q 326 30 374 60 q 204 0 278 0 l 157 0 q 135 8 143 0 q 126 31 126 17 l 126 51 q 135 74 126 65 q 157 83 143 83 l 204 83 q 304 125 264 83 q 392 265 344 167 l 25 928 q 21 944 21 936 q 29 964 21 956 q 49 972 38 972 l 78 972 q 110 951 97 972 l 438 367 l 693 951 q 706 967 697 961 q 725 972 715 972 l 754 972 m 399 1028 q 242 1074 288 1028 q 197 1189 197 1119 q 204 1208 197 1200 q 224 1215 211 1215 l 244 1215 q 264 1208 257 1215 q 271 1189 271 1200 q 399 1097 271 1097 q 526 1189 526 1097 q 533 1208 526 1200 q 553 1215 540 1215 l 574 1215 q 593 1208 586 1215 q 600 1189 600 1200 q 555 1074 600 1119 q 399 1028 510 1028 z "},"Ф":{"ha":1146,"x_min":92,"x_max":1054,"o":"m 560 -44 q 538 -36 546 -44 q 529 -14 529 -28 l 529 103 q 218 190 324 103 q 93 458 113 276 q 92 499 92 472 q 93 553 92 533 q 217 819 103 729 q 529 908 331 908 l 529 1011 q 538 1033 529 1025 q 560 1042 546 1042 l 586 1042 q 608 1033 600 1042 q 617 1011 617 1025 l 617 908 q 930 819 815 908 q 1053 553 1044 729 q 1054 499 1054 533 q 1053 458 1054 472 q 929 190 1036 276 q 617 103 822 103 l 617 -14 q 608 -36 617 -28 q 586 -44 600 -44 l 560 -44 m 529 825 q 281 758 368 825 q 181 546 194 690 q 179 511 179 533 q 181 465 179 483 q 278 253 189 321 q 529 186 367 186 l 529 825 m 617 186 q 965 465 951 186 q 967 511 967 483 q 965 546 967 533 q 863 758 950 692 q 617 825 776 825 l 617 186 z "},"Х":{"ha":846,"x_min":42,"x_max":806,"o":"m 69 0 q 50 8 58 0 q 42 28 42 17 q 47 46 42 38 l 371 494 l 60 926 q 54 944 54 935 q 63 964 54 956 q 82 972 71 972 l 115 972 q 147 951 133 972 l 426 563 l 700 951 q 732 972 715 972 l 763 972 q 782 964 774 972 q 790 944 790 956 q 785 926 790 935 l 478 492 l 800 46 q 806 28 806 38 q 797 8 806 17 q 778 0 789 0 l 744 0 q 713 21 728 0 l 422 422 l 132 21 q 100 0 118 0 l 69 0 z "},"Ч":{"ha":882,"x_min":83,"x_max":751,"o":"m 694 0 q 672 8 681 0 q 664 31 664 17 l 664 413 q 558 356 635 375 q 403 336 481 336 q 83 617 83 336 l 83 942 q 92 964 83 956 q 114 972 100 972 l 139 972 q 162 964 153 972 q 171 942 171 956 l 171 624 q 227 469 171 518 q 414 419 283 419 q 587 456 510 419 q 664 586 664 493 l 664 942 q 672 964 664 956 q 694 972 681 972 l 719 972 q 742 964 733 972 q 751 942 751 956 l 751 31 q 742 8 751 17 q 719 0 733 0 l 694 0 z "},"Ц":{"ha":992,"x_min":131,"x_max":943,"o":"m 886 -194 q 864 -186 872 -194 q 856 -164 856 -178 l 856 0 l 161 0 q 139 9 147 0 q 131 32 131 18 l 131 942 q 139 964 131 956 q 161 972 147 972 l 186 972 q 209 964 200 972 q 218 942 218 956 l 218 83 l 754 83 l 754 942 q 763 964 754 956 q 785 972 771 972 l 810 972 q 833 964 824 972 q 842 942 842 956 l 842 83 l 911 83 q 934 75 925 83 q 943 53 943 67 l 943 -164 q 934 -186 943 -178 q 911 -194 925 -194 l 886 -194 z "},"Ш":{"ha":1313,"x_min":131,"x_max":1182,"o":"m 161 0 q 139 8 147 0 q 131 31 131 17 l 131 942 q 139 964 131 956 q 161 972 147 972 l 186 972 q 209 964 200 972 q 218 942 218 956 l 218 83 l 613 83 l 613 942 q 621 964 613 956 q 643 972 629 972 l 668 972 q 691 964 682 972 q 700 942 700 956 l 700 83 l 1094 83 l 1094 942 q 1103 964 1094 956 q 1125 972 1111 972 l 1150 972 q 1173 964 1164 972 q 1182 942 1182 956 l 1182 31 q 1173 8 1182 17 q 1150 0 1164 0 l 161 0 z "},"Щ":{"ha":1332,"x_min":131,"x_max":1283,"o":"m 1226 -194 q 1204 -186 1213 -194 q 1196 -164 1196 -178 l 1196 0 l 161 0 q 139 8 147 0 q 131 31 131 17 l 131 942 q 139 964 131 956 q 161 972 147 972 l 186 972 q 209 964 200 972 q 218 942 218 956 l 218 83 l 613 83 l 613 942 q 621 964 613 956 q 643 972 629 972 l 668 972 q 691 964 682 972 q 700 942 700 956 l 700 83 l 1094 83 l 1094 942 q 1103 964 1094 956 q 1125 972 1111 972 l 1150 972 q 1173 964 1164 972 q 1182 942 1182 956 l 1182 83 l 1251 83 q 1274 75 1265 83 q 1283 53 1283 67 l 1283 -164 q 1274 -186 1283 -178 q 1251 -194 1265 -194 l 1226 -194 z "},"Џ":{"ha":972,"x_min":131,"x_max":842,"o":"m 472 -194 q 450 -186 458 -194 q 442 -164 442 -178 l 442 0 l 161 0 q 139 8 147 0 q 131 31 131 17 l 131 942 q 139 964 131 956 q 161 972 147 972 l 186 972 q 209 964 200 972 q 218 942 218 956 l 218 83 l 754 83 l 754 942 q 763 964 754 956 q 785 972 771 972 l 810 972 q 833 964 824 972 q 842 942 842 956 l 842 31 q 833 8 842 17 q 810 0 824 0 l 529 0 l 529 -164 q 520 -186 529 -178 q 497 -194 511 -194 l 472 -194 z "},"Ь":{"ha":806,"x_min":131,"x_max":750,"o":"m 161 0 q 139 8 147 0 q 131 31 131 17 l 131 942 q 139 964 131 956 q 161 972 147 972 l 186 972 q 209 964 200 972 q 218 942 218 956 l 218 588 l 458 588 q 674 513 599 588 q 750 297 750 439 q 718 154 750 222 q 620 43 686 86 q 458 0 554 0 l 161 0 m 444 83 q 605 142 547 83 q 663 301 663 201 q 609 453 663 403 q 444 504 556 504 l 218 504 l 218 83 l 444 83 z "},"Ъ":{"ha":963,"x_min":38,"x_max":907,"o":"m 332 0 q 310 8 318 0 q 301 31 301 17 l 301 889 l 68 889 q 46 897 54 889 q 38 919 38 906 l 38 940 q 46 963 38 954 q 68 972 54 972 l 358 972 q 381 964 372 972 q 389 942 389 956 l 389 588 l 615 588 q 831 513 756 588 q 907 297 907 439 q 875 154 907 222 q 777 43 843 86 q 615 0 711 0 l 332 0 m 601 83 q 762 142 704 83 q 819 301 819 201 q 766 453 819 403 q 601 504 713 504 l 389 504 l 389 83 l 601 83 z "}}}
